<?xml version="1.0" encoding="UTF-8" standalone="no"?>
<!DOCTYPE svg PUBLIC "-//W3C//DTD SVG 1.1//EN"
 "http://www.w3.org/Graphics/SVG/1.1/DTD/svg11.dtd">
<!-- Generated by graphviz version 15.0.0 (20260523.1842)
 -->
<!-- Title: One Edu &#160;— &#160;Azure Reference Architecture &#160;(App Service · single region) Pages: 1 -->
<svg width="2537pt" height="1456pt"
 viewBox="0.00 0.00 2537.00 1456.00" xmlns="http://www.w3.org/2000/svg" xmlns:xlink="http://www.w3.org/1999/xlink">
<g id="graph0" class="graph" transform="scale(1 1) rotate(0) translate(50.4 1405.7)">
<title>One Edu &#160;— &#160;Azure Reference Architecture &#160;(App Service · single region)</title>
<polygon fill="white" stroke="none" points="-50.4,50.4 -50.4,-1405.7 2486.8,-1405.7 2486.8,50.4 -50.4,50.4"/>
<text xml:space="preserve" text-anchor="middle" x="1218.2" y="-1330.4" font-family="Sans-Serif" font-size="22.00" fill="#2d3436">One Edu &#160;— &#160;Azure Reference Architecture &#160;(App Service · single region)</text>
<g id="clust1" class="cluster">
<title>cluster_Users / Clients</title>
<path fill="#e5f5fd" stroke="#aeb6be" d="M226.4,-565C226.4,-565 600.4,-565 600.4,-565 606.4,-565 612.4,-571 612.4,-577 612.4,-577 612.4,-756.85 612.4,-756.85 612.4,-762.85 606.4,-768.85 600.4,-768.85 600.4,-768.85 226.4,-768.85 226.4,-768.85 220.4,-768.85 214.4,-762.85 214.4,-756.85 214.4,-756.85 214.4,-577 214.4,-577 214.4,-571 220.4,-565 226.4,-565"/>
<text xml:space="preserve" text-anchor="middle" x="264.77" y="-753.45" font-family="Sans-Serif" font-size="12.00" fill="#2d3436">Users / Clients</text>
</g>
<g id="clust2" class="cluster">
<title>cluster_Edge</title>
<path fill="#e5f5fd" stroke="#aeb6be" d="M226.4,-292.9C226.4,-292.9 318.4,-292.9 318.4,-292.9 324.4,-292.9 330.4,-298.9 330.4,-304.9 330.4,-304.9 330.4,-484.75 330.4,-484.75 330.4,-490.75 324.4,-496.75 318.4,-496.75 318.4,-496.75 226.4,-496.75 226.4,-496.75 220.4,-496.75 214.4,-490.75 214.4,-484.75 214.4,-484.75 214.4,-304.9 214.4,-304.9 214.4,-298.9 220.4,-292.9 226.4,-292.9"/>
<text xml:space="preserve" text-anchor="middle" x="237.4" y="-481.35" font-family="Sans-Serif" font-size="12.00" fill="#2d3436">Edge</text>
</g>
<g id="clust3" class="cluster">
<title>cluster_Application tier (VNet)</title>
<path fill="#e5f5fd" stroke="#aeb6be" d="M1266.4,-1109.2C1266.4,-1109.2 1390.4,-1109.2 1390.4,-1109.2 1396.4,-1109.2 1402.4,-1115.2 1402.4,-1121.2 1402.4,-1121.2 1402.4,-1301.05 1402.4,-1301.05 1402.4,-1307.05 1396.4,-1313.05 1390.4,-1313.05 1390.4,-1313.05 1266.4,-1313.05 1266.4,-1313.05 1260.4,-1313.05 1254.4,-1307.05 1254.4,-1301.05 1254.4,-1301.05 1254.4,-1121.2 1254.4,-1121.2 1254.4,-1115.2 1260.4,-1109.2 1266.4,-1109.2"/>
<text xml:space="preserve" text-anchor="middle" x="1328.4" y="-1297.65" font-family="Sans-Serif" font-size="12.00" fill="#2d3436">Application tier (VNet)</text>
</g>
<g id="clust4" class="cluster">
<title>cluster_Data tier (Private Endpoints)</title>
<path fill="#e5f5fd" stroke="#aeb6be" d="M1478.4,-837.1C1478.4,-837.1 1852.4,-837.1 1852.4,-837.1 1858.4,-837.1 1864.4,-843.1 1864.4,-849.1 1864.4,-849.1 1864.4,-1028.95 1864.4,-1028.95 1864.4,-1034.95 1858.4,-1040.95 1852.4,-1040.95 1852.4,-1040.95 1478.4,-1040.95 1478.4,-1040.95 1472.4,-1040.95 1466.4,-1034.95 1466.4,-1028.95 1466.4,-1028.95 1466.4,-849.1 1466.4,-849.1 1466.4,-843.1 1472.4,-837.1 1478.4,-837.1"/>
<text xml:space="preserve" text-anchor="middle" x="1558.78" y="-1025.55" font-family="Sans-Serif" font-size="12.00" fill="#2d3436">Data tier (Private Endpoints)</text>
</g>
<g id="clust5" class="cluster">
<title>cluster_Security &amp; Observability</title>
<path fill="#e5f5fd" stroke="#aeb6be" d="M1901.4,-565C1901.4,-565 2134.4,-565 2134.4,-565 2140.4,-565 2146.4,-571 2146.4,-577 2146.4,-577 2146.4,-1028.95 2146.4,-1028.95 2146.4,-1034.95 2140.4,-1040.95 2134.4,-1040.95 2134.4,-1040.95 1901.4,-1040.95 1901.4,-1040.95 1895.4,-1040.95 1889.4,-1034.95 1889.4,-1028.95 1889.4,-1028.95 1889.4,-577 1889.4,-577 1889.4,-571 1895.4,-565 1901.4,-565"/>
<text xml:space="preserve" text-anchor="middle" x="1969.03" y="-1025.55" font-family="Sans-Serif" font-size="12.00" fill="#2d3436">Security &amp; Observability</text>
</g>
<g id="clust6" class="cluster">
<title>cluster_External (non&#45;Azure)</title>
<path fill="#e5f5fd" stroke="#aeb6be" d="M2183.4,-837.1C2183.4,-837.1 2416.4,-837.1 2416.4,-837.1 2422.4,-837.1 2428.4,-843.1 2428.4,-849.1 2428.4,-849.1 2428.4,-1028.95 2428.4,-1028.95 2428.4,-1034.95 2422.4,-1040.95 2416.4,-1040.95 2416.4,-1040.95 2183.4,-1040.95 2183.4,-1040.95 2177.4,-1040.95 2171.4,-1034.95 2171.4,-1028.95 2171.4,-1028.95 2171.4,-849.1 2171.4,-849.1 2171.4,-843.1 2177.4,-837.1 2183.4,-837.1"/>
<text xml:space="preserve" text-anchor="middle" x="2240.15" y="-1025.55" font-family="Sans-Serif" font-size="12.00" fill="#2d3436">External (non&#45;Azure)</text>
</g>
<g id="clust7" class="cluster">
<title>cluster_Phase 2 &#160;— &#160;activate when each module goes live</title>
<path fill="#fff6e6" stroke="#c8841e" stroke-width="2" stroke-dasharray="5,2" d="M632.4,-565C632.4,-565 1429.4,-565 1429.4,-565 1435.4,-565 1441.4,-571 1441.4,-577 1441.4,-577 1441.4,-1032.7 1441.4,-1032.7 1441.4,-1038.7 1435.4,-1044.7 1429.4,-1044.7 1429.4,-1044.7 632.4,-1044.7 632.4,-1044.7 626.4,-1044.7 620.4,-1038.7 620.4,-1032.7 620.4,-1032.7 620.4,-577 620.4,-577 620.4,-571 626.4,-565 632.4,-565"/>
<text xml:space="preserve" text-anchor="middle" x="813.27" y="-1026.45" font-family="Sans-Serif" font-size="15.00" fill="#8a5a00">Phase 2 &#160;— &#160;activate when each module goes live</text>
</g>
<!-- 47d4935632aa4c5b840484b23bbbfc12 -->
<g id="node1" class="node">
<title>47d4935632aa4c5b840484b23bbbfc12</title>
<image xlink:href="C:\Users\USER\AppData\Local\Programs\Python\Python312\Lib\site-packages\resources/azure/general\mobile.png" width="100.8px" height="100.8px" preserveAspectRatio="xMinYMin meet" x="363" y="-706.2"/>
<text xml:space="preserve" text-anchor="middle" x="413.4" y="-590.1" font-family="Sans-Serif" font-size="12.00" fill="#2d3436">Mobile app</text>
<text xml:space="preserve" text-anchor="middle" x="413.4" y="-575.85" font-family="Sans-Serif" font-size="12.00" fill="#2d3436">(iOS / Android)</text>
</g>
<!-- 08e80dc28fc540379646757fc1273ea4 -->
<g id="node4" class="node">
<title>08e80dc28fc540379646757fc1273ea4</title>
<image xlink:href="C:\Users\USER\AppData\Local\Programs\Python\Python312\Lib\site-packages\resources/azure/network\front-doors.png" width="100.8px" height="100.8px" preserveAspectRatio="xMinYMin meet" x="222" y="-434.1"/>
<text xml:space="preserve" text-anchor="middle" x="272.4" y="-318" font-family="Sans-Serif" font-size="12.00" fill="#2d3436">Front Door + WAF</text>
<text xml:space="preserve" text-anchor="middle" x="272.4" y="-303.75" font-family="Sans-Serif" font-size="12.00" fill="#2d3436">TLS · routing · OWASP</text>
</g>
<!-- 47d4935632aa4c5b840484b23bbbfc12&#45;&gt;08e80dc28fc540379646757fc1273ea4 -->
<g id="edge1" class="edge">
<title>47d4935632aa4c5b840484b23bbbfc12&#45;&gt;08e80dc28fc540379646757fc1273ea4</title>
<path fill="none" stroke="#5b6b7a" d="M370.71,-573.03C354.77,-542.49 336.56,-507.61 320.19,-476.25"/>
<polygon fill="#5b6b7a" stroke="#5b6b7a" points="323.37,-474.78 315.64,-467.54 317.17,-478.02 323.37,-474.78"/>
<text xml:space="preserve" text-anchor="middle" x="367.75" y="-515.65" font-family="Sans-Serif" font-size="13.00" fill="#2d3436">HTTPS</text>
</g>
<!-- 19d22cdc00394456b1ed990b8a4c078b -->
<g id="node2" class="node">
<title>19d22cdc00394456b1ed990b8a4c078b</title>
<image xlink:href="C:\Users\USER\AppData\Local\Programs\Python\Python312\Lib\site-packages\resources/azure/general\browser.png" width="100.8px" height="100.8px" preserveAspectRatio="xMinYMin meet" x="504" y="-706.2"/>
<text xml:space="preserve" text-anchor="middle" x="554.4" y="-590.25" font-family="Sans-Serif" font-size="12.00" fill="#2d3436">Web app / PWA</text>
</g>
<!-- 19d22cdc00394456b1ed990b8a4c078b&#45;&gt;08e80dc28fc540379646757fc1273ea4 -->
<g id="edge2" class="edge">
<title>19d22cdc00394456b1ed990b8a4c078b&#45;&gt;08e80dc28fc540379646757fc1273ea4</title>
<path fill="none" stroke="#5b6b7a" d="M504.25,-588.32C497.48,-580.26 490.43,-572.3 483.4,-565 435.57,-515.31 375.26,-464.82 331.38,-429.96"/>
<polygon fill="#5b6b7a" stroke="#5b6b7a" points="333.76,-427.38 323.74,-423.92 329.42,-432.87 333.76,-427.38"/>
<text xml:space="preserve" text-anchor="middle" x="466.2" y="-515.65" font-family="Sans-Serif" font-size="13.00" fill="#2d3436">HTTPS</text>
</g>
<!-- 1cff53c7b5e84bbd966f119da5585bad -->
<g id="node3" class="node">
<title>1cff53c7b5e84bbd966f119da5585bad</title>
<image xlink:href="C:\Users\USER\AppData\Local\Programs\Python\Python312\Lib\site-packages\resources/azure/general\usericon.png" width="100.8px" height="100.8px" preserveAspectRatio="xMinYMin meet" x="222" y="-706.2"/>
<text xml:space="preserve" text-anchor="middle" x="272.4" y="-590.1" font-family="Sans-Serif" font-size="12.00" fill="#2d3436">Students · Parents</text>
<text xml:space="preserve" text-anchor="middle" x="272.4" y="-575.85" font-family="Sans-Serif" font-size="12.00" fill="#2d3436">Teachers · Admins</text>
</g>
<!-- 1cff53c7b5e84bbd966f119da5585bad&#45;&gt;08e80dc28fc540379646757fc1273ea4 -->
<g id="edge3" class="edge">
<title>1cff53c7b5e84bbd966f119da5585bad&#45;&gt;08e80dc28fc540379646757fc1273ea4</title>
<path fill="none" stroke="#5b6b7a" d="M272.4,-573.03C272.4,-542.88 272.4,-508.52 272.4,-477.47"/>
<polygon fill="#5b6b7a" stroke="#5b6b7a" points="275.9,-477.71 272.4,-467.71 268.9,-477.71 275.9,-477.71"/>
<text xml:space="preserve" text-anchor="middle" x="293.02" y="-515.65" font-family="Sans-Serif" font-size="13.00" fill="#2d3436">HTTPS</text>
</g>
<!-- 01148b2517d34bc196be6245064e87f5 -->
<g id="node5" class="node">
<title>01148b2517d34bc196be6245064e87f5</title>
<image xlink:href="C:\Users\USER\AppData\Local\Programs\Python\Python312\Lib\site-packages\resources/azure/identity\external-identities.png" width="100.8px" height="100.8px" preserveAspectRatio="xMinYMin meet" x="0" y="-147.6"/>
<text xml:space="preserve" text-anchor="middle" x="50.4" y="-31.35" font-family="Sans-Serif" font-size="12.00" fill="#2d3436">Entra External ID</text>
<text xml:space="preserve" text-anchor="middle" x="50.4" y="-17.1" font-family="Sans-Serif" font-size="12.00" fill="#2d3436">Google · Apple · Microsoft/Outlook · Facebook</text>
<text xml:space="preserve" text-anchor="middle" x="50.4" y="-2.85" font-family="Sans-Serif" font-size="12.00" fill="#2d3436">SSO (OIDC / SAML) · MFA</text>
</g>
<!-- 08e80dc28fc540379646757fc1273ea4&#45;&gt;01148b2517d34bc196be6245064e87f5 -->
<g id="edge4" class="edge">
<title>08e80dc28fc540379646757fc1273ea4&#45;&gt;01148b2517d34bc196be6245064e87f5</title>
<path fill="none" stroke="#5b6b7a" d="M222.02,-318.14C187.96,-274.49 142.92,-216.76 107.52,-171.4"/>
<polygon fill="#5b6b7a" stroke="#5b6b7a" points="110.42,-169.43 101.51,-163.7 104.9,-173.73 110.42,-169.43"/>
<text xml:space="preserve" text-anchor="middle" x="250.18" y="-243.55" font-family="Sans-Serif" font-size="13.00" fill="#2d3436">federated / social sign&#45;in</text>
</g>
<!-- e13263202d0c4512807a7ba511c203d2 -->
<g id="node6" class="node">
<title>e13263202d0c4512807a7ba511c203d2</title>
<image xlink:href="C:\Users\USER\AppData\Local\Programs\Python\Python312\Lib\site-packages\resources/azure/web\app-services.png" width="100.8px" height="100.8px" preserveAspectRatio="xMinYMin meet" x="1278" y="-1250.4"/>
<text xml:space="preserve" text-anchor="middle" x="1328.4" y="-1134.3" font-family="Sans-Serif" font-size="12.00" fill="#2d3436">App Service (P1v3)</text>
<text xml:space="preserve" text-anchor="middle" x="1328.4" y="-1120.05" font-family="Sans-Serif" font-size="12.00" fill="#2d3436">SSR + API + workers</text>
</g>
<!-- 08e80dc28fc540379646757fc1273ea4&#45;&gt;e13263202d0c4512807a7ba511c203d2 -->
<g id="edge5" class="edge">
<title>08e80dc28fc540379646757fc1273ea4&#45;&gt;e13263202d0c4512807a7ba511c203d2</title>
<path fill="none" stroke="#5b6b7a" d="M228.19,-466.13C188.26,-550.34 140.51,-685.34 173.9,-800.1 209.89,-923.79 221.57,-974.22 329.4,-1044.7 485.96,-1147.02 1074.35,-1185.92 1266.95,-1196.08"/>
<polygon fill="#5b6b7a" stroke="#5b6b7a" points="1266.57,-1199.56 1276.74,-1196.59 1266.94,-1192.57 1266.57,-1199.56"/>
<text xml:space="preserve" text-anchor="middle" x="248.15" y="-787.75" font-family="Sans-Serif" font-size="13.00" fill="#2d3436">routes to home region</text>
</g>
<!-- e13263202d0c4512807a7ba511c203d2&#45;&gt;01148b2517d34bc196be6245064e87f5 -->
<g id="edge6" class="edge">
<title>e13263202d0c4512807a7ba511c203d2&#45;&gt;01148b2517d34bc196be6245064e87f5</title>
<path fill="none" stroke="#5b6b7a" stroke-dasharray="5,2" d="M1278.21,-1199.56C1038.01,-1200.94 17.4,-1191.35 17.4,-928.9 17.4,-928.9 17.4,-928.9 17.4,-382.7 17.4,-323.86 24.45,-258.63 32.03,-205.49"/>
<polygon fill="#5b6b7a" stroke="#5b6b7a" points="35.46,-206.24 33.44,-195.84 28.54,-205.23 35.46,-206.24"/>
<text xml:space="preserve" text-anchor="middle" x="59.02" y="-651.7" font-family="Sans-Serif" font-size="13.00" fill="#2d3436">OIDC / token</text>
</g>
<!-- a1ef7dab8b6c421d8a6ba4a8d691a960 -->
<g id="node7" class="node">
<title>a1ef7dab8b6c421d8a6ba4a8d691a960</title>
<image xlink:href="C:\Users\USER\AppData\Local\Programs\Python\Python312\Lib\site-packages\resources/azure/database\sql-databases.png" width="100.8px" height="100.8px" preserveAspectRatio="xMinYMin meet" x="1756" y="-978.3"/>
<text xml:space="preserve" text-anchor="middle" x="1806.4" y="-862.2" font-family="Sans-Serif" font-size="12.00" fill="#2d3436">Azure SQL (S2)</text>
<text xml:space="preserve" text-anchor="middle" x="1806.4" y="-847.95" font-family="Sans-Serif" font-size="12.00" fill="#2d3436">tenant data · Row&#45;Level Security</text>
</g>
<!-- e13263202d0c4512807a7ba511c203d2&#45;&gt;a1ef7dab8b6c421d8a6ba4a8d691a960 -->
<g id="edge7" class="edge">
<title>e13263202d0c4512807a7ba511c203d2&#45;&gt;a1ef7dab8b6c421d8a6ba4a8d691a960</title>
<path fill="none" stroke="#5b6b7a" d="M1378.53,-1188.83C1453.24,-1172.23 1596.53,-1134.74 1704.4,-1072.2 1726.16,-1059.58 1744.48,-1040.24 1759.32,-1019.82"/>
<polygon fill="#5b6b7a" stroke="#5b6b7a" points="1762.19,-1021.83 1765.03,-1011.62 1756.44,-1017.83 1762.19,-1021.83"/>
<text xml:space="preserve" text-anchor="middle" x="1755.94" y="-1059.85" font-family="Sans-Serif" font-size="13.00" fill="#2d3436">SQL · RLS</text>
</g>
<!-- 0d71dd144f8a4cfdb543f209e161ab69 -->
<g id="node8" class="node">
<title>0d71dd144f8a4cfdb543f209e161ab69</title>
<image xlink:href="C:\Users\USER\AppData\Local\Programs\Python\Python312\Lib\site-packages\resources/azure/storage\blob-storage.png" width="100.8px" height="100.8px" preserveAspectRatio="xMinYMin meet" x="1474" y="-978.3"/>
<text xml:space="preserve" text-anchor="middle" x="1524.4" y="-862.2" font-family="Sans-Serif" font-size="12.00" fill="#2d3436">Blob Storage</text>
<text xml:space="preserve" text-anchor="middle" x="1524.4" y="-847.95" font-family="Sans-Serif" font-size="12.00" fill="#2d3436">files · immutable audit log</text>
</g>
<!-- e13263202d0c4512807a7ba511c203d2&#45;&gt;0d71dd144f8a4cfdb543f209e161ab69 -->
<g id="edge8" class="edge">
<title>e13263202d0c4512807a7ba511c203d2&#45;&gt;0d71dd144f8a4cfdb543f209e161ab69</title>
<path fill="none" stroke="#5b6b7a" d="M1378.76,-1146.62C1398.95,-1124.47 1421.79,-1097.89 1440.4,-1072.2 1452.18,-1055.94 1463.76,-1037.93 1474.38,-1020.32"/>
<polygon fill="#5b6b7a" stroke="#5b6b7a" points="1477.29,-1022.28 1479.4,-1011.89 1471.28,-1018.69 1477.29,-1022.28"/>
<text xml:space="preserve" text-anchor="middle" x="1514.47" y="-1059.85" font-family="Sans-Serif" font-size="13.00" fill="#2d3436">blobs (scoped SAS)</text>
</g>
<!-- 3316c97ee76545be85bbbe51591e7955 -->
<g id="node9" class="node">
<title>3316c97ee76545be85bbbe51591e7955</title>
<image xlink:href="C:\Users\USER\AppData\Local\Programs\Python\Python312\Lib\site-packages\resources/azure/security\key-vaults.png" width="100.8px" height="100.8px" preserveAspectRatio="xMinYMin meet" x="1615" y="-978.3"/>
<text xml:space="preserve" text-anchor="middle" x="1665.4" y="-862.2" font-family="Sans-Serif" font-size="12.00" fill="#2d3436">Key Vault</text>
<text xml:space="preserve" text-anchor="middle" x="1665.4" y="-847.95" font-family="Sans-Serif" font-size="12.00" fill="#2d3436">secrets · per&#45;tenant keys</text>
</g>
<!-- e13263202d0c4512807a7ba511c203d2&#45;&gt;3316c97ee76545be85bbbe51591e7955 -->
<g id="edge9" class="edge">
<title>e13263202d0c4512807a7ba511c203d2&#45;&gt;3316c97ee76545be85bbbe51591e7955</title>
<path fill="none" stroke="#5b6b7a" d="M1378.65,-1184.84C1435.44,-1166.68 1527.85,-1130.41 1588.4,-1072.2 1603.67,-1057.52 1616.61,-1039.13 1627.26,-1020.48"/>
<polygon fill="#5b6b7a" stroke="#5b6b7a" points="1630.31,-1022.19 1632.06,-1011.74 1624.18,-1018.82 1630.31,-1022.19"/>
<text xml:space="preserve" text-anchor="middle" x="1648.6" y="-1059.85" font-family="Sans-Serif" font-size="13.00" fill="#2d3436">secrets / keys</text>
</g>
<!-- dbf4dc5ae13f482eb8876a10ff2ff0d4 -->
<g id="node10" class="node">
<title>dbf4dc5ae13f482eb8876a10ff2ff0d4</title>
<image xlink:href="C:\Users\USER\AppData\Local\Programs\Python\Python312\Lib\site-packages\resources/generic/blank\blank.png" width="100.8px" height="100.8px" preserveAspectRatio="xMinYMin meet" x="349" y="-978.3"/>
<text xml:space="preserve" text-anchor="middle" x="399.4" y="-862.2" font-family="Sans-Serif" font-size="12.00" fill="#2d3436">Communication Services</text>
<text xml:space="preserve" text-anchor="middle" x="399.4" y="-847.95" font-family="Sans-Serif" font-size="12.00" fill="#2d3436">Email · SMS · OTP</text>
</g>
<!-- e13263202d0c4512807a7ba511c203d2&#45;&gt;dbf4dc5ae13f482eb8876a10ff2ff0d4 -->
<g id="edge10" class="edge">
<title>e13263202d0c4512807a7ba511c203d2&#45;&gt;dbf4dc5ae13f482eb8876a10ff2ff0d4</title>
<path fill="none" stroke="#5b6b7a" d="M1278.17,-1195.48C1163.27,-1186.19 873.76,-1155.72 647.65,-1072.2 579.16,-1046.9 507.63,-1003.53 459.05,-971.11"/>
<polygon fill="#5b6b7a" stroke="#5b6b7a" points="461.15,-968.31 450.9,-965.63 457.24,-974.12 461.15,-968.31"/>
<text xml:space="preserve" text-anchor="middle" x="706.52" y="-1059.85" font-family="Sans-Serif" font-size="13.00" fill="#2d3436">email · SMS · OTP</text>
</g>
<!-- aef31d6cec7d4ad8a1a7957b50066c76 -->
<g id="node11" class="node">
<title>aef31d6cec7d4ad8a1a7957b50066c76</title>
<image xlink:href="C:\Users\USER\AppData\Local\Programs\Python\Python312\Lib\site-packages\resources/azure/security\microsoft-defender-for-cloud.png" width="100.8px" height="100.8px" preserveAspectRatio="xMinYMin meet" x="1897" y="-978.3"/>
<text xml:space="preserve" text-anchor="middle" x="1947.4" y="-862.2" font-family="Sans-Serif" font-size="12.00" fill="#2d3436">Defender for Cloud</text>
<text xml:space="preserve" text-anchor="middle" x="1947.4" y="-847.95" font-family="Sans-Serif" font-size="12.00" fill="#2d3436">threat detection</text>
</g>
<!-- e13263202d0c4512807a7ba511c203d2&#45;&gt;aef31d6cec7d4ad8a1a7957b50066c76 -->
<g id="edge12" class="edge">
<title>e13263202d0c4512807a7ba511c203d2&#45;&gt;aef31d6cec7d4ad8a1a7957b50066c76</title>
<path fill="none" stroke="#9aa7b4" stroke-dasharray="1,5" d="M1378.74,-1197.54C1482.62,-1192.03 1723.62,-1166.07 1874.4,-1044.7 1883.38,-1037.47 1891.58,-1028.83 1898.96,-1019.56"/>
<polygon fill="#9aa7b4" stroke="#9aa7b4" points="1901.65,-1021.81 1904.89,-1011.72 1896.07,-1017.59 1901.65,-1021.81"/>
</g>
<!-- aa15acfa441d4db7b495715bb129ed5c -->
<g id="node12" class="node">
<title>aa15acfa441d4db7b495715bb129ed5c</title>
<image xlink:href="C:\Users\USER\AppData\Local\Programs\Python\Python312\Lib\site-packages\resources/azure/devops\application-insights.png" width="100.8px" height="100.8px" preserveAspectRatio="xMinYMin meet" x="2038" y="-978.3"/>
<text xml:space="preserve" text-anchor="middle" x="2088.4" y="-862.2" font-family="Sans-Serif" font-size="12.00" fill="#2d3436">App Insights</text>
<text xml:space="preserve" text-anchor="middle" x="2088.4" y="-847.95" font-family="Sans-Serif" font-size="12.00" fill="#2d3436">tracing</text>
</g>
<!-- e13263202d0c4512807a7ba511c203d2&#45;&gt;aa15acfa441d4db7b495715bb129ed5c -->
<g id="edge11" class="edge">
<title>e13263202d0c4512807a7ba511c203d2&#45;&gt;aa15acfa441d4db7b495715bb129ed5c</title>
<path fill="none" stroke="#9aa7b4" stroke-dasharray="1,5" d="M1378.75,-1192.87C1519.43,-1174.96 1913.12,-1119.23 2017.4,-1044.7 2027.09,-1037.77 2035.73,-1029.07 2043.34,-1019.55"/>
<polygon fill="#9aa7b4" stroke="#9aa7b4" points="2045.94,-1021.93 2049.14,-1011.83 2040.34,-1017.73 2045.94,-1021.93"/>
</g>
<!-- 96ffd01d9e7e4aeebf80a0cefc159214 -->
<g id="node14" class="node">
<title>96ffd01d9e7e4aeebf80a0cefc159214</title>
<image xlink:href="C:\Users\USER\AppData\Local\Programs\Python\Python312\Lib\site-packages\resources/generic/blank\blank.png" width="100.8px" height="100.8px" preserveAspectRatio="xMinYMin meet" x="2179" y="-978.3"/>
<text xml:space="preserve" text-anchor="middle" x="2229.4" y="-862.2" font-family="Sans-Serif" font-size="12.00" fill="#2d3436">Payment gateway</text>
<text xml:space="preserve" text-anchor="middle" x="2229.4" y="-847.95" font-family="Sans-Serif" font-size="12.00" fill="#2d3436">(Stripe / PayHere)</text>
</g>
<!-- e13263202d0c4512807a7ba511c203d2&#45;&gt;96ffd01d9e7e4aeebf80a0cefc159214 -->
<g id="edge14" class="edge">
<title>e13263202d0c4512807a7ba511c203d2&#45;&gt;96ffd01d9e7e4aeebf80a0cefc159214</title>
<path fill="none" stroke="#5b6b7a" d="M1378.61,-1194.91C1537.63,-1181.14 2027.27,-1132.4 2156.4,-1044.7 2166.48,-1037.85 2175.46,-1029.1 2183.36,-1019.48"/>
<polygon fill="#5b6b7a" stroke="#5b6b7a" points="2186.08,-1021.69 2189.4,-1011.63 2180.53,-1017.42 2186.08,-1021.69"/>
<text xml:space="preserve" text-anchor="middle" x="2207.41" y="-1059.85" font-family="Sans-Serif" font-size="13.00" fill="#2d3436">payments (tokenised)</text>
</g>
<!-- b57beae440314ca3850910cad14535a6 -->
<g id="node16" class="node">
<title>b57beae440314ca3850910cad14535a6</title>
<image xlink:href="C:\Users\USER\AppData\Local\Programs\Python\Python312\Lib\site-packages\resources/azure/integration\api-management.png" width="100.8px" height="100.8px" preserveAspectRatio="xMinYMin meet" x="1051" y="-978.3"/>
<text xml:space="preserve" text-anchor="middle" x="1101.4" y="-862.2" font-family="Sans-Serif" font-size="12.00" fill="#2d3436">API Management</text>
<text xml:space="preserve" text-anchor="middle" x="1101.4" y="-847.95" font-family="Sans-Serif" font-size="12.00" fill="#2d3436">public API · webhooks</text>
</g>
<!-- e13263202d0c4512807a7ba511c203d2&#45;&gt;b57beae440314ca3850910cad14535a6 -->
<g id="edge16" class="edge">
<title>e13263202d0c4512807a7ba511c203d2&#45;&gt;b57beae440314ca3850910cad14535a6</title>
<path fill="none" stroke="#c8841e" d="M1278.02,-1177.93C1234.69,-1157.25 1173.77,-1121.61 1138.65,-1072.2 1127.93,-1057.12 1120.29,-1039.2 1114.85,-1021.21"/>
<polygon fill="#c8841e" stroke="#c8841e" points="1118.29,-1020.49 1112.23,-1011.8 1111.54,-1022.37 1118.29,-1020.49"/>
<text xml:space="preserve" text-anchor="middle" x="1205.03" y="-1059.85" font-family="Sans-Serif" font-size="13.00" fill="#2d3436">exposes / webhooks</text>
</g>
<!-- 6e9c1959f1b34e418ca56e898aaf6f9e -->
<g id="node17" class="node">
<title>6e9c1959f1b34e418ca56e898aaf6f9e</title>
<image xlink:href="C:\Users\USER\AppData\Local\Programs\Python\Python312\Lib\site-packages\resources/azure/integration\service-bus.png" width="100.8px" height="100.8px" preserveAspectRatio="xMinYMin meet" x="1192" y="-978.3"/>
<text xml:space="preserve" text-anchor="middle" x="1242.4" y="-862.2" font-family="Sans-Serif" font-size="12.00" fill="#2d3436">Service Bus</text>
<text xml:space="preserve" text-anchor="middle" x="1242.4" y="-847.95" font-family="Sans-Serif" font-size="12.00" fill="#2d3436">async jobs · migration</text>
</g>
<!-- e13263202d0c4512807a7ba511c203d2&#45;&gt;6e9c1959f1b34e418ca56e898aaf6f9e -->
<g id="edge17" class="edge">
<title>e13263202d0c4512807a7ba511c203d2&#45;&gt;6e9c1959f1b34e418ca56e898aaf6f9e</title>
<path fill="none" stroke="#c8841e" d="M1301.23,-1117.22C1296.33,-1102.26 1291.3,-1086.77 1286.65,-1072.2 1281.37,-1055.66 1275.85,-1038.02 1270.55,-1020.97"/>
<polygon fill="#c8841e" stroke="#c8841e" points="1274.04,-1020.41 1267.74,-1011.89 1267.36,-1022.48 1274.04,-1020.41"/>
<text xml:space="preserve" text-anchor="middle" x="1315.53" y="-1059.85" font-family="Sans-Serif" font-size="13.00" fill="#2d3436">enqueue</text>
</g>
<!-- 9ab5c6896cb940c898bf20d4dbd8e86b -->
<g id="node18" class="node">
<title>9ab5c6896cb940c898bf20d4dbd8e86b</title>
<image xlink:href="C:\Users\USER\AppData\Local\Programs\Python\Python312\Lib\site-packages\resources/azure/web\signalr.png" width="100.8px" height="100.8px" preserveAspectRatio="xMinYMin meet" x="1333" y="-978.3"/>
<text xml:space="preserve" text-anchor="middle" x="1383.4" y="-862.2" font-family="Sans-Serif" font-size="12.00" fill="#2d3436">SignalR</text>
<text xml:space="preserve" text-anchor="middle" x="1383.4" y="-847.95" font-family="Sans-Serif" font-size="12.00" fill="#2d3436">real&#45;time messaging</text>
</g>
<!-- e13263202d0c4512807a7ba511c203d2&#45;&gt;9ab5c6896cb940c898bf20d4dbd8e86b -->
<g id="edge18" class="edge">
<title>e13263202d0c4512807a7ba511c203d2&#45;&gt;9ab5c6896cb940c898bf20d4dbd8e86b</title>
<path fill="none" stroke="#1f7a3d" d="M1345.05,-1117.23C1351.19,-1087.08 1358.19,-1052.72 1364.51,-1021.67"/>
<polygon fill="#1f7a3d" stroke="#1f7a3d" points="1367.94,-1022.37 1366.5,-1011.88 1361.08,-1020.98 1367.94,-1022.37"/>
<text xml:space="preserve" text-anchor="middle" x="1393.92" y="-1059.85" font-family="Sans-Serif" font-size="13.00" fill="#2d3436">WebSocket</text>
</g>
<!-- b93328c98dd048618f3598337dff96f4 -->
<g id="node19" class="node">
<title>b93328c98dd048618f3598337dff96f4</title>
<image xlink:href="C:\Users\USER\AppData\Local\Programs\Python\Python312\Lib\site-packages\resources/azure/database\cache-for-redis.png" width="100.8px" height="100.8px" preserveAspectRatio="xMinYMin meet" x="628" y="-978.3"/>
<text xml:space="preserve" text-anchor="middle" x="678.4" y="-862.2" font-family="Sans-Serif" font-size="12.00" fill="#2d3436">Redis</text>
<text xml:space="preserve" text-anchor="middle" x="678.4" y="-847.95" font-family="Sans-Serif" font-size="12.00" fill="#2d3436">sessions · rate&#45;limit</text>
</g>
<!-- e13263202d0c4512807a7ba511c203d2&#45;&gt;b93328c98dd048618f3598337dff96f4 -->
<g id="edge19" class="edge">
<title>e13263202d0c4512807a7ba511c203d2&#45;&gt;b93328c98dd048618f3598337dff96f4</title>
<path fill="none" stroke="#c8841e" d="M1278.14,-1197.79C1170.59,-1192.79 914.54,-1167.81 749.4,-1044.7 740.02,-1037.7 731.6,-1029.07 724.13,-1019.69"/>
<polygon fill="#c8841e" stroke="#c8841e" points="726.96,-1017.63 718.17,-1011.71 721.35,-1021.82 726.96,-1017.63"/>
<text xml:space="preserve" text-anchor="middle" x="809.24" y="-1059.85" font-family="Sans-Serif" font-size="13.00" fill="#2d3436">cache</text>
</g>
<!-- e8160ff9940c4564b5f6502352909b66 -->
<g id="node20" class="node">
<title>e8160ff9940c4564b5f6502352909b66</title>
<image xlink:href="C:\Users\USER\AppData\Local\Programs\Python\Python312\Lib\site-packages\resources/azure/mobile\notification-hubs.png" width="100.8px" height="100.8px" preserveAspectRatio="xMinYMin meet" x="769" y="-978.3"/>
<text xml:space="preserve" text-anchor="middle" x="819.4" y="-862.2" font-family="Sans-Serif" font-size="12.00" fill="#2d3436">Notification Hubs</text>
<text xml:space="preserve" text-anchor="middle" x="819.4" y="-847.95" font-family="Sans-Serif" font-size="12.00" fill="#2d3436">push</text>
</g>
<!-- e13263202d0c4512807a7ba511c203d2&#45;&gt;e8160ff9940c4564b5f6502352909b66 -->
<g id="edge20" class="edge">
<title>e13263202d0c4512807a7ba511c203d2&#45;&gt;e8160ff9940c4564b5f6502352909b66</title>
<path fill="none" stroke="#c8841e" d="M1278.1,-1195.09C1188.19,-1185.45 999.2,-1152.81 890.4,-1044.7 882.83,-1037.17 875.71,-1028.69 869.13,-1019.82"/>
<polygon fill="#c8841e" stroke="#c8841e" points="871.99,-1017.81 863.34,-1011.69 866.29,-1021.87 871.99,-1017.81"/>
<text xml:space="preserve" text-anchor="middle" x="936.98" y="-1059.85" font-family="Sans-Serif" font-size="13.00" fill="#2d3436">alerts</text>
</g>
<!-- 02485556b65f4f1a8f5963e2a97b61ac -->
<g id="node21" class="node">
<title>02485556b65f4f1a8f5963e2a97b61ac</title>
<image xlink:href="C:\Users\USER\AppData\Local\Programs\Python\Python312\Lib\site-packages\resources/azure/ml\azure-open-ai.png" width="100.8px" height="100.8px" preserveAspectRatio="xMinYMin meet" x="910" y="-978.3"/>
<text xml:space="preserve" text-anchor="middle" x="960.4" y="-862.2" font-family="Sans-Serif" font-size="12.00" fill="#2d3436">Azure OpenAI</text>
<text xml:space="preserve" text-anchor="middle" x="960.4" y="-847.95" font-family="Sans-Serif" font-size="12.00" fill="#2d3436">insights · tutor</text>
</g>
<!-- e13263202d0c4512807a7ba511c203d2&#45;&gt;02485556b65f4f1a8f5963e2a97b61ac -->
<g id="edge21" class="edge">
<title>e13263202d0c4512807a7ba511c203d2&#45;&gt;02485556b65f4f1a8f5963e2a97b61ac</title>
<path fill="none" stroke="#c8841e" d="M1278.13,-1194.33C1204.78,-1184.75 1069.14,-1156.13 995.15,-1072.2 982.55,-1057.91 974.35,-1039.83 969.04,-1021.36"/>
<polygon fill="#c8841e" stroke="#c8841e" points="972.49,-1020.74 966.61,-1011.93 965.71,-1022.49 972.49,-1020.74"/>
<text xml:space="preserve" text-anchor="middle" x="1057.78" y="-1059.85" font-family="Sans-Serif" font-size="13.00" fill="#2d3436">in&#45;region inference</text>
</g>
<!-- dbf4dc5ae13f482eb8876a10ff2ff0d4&#45;&gt;1cff53c7b5e84bbd966f119da5585bad -->
<g id="edge23" class="edge">
<title>dbf4dc5ae13f482eb8876a10ff2ff0d4&#45;&gt;1cff53c7b5e84bbd966f119da5585bad</title>
<path fill="none" stroke="#9aa7b4" stroke-dasharray="5,2" d="M360.95,-845.13C346.59,-814.59 330.19,-779.71 315.44,-748.35"/>
<polygon fill="#9aa7b4" stroke="#9aa7b4" points="318.78,-747.22 311.36,-739.66 312.45,-750.2 318.78,-747.22"/>
<text xml:space="preserve" text-anchor="middle" x="398.58" y="-787.75" font-family="Sans-Serif" font-size="13.00" fill="#2d3436">email · SMS · OTP</text>
</g>
<!-- b414c7521e9f46c9b572e126a41a237e -->
<g id="node13" class="node">
<title>b414c7521e9f46c9b572e126a41a237e</title>
<image xlink:href="C:\Users\USER\AppData\Local\Programs\Python\Python312\Lib\site-packages\resources/azure/analytics\log-analytics-workspaces.png" width="100.8px" height="100.8px" preserveAspectRatio="xMinYMin meet" x="2038" y="-706.2"/>
<text xml:space="preserve" text-anchor="middle" x="2088.4" y="-590.1" font-family="Sans-Serif" font-size="12.00" fill="#2d3436">Log Analytics</text>
<text xml:space="preserve" text-anchor="middle" x="2088.4" y="-575.85" font-family="Sans-Serif" font-size="12.00" fill="#2d3436">logs · audit retention</text>
</g>
<!-- aa15acfa441d4db7b495715bb129ed5c&#45;&gt;b414c7521e9f46c9b572e126a41a237e -->
<g id="edge13" class="edge">
<title>aa15acfa441d4db7b495715bb129ed5c&#45;&gt;b414c7521e9f46c9b572e126a41a237e</title>
<path fill="none" stroke="#9aa7b4" stroke-dasharray="1,5" d="M2088.4,-845.13C2088.4,-814.98 2088.4,-780.62 2088.4,-749.57"/>
<polygon fill="#9aa7b4" stroke="#9aa7b4" points="2091.9,-749.81 2088.4,-739.81 2084.9,-749.81 2091.9,-749.81"/>
</g>
<!-- 49fef0729ffc4e29acf238fa885694ba -->
<g id="node15" class="node">
<title>49fef0729ffc4e29acf238fa885694ba</title>
<image xlink:href="C:\Users\USER\AppData\Local\Programs\Python\Python312\Lib\site-packages\resources/generic/blank\blank.png" width="100.8px" height="100.8px" preserveAspectRatio="xMinYMin meet" x="2320" y="-978.3"/>
<text xml:space="preserve" text-anchor="middle" x="2370.4" y="-862.2" font-family="Sans-Serif" font-size="12.00" fill="#2d3436">Legacy LMS</text>
<text xml:space="preserve" text-anchor="middle" x="2370.4" y="-847.95" font-family="Sans-Serif" font-size="12.00" fill="#2d3436">(Moodle) — migration</text>
</g>
<!-- 49fef0729ffc4e29acf238fa885694ba&#45;&gt;e13263202d0c4512807a7ba511c203d2 -->
<g id="edge15" class="edge">
<title>49fef0729ffc4e29acf238fa885694ba&#45;&gt;e13263202d0c4512807a7ba511c203d2</title>
<path fill="none" stroke="#5b6b7a" d="M2340.89,-1010.37C2328.5,-1033.86 2311.67,-1057.17 2289.4,-1072.2 2141.33,-1172.15 1577.91,-1193.53 1389.89,-1197.91"/>
<polygon fill="#5b6b7a" stroke="#5b6b7a" points="1390.02,-1194.41 1380.1,-1198.13 1390.17,-1201.41 1390.02,-1194.41"/>
<text xml:space="preserve" text-anchor="middle" x="2345.03" y="-1059.85" font-family="Sans-Serif" font-size="13.00" fill="#2d3436">import / API</text>
</g>
<!-- 9ab5c6896cb940c898bf20d4dbd8e86b&#45;&gt;47d4935632aa4c5b840484b23bbbfc12 -->
<g id="edge25" class="edge">
<title>9ab5c6896cb940c898bf20d4dbd8e86b&#45;&gt;47d4935632aa4c5b840484b23bbbfc12</title>
<path fill="none" stroke="#1f7a3d" stroke-dasharray="5,2" d="M1333.45,-852.1C1326.99,-846.24 1319.97,-841.07 1312.4,-837.1 1200.65,-778.43 870.64,-817.61 745.65,-800.1 711.31,-795.29 703.7,-788.66 669.4,-783.6 628.6,-777.59 519.71,-790.15 484.4,-768.85 474.93,-763.14 466.52,-755.63 459.1,-747.2"/>
<polygon fill="#1f7a3d" stroke="#1f7a3d" points="461.99,-745.21 452.96,-739.67 456.57,-749.63 461.99,-745.21"/>
<text xml:space="preserve" text-anchor="middle" x="819.52" y="-787.75" font-family="Sans-Serif" font-size="13.00" fill="#2d3436">real&#45;time (WebSocket)</text>
</g>
<!-- 9ab5c6896cb940c898bf20d4dbd8e86b&#45;&gt;19d22cdc00394456b1ed990b8a4c078b -->
<g id="edge26" class="edge">
<title>9ab5c6896cb940c898bf20d4dbd8e86b&#45;&gt;19d22cdc00394456b1ed990b8a4c078b</title>
<path fill="none" stroke="#1f7a3d" stroke-dasharray="5,2" d="M1333.17,-852.61C1326.77,-846.65 1319.83,-841.32 1312.4,-837.1 1152.94,-746.66 1085.98,-800.11 903.4,-783.6 870.94,-780.66 637.69,-786.68 610.4,-768.85 597.36,-760.33 587.24,-747.81 579.41,-734.19"/>
<polygon fill="#1f7a3d" stroke="#1f7a3d" points="582.57,-732.68 574.82,-725.46 576.38,-735.94 582.57,-732.68"/>
</g>
<!-- e8160ff9940c4564b5f6502352909b66&#45;&gt;47d4935632aa4c5b840484b23bbbfc12 -->
<g id="edge24" class="edge">
<title>e8160ff9940c4564b5f6502352909b66&#45;&gt;47d4935632aa4c5b840484b23bbbfc12</title>
<path fill="none" stroke="#b0792f" stroke-dasharray="5,2" d="M769.25,-853.64C762.8,-847.39 755.83,-841.71 748.4,-837.1 645.45,-773.16 579.42,-844.08 484.4,-768.85 476.51,-762.6 469.25,-755.23 462.62,-747.28"/>
<polygon fill="#b0792f" stroke="#b0792f" points="465.56,-745.35 456.62,-739.66 460.06,-749.68 465.56,-745.35"/>
<text xml:space="preserve" text-anchor="middle" x="598.83" y="-787.75" font-family="Sans-Serif" font-size="13.00" fill="#2d3436">push · APNS / FCM</text>
</g>
<!-- 915b67dbfdad4e3c9c0e66f4c084925d -->
<g id="node22" class="node">
<title>915b67dbfdad4e3c9c0e66f4c084925d</title>
<image xlink:href="C:\Users\USER\AppData\Local\Programs\Python\Python312\Lib\site-packages\resources/azure/web\cognitive-search.png" width="100.8px" height="100.8px" preserveAspectRatio="xMinYMin meet" x="910" y="-706.2"/>
<text xml:space="preserve" text-anchor="middle" x="960.4" y="-590.1" font-family="Sans-Serif" font-size="12.00" fill="#2d3436">AI Search</text>
<text xml:space="preserve" text-anchor="middle" x="960.4" y="-575.85" font-family="Sans-Serif" font-size="12.00" fill="#2d3436">RAG over tenant content</text>
</g>
<!-- 02485556b65f4f1a8f5963e2a97b61ac&#45;&gt;915b67dbfdad4e3c9c0e66f4c084925d -->
<g id="edge22" class="edge">
<title>02485556b65f4f1a8f5963e2a97b61ac&#45;&gt;915b67dbfdad4e3c9c0e66f4c084925d</title>
<path fill="none" stroke="#c8841e" stroke-dasharray="5,2" d="M960.4,-845.13C960.4,-814.98 960.4,-780.62 960.4,-749.57"/>
<polygon fill="#c8841e" stroke="#c8841e" points="963.9,-749.81 960.4,-739.81 956.9,-749.81 963.9,-749.81"/>
</g>
</g>
</svg>
