<?xml version="1.0" encoding="UTF-8" standalone="no"?>
<!DOCTYPE svg PUBLIC "-//W3C//DTD SVG 1.1//EN"
 "http://www.w3.org/Graphics/SVG/1.1/DTD/svg11.dtd">
<!-- Generated by graphviz version 15.0.0 (20260523.1842)
 -->
<!-- Title: One Edu &#160;— &#160;Azure Reference Architecture &#160;(App Service · single region) Pages: 1 -->
<svg width="2330pt" height="1427pt"
 viewBox="0.00 0.00 2330.00 1427.00" xmlns="http://www.w3.org/2000/svg" xmlns:xlink="http://www.w3.org/1999/xlink">
<g id="graph0" class="graph" transform="scale(1 1) rotate(0) translate(50.4 1376.9)">
<title>One Edu &#160;— &#160;Azure Reference Architecture &#160;(App Service · single region)</title>
<polygon fill="white" stroke="none" points="-50.4,50.4 -50.4,-1376.9 2279.4,-1376.9 2279.4,50.4 -50.4,50.4"/>
<text xml:space="preserve" text-anchor="middle" x="1114.5" y="-1301.6" font-family="Sans-Serif" font-size="22.00" fill="#2d3436">One Edu &#160;— &#160;Azure Reference Architecture &#160;(App Service · single region)</text>
<g id="clust1" class="cluster">
<title>cluster_Users / Clients</title>
<path fill="#e5f5fd" stroke="#aeb6be" d="M20,-1080.4C20,-1080.4 394,-1080.4 394,-1080.4 400,-1080.4 406,-1086.4 406,-1092.4 406,-1092.4 406,-1272.25 406,-1272.25 406,-1278.25 400,-1284.25 394,-1284.25 394,-1284.25 20,-1284.25 20,-1284.25 14,-1284.25 8,-1278.25 8,-1272.25 8,-1272.25 8,-1092.4 8,-1092.4 8,-1086.4 14,-1080.4 20,-1080.4"/>
<text xml:space="preserve" text-anchor="middle" x="58.38" y="-1268.85" font-family="Sans-Serif" font-size="12.00" fill="#2d3436">Users / Clients</text>
</g>
<g id="clust2" class="cluster">
<title>cluster_Edge</title>
<path fill="#e5f5fd" stroke="#aeb6be" d="M161,-812.3C161,-812.3 253,-812.3 253,-812.3 259,-812.3 265,-818.3 265,-824.3 265,-824.3 265,-1004.15 265,-1004.15 265,-1010.15 259,-1016.15 253,-1016.15 253,-1016.15 161,-1016.15 161,-1016.15 155,-1016.15 149,-1010.15 149,-1004.15 149,-1004.15 149,-824.3 149,-824.3 149,-818.3 155,-812.3 161,-812.3"/>
<text xml:space="preserve" text-anchor="middle" x="172" y="-1000.75" font-family="Sans-Serif" font-size="12.00" fill="#2d3436">Edge</text>
</g>
<g id="clust3" class="cluster">
<title>cluster_Application tier (VNet)</title>
<path fill="#e5f5fd" stroke="#aeb6be" d="M275,-276.1C275,-276.1 399,-276.1 399,-276.1 405,-276.1 411,-282.1 411,-288.1 411,-288.1 411,-736.05 411,-736.05 411,-742.05 405,-748.05 399,-748.05 399,-748.05 275,-748.05 275,-748.05 269,-748.05 263,-742.05 263,-736.05 263,-736.05 263,-288.1 263,-288.1 263,-282.1 269,-276.1 275,-276.1"/>
<text xml:space="preserve" text-anchor="middle" x="337" y="-732.65" font-family="Sans-Serif" font-size="12.00" fill="#2d3436">Application tier (VNet)</text>
</g>
<g id="clust4" class="cluster">
<title>cluster_Integration</title>
<path fill="#e5f5fd" stroke="#aeb6be" d="M438,-8C438,-8 812,-8 812,-8 818,-8 824,-14 824,-20 824,-20 824,-199.85 824,-199.85 824,-205.85 818,-211.85 812,-211.85 812,-211.85 438,-211.85 438,-211.85 432,-211.85 426,-205.85 426,-199.85 426,-199.85 426,-20 426,-20 426,-14 432,-8 438,-8"/>
<text xml:space="preserve" text-anchor="middle" x="467" y="-196.45" font-family="Sans-Serif" font-size="12.00" fill="#2d3436">Integration</text>
</g>
<g id="clust5" class="cluster">
<title>cluster_Data tier (Private Endpoints)</title>
<path fill="#e5f5fd" stroke="#aeb6be" d="M1130,-276.1C1130,-276.1 1645,-276.1 1645,-276.1 1651,-276.1 1657,-282.1 1657,-288.1 1657,-288.1 1657,-467.95 1657,-467.95 1657,-473.95 1651,-479.95 1645,-479.95 1645,-479.95 1130,-479.95 1130,-479.95 1124,-479.95 1118,-473.95 1118,-467.95 1118,-467.95 1118,-288.1 1118,-288.1 1118,-282.1 1124,-276.1 1130,-276.1"/>
<text xml:space="preserve" text-anchor="middle" x="1210.38" y="-464.55" font-family="Sans-Serif" font-size="12.00" fill="#2d3436">Data tier (Private Endpoints)</text>
</g>
<g id="clust6" class="cluster">
<title>cluster_AI (in&#45;region)</title>
<path fill="#e5f5fd" stroke="#aeb6be" d="M1694,-8C1694,-8 1786,-8 1786,-8 1792,-8 1798,-14 1798,-20 1798,-20 1798,-467.95 1798,-467.95 1798,-473.95 1792,-479.95 1786,-479.95 1786,-479.95 1694,-479.95 1694,-479.95 1688,-479.95 1682,-473.95 1682,-467.95 1682,-467.95 1682,-20 1682,-20 1682,-14 1688,-8 1694,-8"/>
<text xml:space="preserve" text-anchor="middle" x="1728.62" y="-464.55" font-family="Sans-Serif" font-size="12.00" fill="#2d3436">AI (in&#45;region)</text>
</g>
<g id="clust7" class="cluster">
<title>cluster_Engagement</title>
<path fill="#e5f5fd" stroke="#aeb6be" d="M1835,-276.1C1835,-276.1 1927,-276.1 1927,-276.1 1933,-276.1 1939,-282.1 1939,-288.1 1939,-288.1 1939,-467.95 1939,-467.95 1939,-473.95 1933,-479.95 1927,-479.95 1927,-479.95 1835,-479.95 1835,-479.95 1829,-479.95 1823,-473.95 1823,-467.95 1823,-467.95 1823,-288.1 1823,-288.1 1823,-282.1 1829,-276.1 1835,-276.1"/>
<text xml:space="preserve" text-anchor="middle" x="1869.25" y="-464.55" font-family="Sans-Serif" font-size="12.00" fill="#2d3436">Engagement</text>
</g>
<g id="clust8" class="cluster">
<title>cluster_Security &amp; Observability</title>
<path fill="#e5f5fd" stroke="#aeb6be" d="M1976,-8C1976,-8 2209,-8 2209,-8 2215,-8 2221,-14 2221,-20 2221,-20 2221,-467.95 2221,-467.95 2221,-473.95 2215,-479.95 2209,-479.95 2209,-479.95 1976,-479.95 1976,-479.95 1970,-479.95 1964,-473.95 1964,-467.95 1964,-467.95 1964,-20 1964,-20 1964,-14 1970,-8 1976,-8"/>
<text xml:space="preserve" text-anchor="middle" x="2043.62" y="-464.55" font-family="Sans-Serif" font-size="12.00" fill="#2d3436">Security &amp; Observability</text>
</g>
<g id="clust9" class="cluster">
<title>cluster_External (non&#45;Azure)</title>
<path fill="#e5f5fd" stroke="#aeb6be" d="M848,-276.1C848,-276.1 1081,-276.1 1081,-276.1 1087,-276.1 1093,-282.1 1093,-288.1 1093,-288.1 1093,-467.95 1093,-467.95 1093,-473.95 1087,-479.95 1081,-479.95 1081,-479.95 848,-479.95 848,-479.95 842,-479.95 836,-473.95 836,-467.95 836,-467.95 836,-288.1 836,-288.1 836,-282.1 842,-276.1 848,-276.1"/>
<text xml:space="preserve" text-anchor="middle" x="904.75" y="-464.55" font-family="Sans-Serif" font-size="12.00" fill="#2d3436">External (non&#45;Azure)</text>
</g>
<!-- 14aa6bc2141d419997cfd977dcad091d -->
<g id="node1" class="node">
<title>14aa6bc2141d419997cfd977dcad091d</title>
<image xlink:href="C:\Users\USER\AppData\Local\Programs\Python\Python312\Lib\site-packages\resources/azure/general\mobile.png" width="100.8px" height="100.8px" preserveAspectRatio="xMinYMin meet" x="15.6" y="-1221.6"/>
<text xml:space="preserve" text-anchor="middle" x="66" y="-1105.5" font-family="Sans-Serif" font-size="12.00" fill="#2d3436">Mobile app</text>
<text xml:space="preserve" text-anchor="middle" x="66" y="-1091.25" font-family="Sans-Serif" font-size="12.00" fill="#2d3436">(iOS / Android)</text>
</g>
<!-- 413a548994ad49cf9800fb670d8250d0 -->
<g id="node4" class="node">
<title>413a548994ad49cf9800fb670d8250d0</title>
<image xlink:href="C:\Users\USER\AppData\Local\Programs\Python\Python312\Lib\site-packages\resources/azure/network\front-doors.png" width="100.8px" height="100.8px" preserveAspectRatio="xMinYMin meet" x="156.6" y="-953.5"/>
<text xml:space="preserve" text-anchor="middle" x="207" y="-837.4" font-family="Sans-Serif" font-size="12.00" fill="#2d3436">Front Door + WAF</text>
<text xml:space="preserve" text-anchor="middle" x="207" y="-823.15" font-family="Sans-Serif" font-size="12.00" fill="#2d3436">TLS · routing · OWASP</text>
</g>
<!-- 14aa6bc2141d419997cfd977dcad091d&#45;&gt;413a548994ad49cf9800fb670d8250d0 -->
<g id="edge1" class="edge">
<title>14aa6bc2141d419997cfd977dcad091d&#45;&gt;413a548994ad49cf9800fb670d8250d0</title>
<path fill="none" stroke="#5b6b7a" d="M109.26,-1088.55C124.83,-1059.18 142.48,-1025.86 158.47,-995.69"/>
<polygon fill="#5b6b7a" stroke="#5b6b7a" points="161.52,-997.41 163.11,-986.93 155.34,-994.13 161.52,-997.41"/>
<text xml:space="preserve" text-anchor="middle" x="161.35" y="-1033.05" font-family="Sans-Serif" font-size="13.00" fill="#2d3436">HTTPS</text>
</g>
<!-- cf3664422056462dafc1185cd17eda20 -->
<g id="node2" class="node">
<title>cf3664422056462dafc1185cd17eda20</title>
<image xlink:href="C:\Users\USER\AppData\Local\Programs\Python\Python312\Lib\site-packages\resources/azure/general\browser.png" width="100.8px" height="100.8px" preserveAspectRatio="xMinYMin meet" x="156.6" y="-1221.6"/>
<text xml:space="preserve" text-anchor="middle" x="207" y="-1105.65" font-family="Sans-Serif" font-size="12.00" fill="#2d3436">Web app / PWA</text>
</g>
<!-- cf3664422056462dafc1185cd17eda20&#45;&gt;413a548994ad49cf9800fb670d8250d0 -->
<g id="edge2" class="edge">
<title>cf3664422056462dafc1185cd17eda20&#45;&gt;413a548994ad49cf9800fb670d8250d0</title>
<path fill="none" stroke="#5b6b7a" d="M207,-1103.05C207,-1070.82 207,-1031.69 207,-996.68"/>
<polygon fill="#5b6b7a" stroke="#5b6b7a" points="210.5,-996.99 207,-986.99 203.5,-996.99 210.5,-996.99"/>
<text xml:space="preserve" text-anchor="middle" x="227.62" y="-1033.05" font-family="Sans-Serif" font-size="13.00" fill="#2d3436">HTTPS</text>
</g>
<!-- b31eb327ab2b47488b5c1aa7f78311c2 -->
<g id="node3" class="node">
<title>b31eb327ab2b47488b5c1aa7f78311c2</title>
<image xlink:href="C:\Users\USER\AppData\Local\Programs\Python\Python312\Lib\site-packages\resources/azure/general\usericon.png" width="100.8px" height="100.8px" preserveAspectRatio="xMinYMin meet" x="297.6" y="-1221.6"/>
<text xml:space="preserve" text-anchor="middle" x="348" y="-1105.5" font-family="Sans-Serif" font-size="12.00" fill="#2d3436">Students · Parents</text>
<text xml:space="preserve" text-anchor="middle" x="348" y="-1091.25" font-family="Sans-Serif" font-size="12.00" fill="#2d3436">Teachers · Admins</text>
</g>
<!-- b31eb327ab2b47488b5c1aa7f78311c2&#45;&gt;413a548994ad49cf9800fb670d8250d0 -->
<g id="edge3" class="edge">
<title>b31eb327ab2b47488b5c1aa7f78311c2&#45;&gt;413a548994ad49cf9800fb670d8250d0</title>
<path fill="none" stroke="#5b6b7a" d="M304.74,-1088.55C289.17,-1059.18 271.52,-1025.86 255.53,-995.69"/>
<polygon fill="#5b6b7a" stroke="#5b6b7a" points="258.66,-994.13 250.89,-986.93 252.48,-997.41 258.66,-994.13"/>
<text xml:space="preserve" text-anchor="middle" x="302.35" y="-1033.05" font-family="Sans-Serif" font-size="13.00" fill="#2d3436">HTTPS</text>
</g>
<!-- bb4a024e5a7446ae8db5ca4a30f1c4e5 -->
<g id="node5" class="node">
<title>bb4a024e5a7446ae8db5ca4a30f1c4e5</title>
<image xlink:href="C:\Users\USER\AppData\Local\Programs\Python\Python312\Lib\site-packages\resources/azure/identity\external-identities.png" width="100.8px" height="100.8px" preserveAspectRatio="xMinYMin meet" x="107.6" y="-417.3"/>
<text xml:space="preserve" text-anchor="middle" x="158" y="-301.2" font-family="Sans-Serif" font-size="12.00" fill="#2d3436">Entra External ID</text>
<text xml:space="preserve" text-anchor="middle" x="158" y="-286.95" font-family="Sans-Serif" font-size="12.00" fill="#2d3436">Sign&#45;in · MFA · OIDC/SAML</text>
</g>
<!-- 413a548994ad49cf9800fb670d8250d0&#45;&gt;bb4a024e5a7446ae8db5ca4a30f1c4e5 -->
<g id="edge4" class="edge">
<title>413a548994ad49cf9800fb670d8250d0&#45;&gt;bb4a024e5a7446ae8db5ca4a30f1c4e5</title>
<path fill="none" stroke="#5b6b7a" d="M164.51,-820.58C154.63,-797.72 145.54,-772.44 140.5,-748.05 120.56,-651.54 129.8,-538.43 140.98,-460.84"/>
<polygon fill="#5b6b7a" stroke="#5b6b7a" points="144.41,-461.56 142.42,-451.15 137.49,-460.53 144.41,-461.56"/>
<text xml:space="preserve" text-anchor="middle" x="196.75" y="-630.9" font-family="Sans-Serif" font-size="13.00" fill="#2d3436">federated sign&#45;in</text>
</g>
<!-- fe96943ba6234856bae682f029afeaaa -->
<g id="node6" class="node">
<title>fe96943ba6234856bae682f029afeaaa</title>
<image xlink:href="C:\Users\USER\AppData\Local\Programs\Python\Python312\Lib\site-packages\resources/azure/web\app-services.png" width="100.8px" height="100.8px" preserveAspectRatio="xMinYMin meet" x="302.6" y="-685.4"/>
<text xml:space="preserve" text-anchor="middle" x="353" y="-569.3" font-family="Sans-Serif" font-size="12.00" fill="#2d3436">App Service (P1v3)</text>
<text xml:space="preserve" text-anchor="middle" x="353" y="-555.05" font-family="Sans-Serif" font-size="12.00" fill="#2d3436">SSR + API + workers</text>
</g>
<!-- 413a548994ad49cf9800fb670d8250d0&#45;&gt;fe96943ba6234856bae682f029afeaaa -->
<g id="edge5" class="edge">
<title>413a548994ad49cf9800fb670d8250d0&#45;&gt;fe96943ba6234856bae682f029afeaaa</title>
<path fill="none" stroke="#5b6b7a" d="M251.8,-820.45C267.98,-790.95 286.36,-757.47 302.96,-727.2"/>
<polygon fill="#5b6b7a" stroke="#5b6b7a" points="305.82,-729.27 307.56,-718.82 299.68,-725.9 305.82,-729.27"/>
<text xml:space="preserve" text-anchor="middle" x="358.63" y="-764.95" font-family="Sans-Serif" font-size="13.00" fill="#2d3436">routes to home region</text>
</g>
<!-- fe96943ba6234856bae682f029afeaaa&#45;&gt;bb4a024e5a7446ae8db5ca4a30f1c4e5 -->
<g id="edge6" class="edge">
<title>fe96943ba6234856bae682f029afeaaa&#45;&gt;bb4a024e5a7446ae8db5ca4a30f1c4e5</title>
<path fill="none" stroke="#5b6b7a" stroke-dasharray="5,2" d="M302.72,-581.44C283.07,-559.82 260.94,-534.04 242.75,-509.2 231.2,-493.43 219.78,-476 209.24,-458.94"/>
<polygon fill="#5b6b7a" stroke="#5b6b7a" points="212.47,-457.51 204.27,-450.8 206.49,-461.15 212.47,-457.51"/>
<text xml:space="preserve" text-anchor="middle" x="284.38" y="-496.85" font-family="Sans-Serif" font-size="13.00" fill="#2d3436">OIDC / token</text>
</g>
<!-- 452b37c9907f43938c255ef26946fce1 -->
<g id="node7" class="node">
<title>452b37c9907f43938c255ef26946fce1</title>
<image xlink:href="C:\Users\USER\AppData\Local\Programs\Python\Python312\Lib\site-packages\resources/azure/web\signalr.png" width="100.8px" height="100.8px" preserveAspectRatio="xMinYMin meet" x="270.6" y="-417.3"/>
<text xml:space="preserve" text-anchor="middle" x="321" y="-301.2" font-family="Sans-Serif" font-size="12.00" fill="#2d3436">SignalR</text>
<text xml:space="preserve" text-anchor="middle" x="321" y="-286.95" font-family="Sans-Serif" font-size="12.00" fill="#2d3436">real&#45;time messaging</text>
</g>
<!-- fe96943ba6234856bae682f029afeaaa&#45;&gt;452b37c9907f43938c255ef26946fce1 -->
<g id="edge7" class="edge">
<title>fe96943ba6234856bae682f029afeaaa&#45;&gt;452b37c9907f43938c255ef26946fce1</title>
<path fill="none" stroke="#1f7a3d" d="M343.18,-552.35C339.7,-523.36 335.75,-490.52 332.16,-460.67"/>
<polygon fill="#1f7a3d" stroke="#1f7a3d" points="335.65,-460.41 330.98,-450.9 328.7,-461.24 335.65,-460.41"/>
<text xml:space="preserve" text-anchor="middle" x="374.33" y="-496.85" font-family="Sans-Serif" font-size="13.00" fill="#2d3436">WebSocket</text>
</g>
<!-- fadfd3cf55eb4c6c935e933fe1f11558 -->
<g id="node8" class="node">
<title>fadfd3cf55eb4c6c935e933fe1f11558</title>
<image xlink:href="C:\Users\USER\AppData\Local\Programs\Python\Python312\Lib\site-packages\resources/azure/integration\api-management.png" width="100.8px" height="100.8px" preserveAspectRatio="xMinYMin meet" x="433.6" y="-149.2"/>
<text xml:space="preserve" text-anchor="middle" x="484" y="-33.1" font-family="Sans-Serif" font-size="12.00" fill="#2d3436">API Management</text>
<text xml:space="preserve" text-anchor="middle" x="484" y="-18.85" font-family="Sans-Serif" font-size="12.00" fill="#2d3436">public API · webhooks · rate&#45;limit</text>
</g>
<!-- fe96943ba6234856bae682f029afeaaa&#45;&gt;fadfd3cf55eb4c6c935e933fe1f11558 -->
<g id="edge12" class="edge">
<title>fe96943ba6234856bae682f029afeaaa&#45;&gt;fadfd3cf55eb4c6c935e933fe1f11558</title>
<path fill="none" stroke="#5b6b7a" d="M402.7,-552.24C409.7,-538.25 416.14,-523.58 421,-509.2 456.48,-404.17 472.08,-277.17 478.87,-192.75"/>
<polygon fill="#5b6b7a" stroke="#5b6b7a" points="482.35,-193.13 479.63,-182.89 475.37,-192.59 482.35,-193.13"/>
<text xml:space="preserve" text-anchor="middle" x="536.5" y="-362.8" font-family="Sans-Serif" font-size="13.00" fill="#2d3436">exposes / webhooks</text>
</g>
<!-- 7f042c1f28e54acbac5e6ec2f0580132 -->
<g id="node9" class="node">
<title>7f042c1f28e54acbac5e6ec2f0580132</title>
<image xlink:href="C:\Users\USER\AppData\Local\Programs\Python\Python312\Lib\site-packages\resources/azure/integration\service-bus.png" width="100.8px" height="100.8px" preserveAspectRatio="xMinYMin meet" x="715.6" y="-149.2"/>
<text xml:space="preserve" text-anchor="middle" x="766" y="-33.1" font-family="Sans-Serif" font-size="12.00" fill="#2d3436">Service Bus</text>
<text xml:space="preserve" text-anchor="middle" x="766" y="-18.85" font-family="Sans-Serif" font-size="12.00" fill="#2d3436">async jobs · migration</text>
</g>
<!-- fe96943ba6234856bae682f029afeaaa&#45;&gt;7f042c1f28e54acbac5e6ec2f0580132 -->
<g id="edge13" class="edge">
<title>fe96943ba6234856bae682f029afeaaa&#45;&gt;7f042c1f28e54acbac5e6ec2f0580132</title>
<path fill="none" stroke="#5b6b7a" d="M403.25,-625.53C475.33,-610.43 605.87,-571.38 665,-479.95 721.67,-392.33 746.67,-273.86 757.62,-192.59"/>
<polygon fill="#5b6b7a" stroke="#5b6b7a" points="761.07,-193.24 758.88,-182.88 754.12,-192.34 761.07,-193.24"/>
<text xml:space="preserve" text-anchor="middle" x="771.66" y="-362.8" font-family="Sans-Serif" font-size="13.00" fill="#2d3436">enqueue</text>
</g>
<!-- a013a9423a18451abca0549878c1b548 -->
<g id="node10" class="node">
<title>a013a9423a18451abca0549878c1b548</title>
<image xlink:href="C:\Users\USER\AppData\Local\Programs\Python\Python312\Lib\site-packages\resources/azure/integration\app-configuration.png" width="100.8px" height="100.8px" preserveAspectRatio="xMinYMin meet" x="574.6" y="-149.2"/>
<text xml:space="preserve" text-anchor="middle" x="625" y="-33.1" font-family="Sans-Serif" font-size="12.00" fill="#2d3436">App Configuration</text>
<text xml:space="preserve" text-anchor="middle" x="625" y="-18.85" font-family="Sans-Serif" font-size="12.00" fill="#2d3436">feature / entitlement flags</text>
</g>
<!-- fe96943ba6234856bae682f029afeaaa&#45;&gt;a013a9423a18451abca0549878c1b548 -->
<g id="edge14" class="edge">
<title>fe96943ba6234856bae682f029afeaaa&#45;&gt;a013a9423a18451abca0549878c1b548</title>
<path fill="none" stroke="#5b6b7a" stroke-dasharray="5,2" d="M403.24,-620.39C464.91,-600.72 566.96,-557.87 613,-479.95 664.42,-392.94 658.64,-274.09 645.68,-192.58"/>
<polygon fill="#5b6b7a" stroke="#5b6b7a" points="649.15,-192.11 644.06,-182.82 642.25,-193.26 649.15,-192.11"/>
</g>
<!-- 553acc79b3b4492c81ec4e6228babf51 -->
<g id="node11" class="node">
<title>553acc79b3b4492c81ec4e6228babf51</title>
<image xlink:href="C:\Users\USER\AppData\Local\Programs\Python\Python312\Lib\site-packages\resources/azure/database\sql-databases.png" width="100.8px" height="100.8px" preserveAspectRatio="xMinYMin meet" x="1125.6" y="-417.3"/>
<text xml:space="preserve" text-anchor="middle" x="1176" y="-301.2" font-family="Sans-Serif" font-size="12.00" fill="#2d3436">Azure SQL (S2)</text>
<text xml:space="preserve" text-anchor="middle" x="1176" y="-286.95" font-family="Sans-Serif" font-size="12.00" fill="#2d3436">tenant data · Row&#45;Level Security</text>
</g>
<!-- fe96943ba6234856bae682f029afeaaa&#45;&gt;553acc79b3b4492c81ec4e6228babf51 -->
<g id="edge8" class="edge">
<title>fe96943ba6234856bae682f029afeaaa&#45;&gt;553acc79b3b4492c81ec4e6228babf51</title>
<path fill="none" stroke="#5b6b7a" d="M403.37,-628.74C552.24,-612.42 987.03,-558.95 1103,-479.95 1111.83,-473.94 1119.84,-466.46 1127.05,-458.25"/>
<polygon fill="#5b6b7a" stroke="#5b6b7a" points="1129.67,-460.58 1133.31,-450.63 1124.26,-456.14 1129.67,-460.58"/>
<text xml:space="preserve" text-anchor="middle" x="1105.11" y="-496.85" font-family="Sans-Serif" font-size="13.00" fill="#2d3436">SQL · RLS</text>
</g>
<!-- 6977b09b12f4485e896a920f58b9541d -->
<g id="node12" class="node">
<title>6977b09b12f4485e896a920f58b9541d</title>
<image xlink:href="C:\Users\USER\AppData\Local\Programs\Python\Python312\Lib\site-packages\resources/azure/storage\blob-storage.png" width="100.8px" height="100.8px" preserveAspectRatio="xMinYMin meet" x="1266.6" y="-417.3"/>
<text xml:space="preserve" text-anchor="middle" x="1317" y="-301.2" font-family="Sans-Serif" font-size="12.00" fill="#2d3436">Blob Storage</text>
<text xml:space="preserve" text-anchor="middle" x="1317" y="-286.95" font-family="Sans-Serif" font-size="12.00" fill="#2d3436">files · immutable audit log</text>
</g>
<!-- fe96943ba6234856bae682f029afeaaa&#45;&gt;6977b09b12f4485e896a920f58b9541d -->
<g id="edge9" class="edge">
<title>fe96943ba6234856bae682f029afeaaa&#45;&gt;6977b09b12f4485e896a920f58b9541d</title>
<path fill="none" stroke="#5b6b7a" d="M403.13,-628.44C529.15,-613.97 868.96,-571.84 1147,-509.2 1191.76,-499.12 1209.38,-507.59 1246,-479.95 1254.17,-473.79 1261.64,-466.39 1268.41,-458.36"/>
<polygon fill="#5b6b7a" stroke="#5b6b7a" points="1271.07,-460.64 1274.54,-450.63 1265.58,-456.29 1271.07,-460.64"/>
<text xml:space="preserve" text-anchor="middle" x="1287.85" y="-496.85" font-family="Sans-Serif" font-size="13.00" fill="#2d3436">blobs (scoped SAS)</text>
</g>
<!-- 8113ec8bac924a77a4033507137ff773 -->
<g id="node13" class="node">
<title>8113ec8bac924a77a4033507137ff773</title>
<image xlink:href="C:\Users\USER\AppData\Local\Programs\Python\Python312\Lib\site-packages\resources/azure/database\cache-for-redis.png" width="100.8px" height="100.8px" preserveAspectRatio="xMinYMin meet" x="1407.6" y="-417.3"/>
<text xml:space="preserve" text-anchor="middle" x="1458" y="-301.2" font-family="Sans-Serif" font-size="12.00" fill="#2d3436">Redis</text>
<text xml:space="preserve" text-anchor="middle" x="1458" y="-286.95" font-family="Sans-Serif" font-size="12.00" fill="#2d3436">sessions · rate&#45;limit</text>
</g>
<!-- fe96943ba6234856bae682f029afeaaa&#45;&gt;8113ec8bac924a77a4033507137ff773 -->
<g id="edge10" class="edge">
<title>fe96943ba6234856bae682f029afeaaa&#45;&gt;8113ec8bac924a77a4033507137ff773</title>
<path fill="none" stroke="#5b6b7a" d="M403.13,-632.55C582.82,-626.63 1192.93,-600.1 1362,-509.2 1383.42,-497.68 1400.97,-479.04 1414.93,-459.03"/>
<polygon fill="#5b6b7a" stroke="#5b6b7a" points="1417.84,-460.96 1420.46,-450.7 1412.01,-457.09 1417.84,-460.96"/>
<text xml:space="preserve" text-anchor="middle" x="1404.33" y="-496.85" font-family="Sans-Serif" font-size="13.00" fill="#2d3436">cache</text>
</g>
<!-- d378675eccf440faa1cf6318c3fdc4b7 -->
<g id="node14" class="node">
<title>d378675eccf440faa1cf6318c3fdc4b7</title>
<image xlink:href="C:\Users\USER\AppData\Local\Programs\Python\Python312\Lib\site-packages\resources/azure/security\key-vaults.png" width="100.8px" height="100.8px" preserveAspectRatio="xMinYMin meet" x="1548.6" y="-417.3"/>
<text xml:space="preserve" text-anchor="middle" x="1599" y="-301.2" font-family="Sans-Serif" font-size="12.00" fill="#2d3436">Key Vault</text>
<text xml:space="preserve" text-anchor="middle" x="1599" y="-286.95" font-family="Sans-Serif" font-size="12.00" fill="#2d3436">secrets · per&#45;tenant keys</text>
</g>
<!-- fe96943ba6234856bae682f029afeaaa&#45;&gt;d378675eccf440faa1cf6318c3fdc4b7 -->
<g id="edge11" class="edge">
<title>fe96943ba6234856bae682f029afeaaa&#45;&gt;d378675eccf440faa1cf6318c3fdc4b7</title>
<path fill="none" stroke="#5b6b7a" d="M403.37,-631.53C558.53,-623.22 1042.38,-591.98 1434,-509.2 1476.81,-500.15 1493.27,-506.56 1528,-479.95 1536.05,-473.78 1543.44,-466.41 1550.15,-458.44"/>
<polygon fill="#5b6b7a" stroke="#5b6b7a" points="1552.75,-460.79 1556.22,-450.78 1547.27,-456.44 1552.75,-460.79"/>
<text xml:space="preserve" text-anchor="middle" x="1552.63" y="-496.85" font-family="Sans-Serif" font-size="13.00" fill="#2d3436">secrets / keys</text>
</g>
<!-- ea4bd7a144154749bafcbda9bfb9fcfe -->
<g id="node15" class="node">
<title>ea4bd7a144154749bafcbda9bfb9fcfe</title>
<image xlink:href="C:\Users\USER\AppData\Local\Programs\Python\Python312\Lib\site-packages\resources/azure/ml\azure-open-ai.png" width="100.8px" height="100.8px" preserveAspectRatio="xMinYMin meet" x="1689.6" y="-417.3"/>
<text xml:space="preserve" text-anchor="middle" x="1740" y="-301.2" font-family="Sans-Serif" font-size="12.00" fill="#2d3436">Azure OpenAI</text>
<text xml:space="preserve" text-anchor="middle" x="1740" y="-286.95" font-family="Sans-Serif" font-size="12.00" fill="#2d3436">insights · tutor</text>
</g>
<!-- fe96943ba6234856bae682f029afeaaa&#45;&gt;ea4bd7a144154749bafcbda9bfb9fcfe -->
<g id="edge15" class="edge">
<title>fe96943ba6234856bae682f029afeaaa&#45;&gt;ea4bd7a144154749bafcbda9bfb9fcfe</title>
<path fill="none" stroke="#5b6b7a" d="M403.23,-631.42C607.38,-620.57 1375.19,-576.07 1608,-509.2 1636.13,-501.12 1645.13,-499.4 1667,-479.95 1674.33,-473.44 1681.22,-466.02 1687.63,-458.18"/>
<polygon fill="#5b6b7a" stroke="#5b6b7a" points="1690.06,-460.76 1693.46,-450.72 1684.54,-456.45 1690.06,-460.76"/>
<text xml:space="preserve" text-anchor="middle" x="1712.55" y="-496.85" font-family="Sans-Serif" font-size="13.00" fill="#2d3436">in&#45;region inference</text>
</g>
<!-- de32958e29d04f3bbdab21c14f599e35 -->
<g id="node17" class="node">
<title>de32958e29d04f3bbdab21c14f599e35</title>
<image xlink:href="C:\Users\USER\AppData\Local\Programs\Python\Python312\Lib\site-packages\resources/azure/mobile\notification-hubs.png" width="100.8px" height="100.8px" preserveAspectRatio="xMinYMin meet" x="1830.6" y="-417.3"/>
<text xml:space="preserve" text-anchor="middle" x="1881" y="-301.2" font-family="Sans-Serif" font-size="12.00" fill="#2d3436">Notifications</text>
<text xml:space="preserve" text-anchor="middle" x="1881" y="-286.95" font-family="Sans-Serif" font-size="12.00" fill="#2d3436">push · email · SMS · OTP</text>
</g>
<!-- fe96943ba6234856bae682f029afeaaa&#45;&gt;de32958e29d04f3bbdab21c14f599e35 -->
<g id="edge17" class="edge">
<title>fe96943ba6234856bae682f029afeaaa&#45;&gt;de32958e29d04f3bbdab21c14f599e35</title>
<path fill="none" stroke="#5b6b7a" d="M403.07,-631.99C642.15,-622.08 1661.11,-576.19 1785,-509.2 1806.4,-497.63 1823.93,-478.97 1837.89,-458.96"/>
<polygon fill="#5b6b7a" stroke="#5b6b7a" points="1840.81,-460.89 1843.42,-450.63 1834.97,-457.02 1840.81,-460.89"/>
<text xml:space="preserve" text-anchor="middle" x="1846.06" y="-496.85" font-family="Sans-Serif" font-size="13.00" fill="#2d3436">alerts · OTP</text>
</g>
<!-- fdaee75b2d9c4733b344c1bcebf398bc -->
<g id="node18" class="node">
<title>fdaee75b2d9c4733b344c1bcebf398bc</title>
<image xlink:href="C:\Users\USER\AppData\Local\Programs\Python\Python312\Lib\site-packages\resources/azure/security\microsoft-defender-for-cloud.png" width="100.8px" height="100.8px" preserveAspectRatio="xMinYMin meet" x="1971.6" y="-417.3"/>
<text xml:space="preserve" text-anchor="middle" x="2022" y="-301.2" font-family="Sans-Serif" font-size="12.00" fill="#2d3436">Defender for Cloud</text>
<text xml:space="preserve" text-anchor="middle" x="2022" y="-286.95" font-family="Sans-Serif" font-size="12.00" fill="#2d3436">threat detection</text>
</g>
<!-- fe96943ba6234856bae682f029afeaaa&#45;&gt;fdaee75b2d9c4733b344c1bcebf398bc -->
<g id="edge21" class="edge">
<title>fe96943ba6234856bae682f029afeaaa&#45;&gt;fdaee75b2d9c4733b344c1bcebf398bc</title>
<path fill="none" stroke="#9aa7b4" stroke-dasharray="1,5" d="M403.39,-632.71C635.85,-626.36 1605.66,-595.1 1895,-509.2 1921.17,-501.43 1928.93,-498.45 1949,-479.95 1956.14,-473.36 1962.9,-465.93 1969.21,-458.11"/>
<polygon fill="#9aa7b4" stroke="#9aa7b4" points="1971.6,-460.74 1974.96,-450.69 1966.07,-456.46 1971.6,-460.74"/>
</g>
<!-- faefb7e47232482e8723ca8524262af7 -->
<g id="node19" class="node">
<title>faefb7e47232482e8723ca8524262af7</title>
<image xlink:href="C:\Users\USER\AppData\Local\Programs\Python\Python312\Lib\site-packages\resources/azure/devops\application-insights.png" width="100.8px" height="100.8px" preserveAspectRatio="xMinYMin meet" x="2112.6" y="-417.3"/>
<text xml:space="preserve" text-anchor="middle" x="2163" y="-301.2" font-family="Sans-Serif" font-size="12.00" fill="#2d3436">App Insights</text>
<text xml:space="preserve" text-anchor="middle" x="2163" y="-286.95" font-family="Sans-Serif" font-size="12.00" fill="#2d3436">tracing</text>
</g>
<!-- fe96943ba6234856bae682f029afeaaa&#45;&gt;faefb7e47232482e8723ca8524262af7 -->
<g id="edge20" class="edge">
<title>fe96943ba6234856bae682f029afeaaa&#45;&gt;faefb7e47232482e8723ca8524262af7</title>
<path fill="none" stroke="#9aa7b4" stroke-dasharray="1,5" d="M403.08,-632.23C600.18,-624.81 1341.16,-592.65 1945,-509.2 2010.99,-500.08 2037.07,-517.63 2092,-479.95 2100.74,-473.96 2108.63,-466.5 2115.7,-458.29"/>
<polygon fill="#9aa7b4" stroke="#9aa7b4" points="2118.28,-460.67 2121.81,-450.68 2112.82,-456.28 2118.28,-460.67"/>
</g>
<!-- ec0bcbd4205b484284897246be974ca4 -->
<g id="node21" class="node">
<title>ec0bcbd4205b484284897246be974ca4</title>
<image xlink:href="C:\Users\USER\AppData\Local\Programs\Python\Python312\Lib\site-packages\resources/generic/blank\blank.png" width="100.8px" height="100.8px" preserveAspectRatio="xMinYMin meet" x="843.6" y="-417.3"/>
<text xml:space="preserve" text-anchor="middle" x="894" y="-301.2" font-family="Sans-Serif" font-size="12.00" fill="#2d3436">Payment gateway</text>
<text xml:space="preserve" text-anchor="middle" x="894" y="-286.95" font-family="Sans-Serif" font-size="12.00" fill="#2d3436">(Stripe / PayHere)</text>
</g>
<!-- fe96943ba6234856bae682f029afeaaa&#45;&gt;ec0bcbd4205b484284897246be974ca4 -->
<g id="edge19" class="edge">
<title>fe96943ba6234856bae682f029afeaaa&#45;&gt;ec0bcbd4205b484284897246be974ca4</title>
<path fill="none" stroke="#5b6b7a" d="M403.33,-625.64C485.2,-610.67 650.76,-574.54 777,-509.2 800.26,-497.16 820.66,-478.27 837.62,-458.17"/>
<polygon fill="#5b6b7a" stroke="#5b6b7a" points="840.13,-460.64 843.73,-450.68 834.7,-456.22 840.13,-460.64"/>
<text xml:space="preserve" text-anchor="middle" x="873.84" y="-496.85" font-family="Sans-Serif" font-size="13.00" fill="#2d3436">payments (tokenised)</text>
</g>
<!-- 8a0304fd6891426ab7b562f1d633287b -->
<g id="node16" class="node">
<title>8a0304fd6891426ab7b562f1d633287b</title>
<image xlink:href="C:\Users\USER\AppData\Local\Programs\Python\Python312\Lib\site-packages\resources/azure/web\cognitive-search.png" width="100.8px" height="100.8px" preserveAspectRatio="xMinYMin meet" x="1689.6" y="-149.2"/>
<text xml:space="preserve" text-anchor="middle" x="1740" y="-33.1" font-family="Sans-Serif" font-size="12.00" fill="#2d3436">AI Search</text>
<text xml:space="preserve" text-anchor="middle" x="1740" y="-18.85" font-family="Sans-Serif" font-size="12.00" fill="#2d3436">RAG over tenant content</text>
</g>
<!-- ea4bd7a144154749bafcbda9bfb9fcfe&#45;&gt;8a0304fd6891426ab7b562f1d633287b -->
<g id="edge16" class="edge">
<title>ea4bd7a144154749bafcbda9bfb9fcfe&#45;&gt;8a0304fd6891426ab7b562f1d633287b</title>
<path fill="none" stroke="#5b6b7a" stroke-dasharray="5,2" d="M1740,-284.25C1740,-255.26 1740,-222.42 1740,-192.57"/>
<polygon fill="#5b6b7a" stroke="#5b6b7a" points="1743.5,-192.81 1740,-182.81 1736.5,-192.81 1743.5,-192.81"/>
</g>
<!-- 7024f19453134cfb98da48fc43aa29cc -->
<g id="node20" class="node">
<title>7024f19453134cfb98da48fc43aa29cc</title>
<image xlink:href="C:\Users\USER\AppData\Local\Programs\Python\Python312\Lib\site-packages\resources/azure/analytics\log-analytics-workspaces.png" width="100.8px" height="100.8px" preserveAspectRatio="xMinYMin meet" x="2112.6" y="-149.2"/>
<text xml:space="preserve" text-anchor="middle" x="2163" y="-33.1" font-family="Sans-Serif" font-size="12.00" fill="#2d3436">Log Analytics</text>
<text xml:space="preserve" text-anchor="middle" x="2163" y="-18.85" font-family="Sans-Serif" font-size="12.00" fill="#2d3436">logs · audit retention</text>
</g>
<!-- faefb7e47232482e8723ca8524262af7&#45;&gt;7024f19453134cfb98da48fc43aa29cc -->
<g id="edge22" class="edge">
<title>faefb7e47232482e8723ca8524262af7&#45;&gt;7024f19453134cfb98da48fc43aa29cc</title>
<path fill="none" stroke="#9aa7b4" stroke-dasharray="1,5" d="M2163,-284.25C2163,-255.26 2163,-222.42 2163,-192.57"/>
<polygon fill="#9aa7b4" stroke="#9aa7b4" points="2166.5,-192.81 2163,-182.81 2159.5,-192.81 2166.5,-192.81"/>
</g>
<!-- 5d02d02aaa204605b0cd4506eca92be5 -->
<g id="node22" class="node">
<title>5d02d02aaa204605b0cd4506eca92be5</title>
<image xlink:href="C:\Users\USER\AppData\Local\Programs\Python\Python312\Lib\site-packages\resources/generic/blank\blank.png" width="100.8px" height="100.8px" preserveAspectRatio="xMinYMin meet" x="984.6" y="-417.3"/>
<text xml:space="preserve" text-anchor="middle" x="1035" y="-301.2" font-family="Sans-Serif" font-size="12.00" fill="#2d3436">Legacy LMS</text>
<text xml:space="preserve" text-anchor="middle" x="1035" y="-286.95" font-family="Sans-Serif" font-size="12.00" fill="#2d3436">(Moodle) — migration</text>
</g>
<!-- 5d02d02aaa204605b0cd4506eca92be5&#45;&gt;7f042c1f28e54acbac5e6ec2f0580132 -->
<g id="edge18" class="edge">
<title>5d02d02aaa204605b0cd4506eca92be5&#45;&gt;7f042c1f28e54acbac5e6ec2f0580132</title>
<path fill="none" stroke="#5b6b7a" d="M984.71,-299.56C977.96,-291.47 970.95,-283.47 964,-276.1 920.16,-229.62 865.65,-181.71 824.93,-147.59"/>
<polygon fill="#5b6b7a" stroke="#5b6b7a" points="827.28,-144.99 817.36,-141.27 822.79,-150.37 827.28,-144.99"/>
<text xml:space="preserve" text-anchor="middle" x="966.96" y="-228.75" font-family="Sans-Serif" font-size="13.00" fill="#2d3436">import / API</text>
</g>
</g>
</svg>
