<?xml version="1.0" encoding="UTF-8" standalone="no"?>
<!DOCTYPE svg PUBLIC "-//W3C//DTD SVG 1.1//EN"
 "http://www.w3.org/Graphics/SVG/1.1/DTD/svg11.dtd">
<!-- Generated by graphviz version 15.0.0 (20260523.1842)
 -->
<!-- Title: One Edu &#160;— &#160;Multi&#45;Region · Multi&#45;Tenant Architecture &#160;(expansion&#45;ready) Pages: 1 -->
<svg width="3413pt" height="1249pt"
 viewBox="0.00 0.00 3413.00 1249.00" xmlns="http://www.w3.org/2000/svg" xmlns:xlink="http://www.w3.org/1999/xlink">
<g id="graph0" class="graph" transform="scale(1 1) rotate(0) translate(57.6 1191.5)">
<title>One Edu &#160;— &#160;Multi&#45;Region · Multi&#45;Tenant Architecture &#160;(expansion&#45;ready)</title>
<polygon fill="white" stroke="none" points="-57.6,57.6 -57.6,-1191.5 3355.6,-1191.5 3355.6,57.6 -57.6,57.6"/>
<text xml:space="preserve" text-anchor="middle" x="1649" y="-1107.1" font-family="Sans-Serif" font-size="24.00" fill="#2d3436">One Edu &#160;— &#160;Multi&#45;Region · Multi&#45;Tenant Architecture &#160;(expansion&#45;ready)</text>
<g id="clust1" class="cluster">
<title>cluster_Tenants&#39; users — global</title>
<path fill="#e5f5fd" stroke="#aeb6be" d="M20,-298.5C20,-298.5 386,-298.5 386,-298.5 392,-298.5 398,-304.5 398,-310.5 398,-310.5 398,-512.6 398,-512.6 398,-518.6 392,-524.6 386,-524.6 386,-524.6 20,-524.6 20,-524.6 14,-524.6 8,-518.6 8,-512.6 8,-512.6 8,-310.5 8,-310.5 8,-304.5 14,-298.5 20,-298.5"/>
<text xml:space="preserve" text-anchor="middle" x="86.12" y="-509.2" font-family="Sans-Serif" font-size="12.00" fill="#2d3436">Tenants&#39; users — global</text>
</g>
<g id="clust2" class="cluster">
<title>cluster_Global Control Plane &#160;— &#160;non&#45;PII only &#160;(GEO&#45;007 / 011)</title>
<path fill="#e5f5fd" stroke="#aeb6be" d="M1745,-284.1C1745,-284.1 2111,-284.1 2111,-284.1 2117,-284.1 2123,-290.1 2123,-296.1 2123,-296.1 2123,-527 2123,-527 2123,-533 2117,-539 2111,-539 2111,-539 1745,-539 1745,-539 1739,-539 1733,-533 1733,-527 1733,-527 1733,-296.1 1733,-296.1 1733,-290.1 1739,-284.1 1745,-284.1"/>
<text xml:space="preserve" text-anchor="middle" x="1901.88" y="-523.6" font-family="Sans-Serif" font-size="12.00" fill="#2d3436">Global Control Plane &#160;— &#160;non&#45;PII only &#160;(GEO&#45;007 / 011)</text>
</g>
<g id="clust3" class="cluster">
<title>cluster_GEO&#45;UK &#160;&#160;· &#160;&#160;UK South (primary) + UK West (DR) &#160;&#160;· &#160;&#160;PII stays in region</title>
<path fill="#e5f5fd" stroke="#aeb6be" d="M604,-8C604,-8 1278,-8 1278,-8 1284,-8 1290,-14 1290,-20 1290,-20 1290,-1077.4 1290,-1077.4 1290,-1083.4 1284,-1089.4 1278,-1089.4 1278,-1089.4 604,-1089.4 604,-1089.4 598,-1089.4 592,-1083.4 592,-1077.4 592,-1077.4 592,-20 592,-20 592,-14 598,-8 604,-8"/>
<text xml:space="preserve" text-anchor="middle" x="808.12" y="-1074" font-family="Sans-Serif" font-size="12.00" fill="#2d3436">GEO&#45;UK &#160;&#160;· &#160;&#160;UK South (primary) + UK West (DR) &#160;&#160;· &#160;&#160;PII stays in region</text>
</g>
<g id="clust4" class="cluster">
<title>cluster_Tenant&#45;isolated data &#160;· &#160;RLS · per&#45;tenant keys</title>
<path fill="#ebf3e7" stroke="#aeb6be" d="M738,-298.5C738,-298.5 1104,-298.5 1104,-298.5 1110,-298.5 1116,-304.5 1116,-310.5 1116,-310.5 1116,-512.6 1116,-512.6 1116,-518.6 1110,-524.6 1104,-524.6 1104,-524.6 738,-524.6 738,-524.6 732,-524.6 726,-518.6 726,-512.6 726,-512.6 726,-310.5 726,-310.5 726,-304.5 732,-298.5 738,-298.5"/>
<text xml:space="preserve" text-anchor="middle" x="867.88" y="-509.2" font-family="Sans-Serif" font-size="12.00" fill="#2d3436">Tenant&#45;isolated data &#160;· &#160;RLS · per&#45;tenant keys</text>
</g>
<g id="clust5" class="cluster">
<title>cluster_GEO&#45;EU &#160;&#160;· &#160;&#160;West Europe + North Europe (DR) &#160;&#160;· &#160;&#160;PII stays in region</title>
<path fill="#e5f5fd" stroke="#aeb6be" d="M2219,-8C2219,-8 2730,-8 2730,-8 2736,-8 2742,-14 2742,-20 2742,-20 2742,-816.6 2742,-816.6 2742,-822.6 2736,-828.6 2730,-828.6 2730,-828.6 2219,-828.6 2219,-828.6 2213,-828.6 2207,-822.6 2207,-816.6 2207,-816.6 2207,-20 2207,-20 2207,-14 2213,-8 2219,-8"/>
<text xml:space="preserve" text-anchor="middle" x="2418.25" y="-813.2" font-family="Sans-Serif" font-size="12.00" fill="#2d3436">GEO&#45;EU &#160;&#160;· &#160;&#160;West Europe + North Europe (DR) &#160;&#160;· &#160;&#160;PII stays in region</text>
</g>
<g id="clust6" class="cluster">
<title>cluster_Tenant&#45;isolated data &#160;· &#160;RLS · per&#45;tenant keys</title>
<path fill="#ebf3e7" stroke="#aeb6be" d="M2227,-298.5C2227,-298.5 2593,-298.5 2593,-298.5 2599,-298.5 2605,-304.5 2605,-310.5 2605,-310.5 2605,-512.6 2605,-512.6 2605,-518.6 2599,-524.6 2593,-524.6 2593,-524.6 2227,-524.6 2227,-524.6 2221,-524.6 2215,-518.6 2215,-512.6 2215,-512.6 2215,-310.5 2215,-310.5 2215,-304.5 2221,-298.5 2227,-298.5"/>
<text xml:space="preserve" text-anchor="middle" x="2356.88" y="-509.2" font-family="Sans-Serif" font-size="12.00" fill="#2d3436">Tenant&#45;isolated data &#160;· &#160;RLS · per&#45;tenant keys</text>
</g>
<g id="clust7" class="cluster">
<title>cluster_GEO&#45;APAC &#160;&#160;· &#160;&#160;Central + South India (DR) &#160;&#160;· &#160;&#160;PII stays in region</title>
<path fill="#e5f5fd" stroke="#aeb6be" d="M2767,-8C2767,-8 3278,-8 3278,-8 3284,-8 3290,-14 3290,-20 3290,-20 3290,-816.6 3290,-816.6 3290,-822.6 3284,-828.6 3278,-828.6 3278,-828.6 2767,-828.6 2767,-828.6 2761,-828.6 2755,-822.6 2755,-816.6 2755,-816.6 2755,-20 2755,-20 2755,-14 2761,-8 2767,-8"/>
<text xml:space="preserve" text-anchor="middle" x="2951.62" y="-813.2" font-family="Sans-Serif" font-size="12.00" fill="#2d3436">GEO&#45;APAC &#160;&#160;· &#160;&#160;Central + South India (DR) &#160;&#160;· &#160;&#160;PII stays in region</text>
</g>
<g id="clust8" class="cluster">
<title>cluster_Tenant&#45;isolated data &#160;· &#160;RLS · per&#45;tenant keys</title>
<path fill="#ebf3e7" stroke="#aeb6be" d="M2775,-298.5C2775,-298.5 3141,-298.5 3141,-298.5 3147,-298.5 3153,-304.5 3153,-310.5 3153,-310.5 3153,-512.6 3153,-512.6 3153,-518.6 3147,-524.6 3141,-524.6 3141,-524.6 2775,-524.6 2775,-524.6 2769,-524.6 2763,-518.6 2763,-512.6 2763,-512.6 2763,-310.5 2763,-310.5 2763,-304.5 2769,-298.5 2775,-298.5"/>
<text xml:space="preserve" text-anchor="middle" x="2904.88" y="-509.2" font-family="Sans-Serif" font-size="12.00" fill="#2d3436">Tenant&#45;isolated data &#160;· &#160;RLS · per&#45;tenant keys</text>
</g>
<!-- 9de883feedc743d5ae627f9d3086be81 -->
<g id="node1" class="node">
<title>9de883feedc743d5ae627f9d3086be81</title>
<image xlink:href="C:\Users\USER\AppData\Local\Programs\Python\Python312\Lib\site-packages\resources/azure/general\mobile.png" width="100.8px" height="100.8px" preserveAspectRatio="xMinYMin meet" x="289.6" y="-439.7"/>
<text xml:space="preserve" text-anchor="middle" x="340" y="-323.6" font-family="Sans-Serif" font-size="12.00" fill="#2d3436">Mobile app</text>
<text xml:space="preserve" text-anchor="middle" x="340" y="-309.35" font-family="Sans-Serif" font-size="12.00" fill="#2d3436">(iOS / Android)</text>
</g>
<!-- 0773737cf2a14ea6940ee84af6b9b209 -->
<g id="node4" class="node">
<title>0773737cf2a14ea6940ee84af6b9b209</title>
<image xlink:href="C:\Users\USER\AppData\Local\Programs\Python\Python312\Lib\site-packages\resources/azure/network\front-doors.png" width="100.8px" height="100.8px" preserveAspectRatio="xMinYMin meet" x="483.6" y="-743.7"/>
<text xml:space="preserve" text-anchor="middle" x="534" y="-627.6" font-family="Sans-Serif" font-size="12.00" fill="#2d3436">Azure Front Door &#160;(global)</text>
<text xml:space="preserve" text-anchor="middle" x="534" y="-613.35" font-family="Sans-Serif" font-size="12.00" fill="#2d3436">WAF · routes each tenant to its home region</text>
</g>
<!-- 9de883feedc743d5ae627f9d3086be81&#45;&gt;0773737cf2a14ea6940ee84af6b9b209 -->
<g id="edge1" class="edge">
<title>9de883feedc743d5ae627f9d3086be81&#45;&gt;0773737cf2a14ea6940ee84af6b9b209</title>
<path fill="none" stroke="#5b6b7a" d="M316.25,-471.82C305.75,-496.17 291.09,-521.11 271,-539 262.52,-546.55 253.4,-537.8 246.75,-547 242.45,-552.94 242.76,-557.34 246.75,-563.5 296.56,-640.42 404.34,-671.83 472.79,-684.35"/>
<polygon fill="#5b6b7a" stroke="#5b6b7a" points="471.9,-687.75 482.35,-686.01 473.1,-680.85 471.9,-687.75"/>
<text xml:space="preserve" text-anchor="middle" x="267.38" y="-551.15" font-family="Sans-Serif" font-size="13.00" fill="#2d3436">HTTPS</text>
</g>
<!-- dc262e088db0428390b9dab5eecb25f0 -->
<g id="node2" class="node">
<title>dc262e088db0428390b9dab5eecb25f0</title>
<image xlink:href="C:\Users\USER\AppData\Local\Programs\Python\Python312\Lib\site-packages\resources/azure/general\browser.png" width="100.8px" height="100.8px" preserveAspectRatio="xMinYMin meet" x="152.6" y="-439.7"/>
<text xml:space="preserve" text-anchor="middle" x="203" y="-323.75" font-family="Sans-Serif" font-size="12.00" fill="#2d3436">Web app / PWA</text>
</g>
<!-- dc262e088db0428390b9dab5eecb25f0&#45;&gt;0773737cf2a14ea6940ee84af6b9b209 -->
<g id="edge2" class="edge">
<title>dc262e088db0428390b9dab5eecb25f0&#45;&gt;0773737cf2a14ea6940ee84af6b9b209</title>
<path fill="none" stroke="#5b6b7a" d="M181.06,-457.29C174.01,-491.85 172.7,-533.02 193.75,-563.5 256.62,-654.52 392.71,-681.28 472.42,-689.11"/>
<polygon fill="#5b6b7a" stroke="#5b6b7a" points="471.97,-692.58 482.25,-690 472.6,-685.61 471.97,-692.58"/>
<text xml:space="preserve" text-anchor="middle" x="214.38" y="-551.15" font-family="Sans-Serif" font-size="13.00" fill="#2d3436">HTTPS</text>
</g>
<!-- 4d79e104ddf44833af28eb4fc66b098d -->
<g id="node3" class="node">
<title>4d79e104ddf44833af28eb4fc66b098d</title>
<image xlink:href="C:\Users\USER\AppData\Local\Programs\Python\Python312\Lib\site-packages\resources/azure/general\usericon.png" width="100.8px" height="100.8px" preserveAspectRatio="xMinYMin meet" x="15.6" y="-439.7"/>
<text xml:space="preserve" text-anchor="middle" x="66" y="-323.75" font-family="Sans-Serif" font-size="12.00" fill="#2d3436">students · parents · staff</text>
</g>
<!-- 4d79e104ddf44833af28eb4fc66b098d&#45;&gt;0773737cf2a14ea6940ee84af6b9b209 -->
<g id="edge3" class="edge">
<title>4d79e104ddf44833af28eb4fc66b098d&#45;&gt;0773737cf2a14ea6940ee84af6b9b209</title>
<path fill="none" stroke="#5b6b7a" d="M78.16,-457.38C87.87,-493.25 104.99,-535.64 134.75,-563.5 229.55,-652.26 385.97,-679.86 472.19,-688.44"/>
<polygon fill="#5b6b7a" stroke="#5b6b7a" points="471.83,-691.92 482.12,-689.36 472.48,-684.95 471.83,-691.92"/>
<text xml:space="preserve" text-anchor="middle" x="155.38" y="-551.15" font-family="Sans-Serif" font-size="13.00" fill="#2d3436">HTTPS</text>
</g>
<!-- e4456033468a4e97b3f2635eaf64dacf -->
<g id="node5" class="node">
<title>e4456033468a4e97b3f2635eaf64dacf</title>
<image xlink:href="C:\Users\USER\AppData\Local\Programs\Python\Python312\Lib\site-packages\resources/azure/database\sql-databases.png" width="100.8px" height="100.8px" preserveAspectRatio="xMinYMin meet" x="1740.6" y="-439.7"/>
<text xml:space="preserve" text-anchor="middle" x="1791" y="-323.6" font-family="Sans-Serif" font-size="12.00" fill="#2d3436">Azure SQL (global registry)</text>
<text xml:space="preserve" text-anchor="middle" x="1791" y="-309.35" font-family="Sans-Serif" font-size="12.00" fill="#2d3436">tenant registry · One Edu ID · billing</text>
</g>
<!-- 0773737cf2a14ea6940ee84af6b9b209&#45;&gt;e4456033468a4e97b3f2635eaf64dacf -->
<g id="edge4" class="edge">
<title>0773737cf2a14ea6940ee84af6b9b209&#45;&gt;e4456033468a4e97b3f2635eaf64dacf</title>
<path fill="none" stroke="#9aa7b4" stroke-dasharray="5,2" d="M584.14,-613.01C585.4,-612.13 586.69,-611.29 588,-610.5 723.89,-528.34 1143.27,-570.06 1299,-539 1457.51,-507.39 1638.03,-446.06 1730.05,-412.9"/>
<polygon fill="#9aa7b4" stroke="#9aa7b4" points="1731.19,-416.21 1739.4,-409.52 1728.81,-409.63 1731.19,-416.21"/>
<text xml:space="preserve" text-anchor="middle" x="1310.49" y="-551.15" font-family="Sans-Serif" font-size="13.00" fill="#2d3436">lookup / routing (no PII)</text>
</g>
<!-- ad6d2af3f8ff46e0b70a384e0f8a8ead -->
<g id="node8" class="node">
<title>ad6d2af3f8ff46e0b70a384e0f8a8ead</title>
<image xlink:href="C:\Users\USER\AppData\Local\Programs\Python\Python312\Lib\site-packages\resources/azure/web\app-services.png" width="100.8px" height="100.8px" preserveAspectRatio="xMinYMin meet" x="928.6" y="-743.7"/>
<text xml:space="preserve" text-anchor="middle" x="979" y="-627.6" font-family="Sans-Serif" font-size="12.00" fill="#2d3436">App Service</text>
<text xml:space="preserve" text-anchor="middle" x="979" y="-613.35" font-family="Sans-Serif" font-size="12.00" fill="#2d3436">regional stack</text>
</g>
<!-- 0773737cf2a14ea6940ee84af6b9b209&#45;&gt;ad6d2af3f8ff46e0b70a384e0f8a8ead -->
<g id="edge23" class="edge">
<title>0773737cf2a14ea6940ee84af6b9b209&#45;&gt;ad6d2af3f8ff46e0b70a384e0f8a8ead</title>
<path fill="none" stroke="#1f7a3d" d="M584.18,-693.3C666.17,-693.3 828.58,-693.3 917.42,-693.3"/>
<polygon fill="#1f7a3d" stroke="#1f7a3d" points="917.15,-696.8 927.15,-693.3 917.15,-689.8 917.15,-696.8"/>
<text xml:space="preserve" text-anchor="middle" x="756.5" y="-700.45" font-family="Sans-Serif" font-size="13.00" fill="#2d3436">UK tenants</text>
</g>
<!-- 6bbac9562ad343c3badcf5ae3f2df55f -->
<g id="node17" class="node">
<title>6bbac9562ad343c3badcf5ae3f2df55f</title>
<image xlink:href="C:\Users\USER\AppData\Local\Programs\Python\Python312\Lib\site-packages\resources/azure/web\app-services.png" width="100.8px" height="100.8px" preserveAspectRatio="xMinYMin meet" x="2214.6" y="-743.7"/>
<text xml:space="preserve" text-anchor="middle" x="2265" y="-627.6" font-family="Sans-Serif" font-size="12.00" fill="#2d3436">App Service</text>
<text xml:space="preserve" text-anchor="middle" x="2265" y="-613.35" font-family="Sans-Serif" font-size="12.00" fill="#2d3436">regional stack</text>
</g>
<!-- 0773737cf2a14ea6940ee84af6b9b209&#45;&gt;6bbac9562ad343c3badcf5ae3f2df55f -->
<g id="edge24" class="edge">
<title>0773737cf2a14ea6940ee84af6b9b209&#45;&gt;6bbac9562ad343c3badcf5ae3f2df55f</title>
<path fill="none" stroke="#1f7a3d" d="M553.41,-776.06C561.32,-793.03 572.42,-808.83 588,-819.09 653.97,-862.56 1220.17,-824.2 1299,-819.09 1642.91,-796.79 2051.39,-730.29 2203.73,-704.09"/>
<polygon fill="#1f7a3d" stroke="#1f7a3d" points="2203.94,-707.6 2213.19,-702.45 2202.74,-700.7 2203.94,-707.6"/>
<text xml:space="preserve" text-anchor="middle" x="808" y="-840.75" font-family="Sans-Serif" font-size="13.00" fill="#2d3436">EU tenants</text>
</g>
<!-- 5d4f7b05968948b18abc9e89253a7f88 -->
<g id="node23" class="node">
<title>5d4f7b05968948b18abc9e89253a7f88</title>
<image xlink:href="C:\Users\USER\AppData\Local\Programs\Python\Python312\Lib\site-packages\resources/azure/web\app-services.png" width="100.8px" height="100.8px" preserveAspectRatio="xMinYMin meet" x="2762.6" y="-743.7"/>
<text xml:space="preserve" text-anchor="middle" x="2813" y="-627.6" font-family="Sans-Serif" font-size="12.00" fill="#2d3436">App Service</text>
<text xml:space="preserve" text-anchor="middle" x="2813" y="-613.35" font-family="Sans-Serif" font-size="12.00" fill="#2d3436">regional stack</text>
</g>
<!-- 0773737cf2a14ea6940ee84af6b9b209&#45;&gt;5d4f7b05968948b18abc9e89253a7f88 -->
<g id="edge25" class="edge">
<title>0773737cf2a14ea6940ee84af6b9b209&#45;&gt;5d4f7b05968948b18abc9e89253a7f88</title>
<path fill="none" stroke="#1f7a3d" d="M553.41,-776.06C561.32,-793.03 572.42,-808.83 588,-819.09 638.17,-852.15 2699.98,-850.83 2751,-819.09 2764.14,-810.92 2774.58,-799.05 2782.85,-785.82"/>
<polygon fill="#1f7a3d" stroke="#1f7a3d" points="2785.8,-787.71 2787.74,-777.29 2779.73,-784.22 2785.8,-787.71"/>
<text xml:space="preserve" text-anchor="middle" x="894" y="-840.75" font-family="Sans-Serif" font-size="13.00" fill="#2d3436">APAC tenants</text>
</g>
<!-- 29b3b92c7f2e4e8d872203e709b0c41b -->
<g id="node6" class="node">
<title>29b3b92c7f2e4e8d872203e709b0c41b</title>
<image xlink:href="C:\Users\USER\AppData\Local\Programs\Python\Python312\Lib\site-packages\resources/azure/identity\external-identities.png" width="100.8px" height="100.8px" preserveAspectRatio="xMinYMin meet" x="1877.6" y="-439.7"/>
<text xml:space="preserve" text-anchor="middle" x="1928" y="-323.45" font-family="Sans-Serif" font-size="12.00" fill="#2d3436">Entra External ID</text>
<text xml:space="preserve" text-anchor="middle" x="1928" y="-309.2" font-family="Sans-Serif" font-size="12.00" fill="#2d3436">Google · Apple · Microsoft · Facebook</text>
<text xml:space="preserve" text-anchor="middle" x="1928" y="-294.95" font-family="Sans-Serif" font-size="12.00" fill="#2d3436">global sign&#45;in · MFA</text>
</g>
<!-- 29b3b92c7f2e4e8d872203e709b0c41b&#45;&gt;ad6d2af3f8ff46e0b70a384e0f8a8ead -->
<g id="edge27" class="edge">
<title>29b3b92c7f2e4e8d872203e709b0c41b&#45;&gt;ad6d2af3f8ff46e0b70a384e0f8a8ead</title>
<path fill="none" stroke="#9aa7b4" stroke-dasharray="1,5" d="M1900.7,-486.25C1890.69,-506.51 1877.16,-525.75 1859,-539 1847.42,-547.45 1809.16,-544.79 1795,-547 1755.68,-553.14 1746.15,-556.37 1707,-563.5 1460.26,-608.46 1166.05,-659.82 1040.59,-681.62"/>
<polygon fill="#9aa7b4" stroke="#9aa7b4" points="1040.08,-678.16 1030.83,-683.32 1041.28,-685.05 1040.08,-678.16"/>
</g>
<!-- 29b3b92c7f2e4e8d872203e709b0c41b&#45;&gt;6bbac9562ad343c3badcf5ae3f2df55f -->
<g id="edge29" class="edge">
<title>29b3b92c7f2e4e8d872203e709b0c41b&#45;&gt;6bbac9562ad343c3badcf5ae3f2df55f</title>
<path fill="none" stroke="#9aa7b4" stroke-dasharray="1,5" d="M1959.42,-486.07C1972.55,-514.14 1990.38,-542.82 2014,-563.5 2070.83,-613.26 2150.28,-649.81 2204.47,-671.01"/>
<polygon fill="#9aa7b4" stroke="#9aa7b4" points="2202.96,-674.17 2213.55,-674.5 2205.47,-667.64 2202.96,-674.17"/>
</g>
<!-- 29b3b92c7f2e4e8d872203e709b0c41b&#45;&gt;5d4f7b05968948b18abc9e89253a7f88 -->
<g id="edge31" class="edge">
<title>29b3b92c7f2e4e8d872203e709b0c41b&#45;&gt;5d4f7b05968948b18abc9e89253a7f88</title>
<path fill="none" stroke="#9aa7b4" stroke-dasharray="1,5" d="M1954.23,-486.47C1964.3,-506.98 1978.12,-526.27 1997,-539 2011.76,-548.95 2139.25,-545.61 2157,-547 2289.35,-557.37 2635.43,-545.19 2751,-610.5 2751.92,-611.02 2752.82,-611.56 2753.72,-612.11"/>
<polygon fill="#9aa7b4" stroke="#9aa7b4" points="2751.57,-614.88 2761.75,-617.84 2755.64,-609.18 2751.57,-614.88"/>
</g>
<!-- f0370719805c4d66b0d255d33549a86a -->
<g id="node7" class="node">
<title>f0370719805c4d66b0d255d33549a86a</title>
<image xlink:href="C:\Users\USER\AppData\Local\Programs\Python\Python312\Lib\site-packages\resources/azure/identity\active-directory.png" width="100.8px" height="100.8px" preserveAspectRatio="xMinYMin meet" x="2014.6" y="-439.7"/>
<text xml:space="preserve" text-anchor="middle" x="2065" y="-323.6" font-family="Sans-Serif" font-size="12.00" fill="#2d3436">Entra ID + PIM</text>
<text xml:space="preserve" text-anchor="middle" x="2065" y="-309.35" font-family="Sans-Serif" font-size="12.00" fill="#2d3436">platform admin · break&#45;glass</text>
</g>
<!-- ad6d2af3f8ff46e0b70a384e0f8a8ead&#45;&gt;9de883feedc743d5ae627f9d3086be81 -->
<g id="edge32" class="edge">
<title>ad6d2af3f8ff46e0b70a384e0f8a8ead&#45;&gt;9de883feedc743d5ae627f9d3086be81</title>
<path fill="none" stroke="#b0792f" stroke-dasharray="5,2" d="M928.83,-680.69C856.73,-664.17 719.52,-633.35 602,-610.5 541.57,-598.75 368.66,-610.58 329,-563.5 310.49,-541.53 307.29,-511.9 310.57,-483.37"/>
<polygon fill="#b0792f" stroke="#b0792f" points="314.02,-483.97 311.98,-473.58 307.09,-482.98 314.02,-483.97"/>
<text xml:space="preserve" text-anchor="middle" x="381.5" y="-551.15" font-family="Sans-Serif" font-size="13.00" fill="#2d3436">push · real&#45;time</text>
</g>
<!-- ad6d2af3f8ff46e0b70a384e0f8a8ead&#45;&gt;e4456033468a4e97b3f2635eaf64dacf -->
<g id="edge26" class="edge">
<title>ad6d2af3f8ff46e0b70a384e0f8a8ead&#45;&gt;e4456033468a4e97b3f2635eaf64dacf</title>
<path fill="none" stroke="#9aa7b4" stroke-dasharray="5,2" d="M1029.15,-684.45C1122.52,-668.79 1328.32,-629.42 1491,-563.5 1539.01,-544.05 1658.25,-472.35 1731.12,-427.52"/>
<polygon fill="#9aa7b4" stroke="#9aa7b4" points="1732.67,-430.68 1739.35,-422.45 1729,-424.72 1732.67,-430.68"/>
<text xml:space="preserve" text-anchor="middle" x="1610.56" y="-551.15" font-family="Sans-Serif" font-size="13.00" fill="#2d3436">One Edu ID · mTLS (no PII)</text>
</g>
<!-- 1520d8cb08904c1ba638691b578b4187 -->
<g id="node9" class="node">
<title>1520d8cb08904c1ba638691b578b4187</title>
<image xlink:href="C:\Users\USER\AppData\Local\Programs\Python\Python312\Lib\site-packages\resources/azure/database\sql-databases.png" width="100.8px" height="100.8px" preserveAspectRatio="xMinYMin meet" x="870.6" y="-439.7"/>
<text xml:space="preserve" text-anchor="middle" x="921" y="-323.6" font-family="Sans-Serif" font-size="12.00" fill="#2d3436">Azure SQL</text>
<text xml:space="preserve" text-anchor="middle" x="921" y="-309.35" font-family="Sans-Serif" font-size="12.00" fill="#2d3436">multi&#45;tenant</text>
</g>
<!-- ad6d2af3f8ff46e0b70a384e0f8a8ead&#45;&gt;1520d8cb08904c1ba638691b578b4187 -->
<g id="edge5" class="edge">
<title>ad6d2af3f8ff46e0b70a384e0f8a8ead&#45;&gt;1520d8cb08904c1ba638691b578b4187</title>
<path fill="none" stroke="#1f7a3d" d="M963.3,-610.57C955.76,-571.29 946.68,-524.03 938.87,-483.37"/>
<polygon fill="#1f7a3d" stroke="#1f7a3d" points="942.32,-482.74 936.99,-473.58 935.44,-484.06 942.32,-482.74"/>
</g>
<!-- 8fbaf0ba8e084dfd9eb3f8c777115c30 -->
<g id="node10" class="node">
<title>8fbaf0ba8e084dfd9eb3f8c777115c30</title>
<image xlink:href="C:\Users\USER\AppData\Local\Programs\Python\Python312\Lib\site-packages\resources/azure/storage\blob-storage.png" width="100.8px" height="100.8px" preserveAspectRatio="xMinYMin meet" x="1007.6" y="-439.7"/>
<text xml:space="preserve" text-anchor="middle" x="1058" y="-323.6" font-family="Sans-Serif" font-size="12.00" fill="#2d3436">Blob</text>
<text xml:space="preserve" text-anchor="middle" x="1058" y="-309.35" font-family="Sans-Serif" font-size="12.00" fill="#2d3436">per&#45;tenant containers</text>
</g>
<!-- ad6d2af3f8ff46e0b70a384e0f8a8ead&#45;&gt;8fbaf0ba8e084dfd9eb3f8c777115c30 -->
<g id="edge6" class="edge">
<title>ad6d2af3f8ff46e0b70a384e0f8a8ead&#45;&gt;8fbaf0ba8e084dfd9eb3f8c777115c30</title>
<path fill="none" stroke="#1f7a3d" d="M1000.38,-610.57C1010.68,-571.21 1023.07,-523.83 1033.72,-483.11"/>
<polygon fill="#1f7a3d" stroke="#1f7a3d" points="1037.08,-484.12 1036.22,-473.56 1030.3,-482.34 1037.08,-484.12"/>
</g>
<!-- 1d6e988d9adf4e00af6dda564e38e5d1 -->
<g id="node11" class="node">
<title>1d6e988d9adf4e00af6dda564e38e5d1</title>
<image xlink:href="C:\Users\USER\AppData\Local\Programs\Python\Python312\Lib\site-packages\resources/azure/security\key-vaults.png" width="100.8px" height="100.8px" preserveAspectRatio="xMinYMin meet" x="733.6" y="-439.7"/>
<text xml:space="preserve" text-anchor="middle" x="784" y="-323.6" font-family="Sans-Serif" font-size="12.00" fill="#2d3436">Key Vault</text>
<text xml:space="preserve" text-anchor="middle" x="784" y="-309.35" font-family="Sans-Serif" font-size="12.00" fill="#2d3436">per&#45;tenant keys</text>
</g>
<!-- ad6d2af3f8ff46e0b70a384e0f8a8ead&#45;&gt;1d6e988d9adf4e00af6dda564e38e5d1 -->
<g id="edge7" class="edge">
<title>ad6d2af3f8ff46e0b70a384e0f8a8ead&#45;&gt;1d6e988d9adf4e00af6dda564e38e5d1</title>
<path fill="none" stroke="#1f7a3d" d="M928.73,-638.11C904.06,-609.87 875,-574 853,-539 841.83,-521.23 831.37,-501.36 822.14,-482.07"/>
<polygon fill="#1f7a3d" stroke="#1f7a3d" points="825.35,-480.67 817.92,-473.11 819.01,-483.65 825.35,-480.67"/>
</g>
<!-- 7e8b9f7490d74d3ea928c3952a20de3f -->
<g id="node12" class="node">
<title>7e8b9f7490d74d3ea928c3952a20de3f</title>
<image xlink:href="C:\Users\USER\AppData\Local\Programs\Python\Python312\Lib\site-packages\resources/azure/ml\azure-open-ai.png" width="100.8px" height="100.8px" preserveAspectRatio="xMinYMin meet" x="1144.6" y="-439.7"/>
<text xml:space="preserve" text-anchor="middle" x="1195" y="-323.6" font-family="Sans-Serif" font-size="12.00" fill="#2d3436">Azure OpenAI</text>
<text xml:space="preserve" text-anchor="middle" x="1195" y="-309.35" font-family="Sans-Serif" font-size="12.00" fill="#2d3436">in&#45;region inference</text>
</g>
<!-- ad6d2af3f8ff46e0b70a384e0f8a8ead&#45;&gt;7e8b9f7490d74d3ea928c3952a20de3f -->
<g id="edge8" class="edge">
<title>ad6d2af3f8ff46e0b70a384e0f8a8ead&#45;&gt;7e8b9f7490d74d3ea928c3952a20de3f</title>
<path fill="none" stroke="#1f7a3d" d="M1029.28,-647.42C1059.63,-618.53 1097.59,-579.03 1125,-539 1136.96,-521.54 1147.86,-501.71 1157.32,-482.36"/>
<polygon fill="#1f7a3d" stroke="#1f7a3d" points="1160.47,-483.88 1161.63,-473.35 1154.16,-480.87 1160.47,-483.88"/>
</g>
<!-- 59521c75e32a482ab475ca9e3b0fb924 -->
<g id="node13" class="node">
<title>59521c75e32a482ab475ca9e3b0fb924</title>
<image xlink:href="C:\Users\USER\AppData\Local\Programs\Python\Python312\Lib\site-packages\resources/azure/storage\recovery-services-vaults.png" width="100.8px" height="100.8px" preserveAspectRatio="xMinYMin meet" x="870.6" y="-149.2"/>
<text xml:space="preserve" text-anchor="middle" x="921" y="-33.1" font-family="Sans-Serif" font-size="12.00" fill="#2d3436">DR pair (same jurisdiction)</text>
<text xml:space="preserve" text-anchor="middle" x="921" y="-18.85" font-family="Sans-Serif" font-size="12.00" fill="#2d3436">HA + geo&#45;restore</text>
</g>
<!-- 1520d8cb08904c1ba638691b578b4187&#45;&gt;59521c75e32a482ab475ca9e3b0fb924 -->
<g id="edge9" class="edge">
<title>1520d8cb08904c1ba638691b578b4187&#45;&gt;59521c75e32a482ab475ca9e3b0fb924</title>
<path fill="none" stroke="#1f7a3d" stroke-dasharray="1,5" d="M921,-306.78C921,-271.22 921,-229.34 921,-192.59"/>
<polygon fill="#1f7a3d" stroke="#1f7a3d" points="924.5,-192.88 921,-182.88 917.5,-192.88 924.5,-192.88"/>
<text xml:space="preserve" text-anchor="middle" x="959.25" y="-232.75" font-family="Sans-Serif" font-size="13.00" fill="#2d3436">geo&#45;restore</text>
</g>
<!-- d046035ec24947018c82787f53c4506f -->
<g id="node14" class="node">
<title>d046035ec24947018c82787f53c4506f</title>
<image xlink:href="C:\Users\USER\AppData\Local\Programs\Python\Python312\Lib\site-packages\resources/azure/general\resourcegroups.png" width="100.8px" height="100.8px" preserveAspectRatio="xMinYMin meet" x="599.6" y="-1018.9"/>
<text xml:space="preserve" text-anchor="middle" x="650" y="-902.95" font-family="Sans-Serif" font-size="12.00" fill="#2d3436">Tenant A</text>
</g>
<!-- d046035ec24947018c82787f53c4506f&#45;&gt;ad6d2af3f8ff46e0b70a384e0f8a8ead -->
<g id="edge10" class="edge">
<title>d046035ec24947018c82787f53c4506f&#45;&gt;ad6d2af3f8ff46e0b70a384e0f8a8ead</title>
<path fill="none" stroke="#b0792f" stroke-dasharray="1,5" d="M623.8,-900.12C619.63,-878.34 620.12,-855.07 632.5,-836.6 696.31,-741.42 836.44,-709.85 917.6,-699.41"/>
<polygon fill="#b0792f" stroke="#b0792f" points="917.64,-702.94 927.14,-698.26 916.79,-695.99 917.64,-702.94"/>
<text xml:space="preserve" text-anchor="middle" x="697.75" y="-840.75" font-family="Sans-Serif" font-size="13.00" fill="#2d3436">isolated institutions</text>
</g>
<!-- 06fcd6f58c704adba619814d2eac767e -->
<g id="node15" class="node">
<title>06fcd6f58c704adba619814d2eac767e</title>
<image xlink:href="C:\Users\USER\AppData\Local\Programs\Python\Python312\Lib\site-packages\resources/azure/general\resourcegroups.png" width="100.8px" height="100.8px" preserveAspectRatio="xMinYMin meet" x="928.6" y="-1018.9"/>
<text xml:space="preserve" text-anchor="middle" x="979" y="-902.95" font-family="Sans-Serif" font-size="12.00" fill="#2d3436">Tenant B</text>
</g>
<!-- 06fcd6f58c704adba619814d2eac767e&#45;&gt;ad6d2af3f8ff46e0b70a384e0f8a8ead -->
<g id="edge11" class="edge">
<title>06fcd6f58c704adba619814d2eac767e&#45;&gt;ad6d2af3f8ff46e0b70a384e0f8a8ead</title>
<path fill="none" stroke="#b0792f" stroke-dasharray="1,5" d="M976.6,-900.36C976.14,-884.84 975.73,-868.4 975.5,-853.1 975.17,-831.83 975.36,-808.96 975.79,-787.39"/>
<polygon fill="#b0792f" stroke="#b0792f" points="979.28,-787.48 976,-777.41 972.29,-787.33 979.28,-787.48"/>
<text xml:space="preserve" text-anchor="middle" x="1040.75" y="-840.75" font-family="Sans-Serif" font-size="13.00" fill="#2d3436">isolated institutions</text>
</g>
<!-- a120e87fea044e3d80b9d4515ad38472 -->
<g id="node16" class="node">
<title>a120e87fea044e3d80b9d4515ad38472</title>
<image xlink:href="C:\Users\USER\AppData\Local\Programs\Python\Python312\Lib\site-packages\resources/azure/general\resourcegroups.png" width="100.8px" height="100.8px" preserveAspectRatio="xMinYMin meet" x="1100.6" y="-1018.9"/>
<text xml:space="preserve" text-anchor="middle" x="1151" y="-902.95" font-family="Sans-Serif" font-size="12.00" fill="#2d3436">Tenant C</text>
</g>
<!-- a120e87fea044e3d80b9d4515ad38472&#45;&gt;ad6d2af3f8ff46e0b70a384e0f8a8ead -->
<g id="edge12" class="edge">
<title>a120e87fea044e3d80b9d4515ad38472&#45;&gt;ad6d2af3f8ff46e0b70a384e0f8a8ead</title>
<path fill="none" stroke="#b0792f" stroke-dasharray="1,5" d="M1136.7,-900.18C1130.58,-878.99 1122.2,-856.06 1111,-836.6 1091.66,-803 1063.05,-770.86 1037.4,-745.65"/>
<polygon fill="#b0792f" stroke="#b0792f" points="1039.9,-743.2 1030.28,-738.77 1035.03,-748.24 1039.9,-743.2"/>
<text xml:space="preserve" text-anchor="middle" x="1184.74" y="-840.75" font-family="Sans-Serif" font-size="13.00" fill="#2d3436">isolated institutions</text>
</g>
<!-- 6bbac9562ad343c3badcf5ae3f2df55f&#45;&gt;9de883feedc743d5ae627f9d3086be81 -->
<g id="edge33" class="edge">
<title>6bbac9562ad343c3badcf5ae3f2df55f&#45;&gt;9de883feedc743d5ae627f9d3086be81</title>
<path fill="none" stroke="#b0792f" stroke-dasharray="5,2" d="M2214.73,-687.88C2071.61,-675.31 1649.65,-638.53 1299,-610.5 1021.32,-588.3 941.96,-639.6 674,-563.5 571.65,-534.43 464.33,-472.23 399.79,-430.83"/>
<polygon fill="#b0792f" stroke="#b0792f" points="401.77,-427.94 391.47,-425.45 397.97,-433.82 401.77,-427.94"/>
<text xml:space="preserve" text-anchor="middle" x="726.5" y="-551.15" font-family="Sans-Serif" font-size="13.00" fill="#2d3436">push · real&#45;time</text>
</g>
<!-- 6bbac9562ad343c3badcf5ae3f2df55f&#45;&gt;e4456033468a4e97b3f2635eaf64dacf -->
<g id="edge28" class="edge">
<title>6bbac9562ad343c3badcf5ae3f2df55f&#45;&gt;e4456033468a4e97b3f2635eaf64dacf</title>
<path fill="none" stroke="#9aa7b4" stroke-dasharray="5,2" d="M2214.62,-684.9C2108.48,-668.25 1867.28,-624.46 1814.5,-563.5 1795.47,-541.53 1787.4,-511.75 1784.74,-483.08"/>
<polygon fill="#9aa7b4" stroke="#9aa7b4" points="1788.24,-482.99 1784.06,-473.26 1781.26,-483.47 1788.24,-482.99"/>
<text xml:space="preserve" text-anchor="middle" x="1902.25" y="-551.15" font-family="Sans-Serif" font-size="13.00" fill="#2d3436">One Edu ID · mTLS (no PII)</text>
</g>
<!-- e2d2ff3103b54a13bf784e4d6a96baac -->
<g id="node18" class="node">
<title>e2d2ff3103b54a13bf784e4d6a96baac</title>
<image xlink:href="C:\Users\USER\AppData\Local\Programs\Python\Python312\Lib\site-packages\resources/azure/database\sql-databases.png" width="100.8px" height="100.8px" preserveAspectRatio="xMinYMin meet" x="2359.6" y="-439.7"/>
<text xml:space="preserve" text-anchor="middle" x="2410" y="-323.6" font-family="Sans-Serif" font-size="12.00" fill="#2d3436">Azure SQL</text>
<text xml:space="preserve" text-anchor="middle" x="2410" y="-309.35" font-family="Sans-Serif" font-size="12.00" fill="#2d3436">multi&#45;tenant</text>
</g>
<!-- 6bbac9562ad343c3badcf5ae3f2df55f&#45;&gt;e2d2ff3103b54a13bf784e4d6a96baac -->
<g id="edge13" class="edge">
<title>6bbac9562ad343c3badcf5ae3f2df55f&#45;&gt;e2d2ff3103b54a13bf784e4d6a96baac</title>
<path fill="none" stroke="#1f7a3d" d="M2306.02,-610.55C2317.46,-587.47 2329.82,-562.3 2341,-539 2349.78,-520.71 2359.02,-501.07 2367.78,-482.25"/>
<polygon fill="#1f7a3d" stroke="#1f7a3d" points="2370.92,-483.82 2371.96,-473.27 2364.57,-480.86 2370.92,-483.82"/>
</g>
<!-- 96b5621f1c0d427db8887d64dde83016 -->
<g id="node19" class="node">
<title>96b5621f1c0d427db8887d64dde83016</title>
<image xlink:href="C:\Users\USER\AppData\Local\Programs\Python\Python312\Lib\site-packages\resources/azure/storage\blob-storage.png" width="100.8px" height="100.8px" preserveAspectRatio="xMinYMin meet" x="2496.6" y="-439.7"/>
<text xml:space="preserve" text-anchor="middle" x="2547" y="-323.6" font-family="Sans-Serif" font-size="12.00" fill="#2d3436">Blob</text>
<text xml:space="preserve" text-anchor="middle" x="2547" y="-309.35" font-family="Sans-Serif" font-size="12.00" fill="#2d3436">per&#45;tenant containers</text>
</g>
<!-- 6bbac9562ad343c3badcf5ae3f2df55f&#45;&gt;96b5621f1c0d427db8887d64dde83016 -->
<g id="edge14" class="edge">
<title>6bbac9562ad343c3badcf5ae3f2df55f&#45;&gt;96b5621f1c0d427db8887d64dde83016</title>
<path fill="none" stroke="#1f7a3d" d="M2315.03,-666.24C2362.2,-639.59 2432.28,-594.31 2478,-539 2491.9,-522.19 2503.66,-502.11 2513.31,-482.24"/>
<polygon fill="#1f7a3d" stroke="#1f7a3d" points="2516.45,-483.79 2517.53,-473.25 2510.11,-480.82 2516.45,-483.79"/>
</g>
<!-- 9ba4850d14ba43e4849742159c5dd6fa -->
<g id="node20" class="node">
<title>9ba4850d14ba43e4849742159c5dd6fa</title>
<image xlink:href="C:\Users\USER\AppData\Local\Programs\Python\Python312\Lib\site-packages\resources/azure/security\key-vaults.png" width="100.8px" height="100.8px" preserveAspectRatio="xMinYMin meet" x="2222.6" y="-439.7"/>
<text xml:space="preserve" text-anchor="middle" x="2273" y="-323.6" font-family="Sans-Serif" font-size="12.00" fill="#2d3436">Key Vault</text>
<text xml:space="preserve" text-anchor="middle" x="2273" y="-309.35" font-family="Sans-Serif" font-size="12.00" fill="#2d3436">per&#45;tenant keys</text>
</g>
<!-- 6bbac9562ad343c3badcf5ae3f2df55f&#45;&gt;9ba4850d14ba43e4849742159c5dd6fa -->
<g id="edge15" class="edge">
<title>6bbac9562ad343c3badcf5ae3f2df55f&#45;&gt;9ba4850d14ba43e4849742159c5dd6fa</title>
<path fill="none" stroke="#1f7a3d" d="M2267.16,-610.57C2268.21,-571.29 2269.46,-524.03 2270.53,-483.37"/>
<polygon fill="#1f7a3d" stroke="#1f7a3d" points="2274.03,-483.69 2270.79,-473.6 2267.03,-483.51 2274.03,-483.69"/>
</g>
<!-- 1c4df15a47944df393f74ce7fdebc1aa -->
<g id="node21" class="node">
<title>1c4df15a47944df393f74ce7fdebc1aa</title>
<image xlink:href="C:\Users\USER\AppData\Local\Programs\Python\Python312\Lib\site-packages\resources/azure/ml\azure-open-ai.png" width="100.8px" height="100.8px" preserveAspectRatio="xMinYMin meet" x="2633.6" y="-439.7"/>
<text xml:space="preserve" text-anchor="middle" x="2684" y="-323.6" font-family="Sans-Serif" font-size="12.00" fill="#2d3436">Azure OpenAI</text>
<text xml:space="preserve" text-anchor="middle" x="2684" y="-309.35" font-family="Sans-Serif" font-size="12.00" fill="#2d3436">in&#45;region inference</text>
</g>
<!-- 6bbac9562ad343c3badcf5ae3f2df55f&#45;&gt;1c4df15a47944df393f74ce7fdebc1aa -->
<g id="edge16" class="edge">
<title>6bbac9562ad343c3badcf5ae3f2df55f&#45;&gt;1c4df15a47944df393f74ce7fdebc1aa</title>
<path fill="none" stroke="#1f7a3d" d="M2315.22,-682.06C2389.27,-664.61 2528.2,-622.59 2614,-539 2630.26,-523.16 2643.17,-502.8 2653.25,-482.27"/>
<polygon fill="#1f7a3d" stroke="#1f7a3d" points="2656.41,-483.78 2657.48,-473.23 2650.07,-480.81 2656.41,-483.78"/>
</g>
<!-- f620e70413b7444fa5cd091ef936bebe -->
<g id="node22" class="node">
<title>f620e70413b7444fa5cd091ef936bebe</title>
<image xlink:href="C:\Users\USER\AppData\Local\Programs\Python\Python312\Lib\site-packages\resources/azure/storage\recovery-services-vaults.png" width="100.8px" height="100.8px" preserveAspectRatio="xMinYMin meet" x="2359.6" y="-149.2"/>
<text xml:space="preserve" text-anchor="middle" x="2410" y="-33.1" font-family="Sans-Serif" font-size="12.00" fill="#2d3436">DR pair (same jurisdiction)</text>
<text xml:space="preserve" text-anchor="middle" x="2410" y="-18.85" font-family="Sans-Serif" font-size="12.00" fill="#2d3436">HA + geo&#45;restore</text>
</g>
<!-- e2d2ff3103b54a13bf784e4d6a96baac&#45;&gt;f620e70413b7444fa5cd091ef936bebe -->
<g id="edge17" class="edge">
<title>e2d2ff3103b54a13bf784e4d6a96baac&#45;&gt;f620e70413b7444fa5cd091ef936bebe</title>
<path fill="none" stroke="#1f7a3d" stroke-dasharray="1,5" d="M2410,-306.78C2410,-271.22 2410,-229.34 2410,-192.59"/>
<polygon fill="#1f7a3d" stroke="#1f7a3d" points="2413.5,-192.88 2410,-182.88 2406.5,-192.88 2413.5,-192.88"/>
<text xml:space="preserve" text-anchor="middle" x="2448.25" y="-232.75" font-family="Sans-Serif" font-size="13.00" fill="#2d3436">geo&#45;restore</text>
</g>
<!-- 5d4f7b05968948b18abc9e89253a7f88&#45;&gt;9de883feedc743d5ae627f9d3086be81 -->
<g id="edge34" class="edge">
<title>5d4f7b05968948b18abc9e89253a7f88&#45;&gt;9de883feedc743d5ae627f9d3086be81</title>
<path fill="none" stroke="#b0792f" stroke-dasharray="5,2" d="M2762.67,-618.18C2758.97,-615.29 2755.08,-612.7 2751,-610.5 2612.19,-535.7 2197.13,-596.76 2043,-563.5 2022.58,-559.09 2019.54,-550.79 1999,-547 1928.96,-534.07 786.93,-552.52 717,-539 600.06,-516.39 472.92,-458.66 400.21,-422.14"/>
<polygon fill="#b0792f" stroke="#b0792f" points="402.17,-419.21 391.67,-417.82 399.01,-425.46 402.17,-419.21"/>
<text xml:space="preserve" text-anchor="middle" x="2095.5" y="-551.15" font-family="Sans-Serif" font-size="13.00" fill="#2d3436">push · real&#45;time</text>
</g>
<!-- 5d4f7b05968948b18abc9e89253a7f88&#45;&gt;e4456033468a4e97b3f2635eaf64dacf -->
<g id="edge30" class="edge">
<title>5d4f7b05968948b18abc9e89253a7f88&#45;&gt;e4456033468a4e97b3f2635eaf64dacf</title>
<path fill="none" stroke="#9aa7b4" stroke-dasharray="5,2" d="M2762.97,-618.73C2759.18,-615.65 2755.19,-612.87 2751,-610.5 2637.01,-545.98 2295.69,-555.78 2165,-547 2148.09,-545.86 1874.17,-548.31 1860,-539 1839.67,-525.64 1825.23,-504.63 1815,-482.57"/>
<polygon fill="#9aa7b4" stroke="#9aa7b4" points="1818.23,-481.21 1811.05,-473.42 1811.8,-483.99 1818.23,-481.21"/>
<text xml:space="preserve" text-anchor="middle" x="2620.87" y="-551.15" font-family="Sans-Serif" font-size="13.00" fill="#2d3436">One Edu ID · mTLS (no PII)</text>
</g>
<!-- 8cd7f1c7747a4b239e1e45917b282f9f -->
<g id="node24" class="node">
<title>8cd7f1c7747a4b239e1e45917b282f9f</title>
<image xlink:href="C:\Users\USER\AppData\Local\Programs\Python\Python312\Lib\site-packages\resources/azure/database\sql-databases.png" width="100.8px" height="100.8px" preserveAspectRatio="xMinYMin meet" x="2907.6" y="-439.7"/>
<text xml:space="preserve" text-anchor="middle" x="2958" y="-323.6" font-family="Sans-Serif" font-size="12.00" fill="#2d3436">Azure SQL</text>
<text xml:space="preserve" text-anchor="middle" x="2958" y="-309.35" font-family="Sans-Serif" font-size="12.00" fill="#2d3436">multi&#45;tenant</text>
</g>
<!-- 5d4f7b05968948b18abc9e89253a7f88&#45;&gt;8cd7f1c7747a4b239e1e45917b282f9f -->
<g id="edge18" class="edge">
<title>5d4f7b05968948b18abc9e89253a7f88&#45;&gt;8cd7f1c7747a4b239e1e45917b282f9f</title>
<path fill="none" stroke="#1f7a3d" d="M2863.24,-666.94C2900.35,-645.14 2948.06,-609.87 2970,-563.5 2981.62,-538.94 2983.57,-510.21 2981.22,-483.29"/>
<polygon fill="#1f7a3d" stroke="#1f7a3d" points="2984.7,-482.94 2980.13,-473.38 2977.74,-483.7 2984.7,-482.94"/>
</g>
<!-- 379248f3e39844a09b9b88aa8f452798 -->
<g id="node25" class="node">
<title>379248f3e39844a09b9b88aa8f452798</title>
<image xlink:href="C:\Users\USER\AppData\Local\Programs\Python\Python312\Lib\site-packages\resources/azure/storage\blob-storage.png" width="100.8px" height="100.8px" preserveAspectRatio="xMinYMin meet" x="3044.6" y="-439.7"/>
<text xml:space="preserve" text-anchor="middle" x="3095" y="-323.6" font-family="Sans-Serif" font-size="12.00" fill="#2d3436">Blob</text>
<text xml:space="preserve" text-anchor="middle" x="3095" y="-309.35" font-family="Sans-Serif" font-size="12.00" fill="#2d3436">per&#45;tenant containers</text>
</g>
<!-- 5d4f7b05968948b18abc9e89253a7f88&#45;&gt;379248f3e39844a09b9b88aa8f452798 -->
<g id="edge19" class="edge">
<title>5d4f7b05968948b18abc9e89253a7f88&#45;&gt;379248f3e39844a09b9b88aa8f452798</title>
<path fill="none" stroke="#1f7a3d" d="M2863.03,-666.24C2910.2,-639.59 2980.28,-594.31 3026,-539 3039.9,-522.19 3051.66,-502.11 3061.31,-482.24"/>
<polygon fill="#1f7a3d" stroke="#1f7a3d" points="3064.45,-483.79 3065.53,-473.25 3058.11,-480.82 3064.45,-483.79"/>
</g>
<!-- 364f2f58cf3244819543d70e52294f43 -->
<g id="node26" class="node">
<title>364f2f58cf3244819543d70e52294f43</title>
<image xlink:href="C:\Users\USER\AppData\Local\Programs\Python\Python312\Lib\site-packages\resources/azure/security\key-vaults.png" width="100.8px" height="100.8px" preserveAspectRatio="xMinYMin meet" x="2770.6" y="-439.7"/>
<text xml:space="preserve" text-anchor="middle" x="2821" y="-323.6" font-family="Sans-Serif" font-size="12.00" fill="#2d3436">Key Vault</text>
<text xml:space="preserve" text-anchor="middle" x="2821" y="-309.35" font-family="Sans-Serif" font-size="12.00" fill="#2d3436">per&#45;tenant keys</text>
</g>
<!-- 5d4f7b05968948b18abc9e89253a7f88&#45;&gt;364f2f58cf3244819543d70e52294f43 -->
<g id="edge20" class="edge">
<title>5d4f7b05968948b18abc9e89253a7f88&#45;&gt;364f2f58cf3244819543d70e52294f43</title>
<path fill="none" stroke="#1f7a3d" d="M2863.27,-665.01C2898.42,-642.82 2942.58,-607.95 2963,-563.5 2966.06,-556.84 2967.89,-552.46 2963,-547 2952.11,-534.85 2903.26,-548.52 2890,-539 2870.44,-524.96 2856.28,-503.95 2846.07,-482.13"/>
<polygon fill="#1f7a3d" stroke="#1f7a3d" points="2849.34,-480.86 2842.12,-473.11 2842.93,-483.67 2849.34,-480.86"/>
</g>
<!-- 8b6a9ff5f475496b908f17ecd02aefd1 -->
<g id="node27" class="node">
<title>8b6a9ff5f475496b908f17ecd02aefd1</title>
<image xlink:href="C:\Users\USER\AppData\Local\Programs\Python\Python312\Lib\site-packages\resources/azure/ml\azure-open-ai.png" width="100.8px" height="100.8px" preserveAspectRatio="xMinYMin meet" x="3181.6" y="-439.7"/>
<text xml:space="preserve" text-anchor="middle" x="3232" y="-323.6" font-family="Sans-Serif" font-size="12.00" fill="#2d3436">Azure OpenAI</text>
<text xml:space="preserve" text-anchor="middle" x="3232" y="-309.35" font-family="Sans-Serif" font-size="12.00" fill="#2d3436">in&#45;region inference</text>
</g>
<!-- 5d4f7b05968948b18abc9e89253a7f88&#45;&gt;8b6a9ff5f475496b908f17ecd02aefd1 -->
<g id="edge21" class="edge">
<title>5d4f7b05968948b18abc9e89253a7f88&#45;&gt;8b6a9ff5f475496b908f17ecd02aefd1</title>
<path fill="none" stroke="#1f7a3d" d="M2863.22,-682.06C2937.27,-664.61 3076.2,-622.59 3162,-539 3178.26,-523.16 3191.17,-502.8 3201.25,-482.27"/>
<polygon fill="#1f7a3d" stroke="#1f7a3d" points="3204.41,-483.78 3205.48,-473.23 3198.07,-480.81 3204.41,-483.78"/>
</g>
<!-- a732040e2d404e6bac3d740a98e746be -->
<g id="node28" class="node">
<title>a732040e2d404e6bac3d740a98e746be</title>
<image xlink:href="C:\Users\USER\AppData\Local\Programs\Python\Python312\Lib\site-packages\resources/azure/storage\recovery-services-vaults.png" width="100.8px" height="100.8px" preserveAspectRatio="xMinYMin meet" x="2907.6" y="-149.2"/>
<text xml:space="preserve" text-anchor="middle" x="2958" y="-33.1" font-family="Sans-Serif" font-size="12.00" fill="#2d3436">DR pair (same jurisdiction)</text>
<text xml:space="preserve" text-anchor="middle" x="2958" y="-18.85" font-family="Sans-Serif" font-size="12.00" fill="#2d3436">HA + geo&#45;restore</text>
</g>
<!-- 8cd7f1c7747a4b239e1e45917b282f9f&#45;&gt;a732040e2d404e6bac3d740a98e746be -->
<g id="edge22" class="edge">
<title>8cd7f1c7747a4b239e1e45917b282f9f&#45;&gt;a732040e2d404e6bac3d740a98e746be</title>
<path fill="none" stroke="#1f7a3d" stroke-dasharray="1,5" d="M2958,-306.78C2958,-271.22 2958,-229.34 2958,-192.59"/>
<polygon fill="#1f7a3d" stroke="#1f7a3d" points="2961.5,-192.88 2958,-182.88 2954.5,-192.88 2961.5,-192.88"/>
<text xml:space="preserve" text-anchor="middle" x="2996.25" y="-232.75" font-family="Sans-Serif" font-size="13.00" fill="#2d3436">geo&#45;restore</text>
</g>
</g>
</svg>
