<?xml version="1.0" encoding="UTF-8" standalone="no"?>
<!DOCTYPE svg PUBLIC "-//W3C//DTD SVG 1.1//EN"
 "http://www.w3.org/Graphics/SVG/1.1/DTD/svg11.dtd">
<!-- Generated by graphviz version 15.0.0 (20260523.1842)
 -->
<!-- Title: One Edu &#160;— &#160;Multi&#45;Region · Multi&#45;Tenant Architecture &#160;(expansion&#45;ready) Pages: 1 -->
<svg width="2506pt" height="1464pt"
 viewBox="0.00 0.00 2506.00 1464.00" xmlns="http://www.w3.org/2000/svg" xmlns:xlink="http://www.w3.org/1999/xlink">
<g id="graph0" class="graph" transform="scale(1 1) rotate(0) translate(57.6 1406.9)">
<title>One Edu &#160;— &#160;Multi&#45;Region · Multi&#45;Tenant Architecture &#160;(expansion&#45;ready)</title>
<polygon fill="white" stroke="none" points="-57.6,57.6 -57.6,-1406.9 2448.6,-1406.9 2448.6,57.6 -57.6,57.6"/>
<text xml:space="preserve" text-anchor="middle" x="1195.5" y="-1322.5" font-family="Sans-Serif" font-size="24.00" fill="#2d3436">One Edu &#160;— &#160;Multi&#45;Region · Multi&#45;Tenant Architecture &#160;(expansion&#45;ready)</text>
<g id="clust1" class="cluster">
<title>cluster_Global Control Plane &#160;— &#160;non&#45;PII only &#160;(GEO&#45;007 / 011)</title>
<path fill="#e5f5fd" stroke="#aeb6be" d="M1240,-572.6C1240,-572.6 1606,-572.6 1606,-572.6 1612,-572.6 1618,-578.6 1618,-584.6 1618,-584.6 1618,-786.7 1618,-786.7 1618,-792.7 1612,-798.7 1606,-798.7 1606,-798.7 1240,-798.7 1240,-798.7 1234,-798.7 1228,-792.7 1228,-786.7 1228,-786.7 1228,-584.6 1228,-584.6 1228,-578.6 1234,-572.6 1240,-572.6"/>
<text xml:space="preserve" text-anchor="middle" x="1396.88" y="-783.3" font-family="Sans-Serif" font-size="12.00" fill="#2d3436">Global Control Plane &#160;— &#160;non&#45;PII only &#160;(GEO&#45;007 / 011)</text>
</g>
<g id="clust2" class="cluster">
<title>cluster_GEO&#45;UK &#160;&#160;· &#160;&#160;UK South (primary) + UK West (DR) &#160;&#160;· &#160;&#160;PII stays in region</title>
<path fill="#e5f5fd" stroke="#aeb6be" d="M1860,-8C1860,-8 2371,-8 2371,-8 2377,-8 2383,-14 2383,-20 2383,-20 2383,-1062.8 2383,-1062.8 2383,-1068.8 2377,-1074.8 2371,-1074.8 2371,-1074.8 1860,-1074.8 1860,-1074.8 1854,-1074.8 1848,-1068.8 1848,-1062.8 1848,-1062.8 1848,-20 1848,-20 1848,-14 1854,-8 1860,-8"/>
<text xml:space="preserve" text-anchor="middle" x="2064.12" y="-1059.4" font-family="Sans-Serif" font-size="12.00" fill="#2d3436">GEO&#45;UK &#160;&#160;· &#160;&#160;UK South (primary) + UK West (DR) &#160;&#160;· &#160;&#160;PII stays in region</text>
</g>
<g id="clust3" class="cluster">
<title>cluster_Tenant&#45;isolated data &#160;· &#160;RLS · per&#45;tenant keys</title>
<path fill="#ebf3e7" stroke="#aeb6be" d="M1868,-284.1C1868,-284.1 2234,-284.1 2234,-284.1 2240,-284.1 2246,-290.1 2246,-296.1 2246,-296.1 2246,-498.2 2246,-498.2 2246,-504.2 2240,-510.2 2234,-510.2 2234,-510.2 1868,-510.2 1868,-510.2 1862,-510.2 1856,-504.2 1856,-498.2 1856,-498.2 1856,-296.1 1856,-296.1 1856,-290.1 1862,-284.1 1868,-284.1"/>
<text xml:space="preserve" text-anchor="middle" x="1997.88" y="-494.8" font-family="Sans-Serif" font-size="12.00" fill="#2d3436">Tenant&#45;isolated data &#160;· &#160;RLS · per&#45;tenant keys</text>
</g>
<g id="clust4" class="cluster">
<title>cluster_GEO&#45;EU &#160;&#160;· &#160;&#160;West Europe + North Europe (DR) &#160;&#160;· &#160;&#160;PII stays in region</title>
<path fill="#e5f5fd" stroke="#aeb6be" d="M20,-8C20,-8 531,-8 531,-8 537,-8 543,-14 543,-20 543,-20 543,-786.7 543,-786.7 543,-792.7 537,-798.7 531,-798.7 531,-798.7 20,-798.7 20,-798.7 14,-798.7 8,-792.7 8,-786.7 8,-786.7 8,-20 8,-20 8,-14 14,-8 20,-8"/>
<text xml:space="preserve" text-anchor="middle" x="219.25" y="-783.3" font-family="Sans-Serif" font-size="12.00" fill="#2d3436">GEO&#45;EU &#160;&#160;· &#160;&#160;West Europe + North Europe (DR) &#160;&#160;· &#160;&#160;PII stays in region</text>
</g>
<g id="clust5" class="cluster">
<title>cluster_Tenant&#45;isolated data &#160;· &#160;RLS · per&#45;tenant keys</title>
<path fill="#ebf3e7" stroke="#aeb6be" d="M28,-284.1C28,-284.1 394,-284.1 394,-284.1 400,-284.1 406,-290.1 406,-296.1 406,-296.1 406,-498.2 406,-498.2 406,-504.2 400,-510.2 394,-510.2 394,-510.2 28,-510.2 28,-510.2 22,-510.2 16,-504.2 16,-498.2 16,-498.2 16,-296.1 16,-296.1 16,-290.1 22,-284.1 28,-284.1"/>
<text xml:space="preserve" text-anchor="middle" x="157.88" y="-494.8" font-family="Sans-Serif" font-size="12.00" fill="#2d3436">Tenant&#45;isolated data &#160;· &#160;RLS · per&#45;tenant keys</text>
</g>
<g id="clust6" class="cluster">
<title>cluster_GEO&#45;APAC &#160;&#160;· &#160;&#160;Central + South India (DR) &#160;&#160;· &#160;&#160;PII stays in region</title>
<path fill="#e5f5fd" stroke="#aeb6be" d="M568,-8C568,-8 1079,-8 1079,-8 1085,-8 1091,-14 1091,-20 1091,-20 1091,-786.7 1091,-786.7 1091,-792.7 1085,-798.7 1079,-798.7 1079,-798.7 568,-798.7 568,-798.7 562,-798.7 556,-792.7 556,-786.7 556,-786.7 556,-20 556,-20 556,-14 562,-8 568,-8"/>
<text xml:space="preserve" text-anchor="middle" x="752.62" y="-783.3" font-family="Sans-Serif" font-size="12.00" fill="#2d3436">GEO&#45;APAC &#160;&#160;· &#160;&#160;Central + South India (DR) &#160;&#160;· &#160;&#160;PII stays in region</text>
</g>
<g id="clust7" class="cluster">
<title>cluster_Tenant&#45;isolated data &#160;· &#160;RLS · per&#45;tenant keys</title>
<path fill="#ebf3e7" stroke="#aeb6be" d="M576,-284.1C576,-284.1 942,-284.1 942,-284.1 948,-284.1 954,-290.1 954,-296.1 954,-296.1 954,-498.2 954,-498.2 954,-504.2 948,-510.2 942,-510.2 942,-510.2 576,-510.2 576,-510.2 570,-510.2 564,-504.2 564,-498.2 564,-498.2 564,-296.1 564,-296.1 564,-290.1 570,-284.1 576,-284.1"/>
<text xml:space="preserve" text-anchor="middle" x="705.88" y="-494.8" font-family="Sans-Serif" font-size="12.00" fill="#2d3436">Tenant&#45;isolated data &#160;· &#160;RLS · per&#45;tenant keys</text>
</g>
<!-- 706edf1b161149bc81dcd1f645e94e83 -->
<g id="node1" class="node">
<title>706edf1b161149bc81dcd1f645e94e83</title>
<image xlink:href="C:\Users\USER\AppData\Local\Programs\Python\Python312\Lib\site-packages\resources/azure/general\usericon.png" width="100.8px" height="100.8px" preserveAspectRatio="xMinYMin meet" x="864.6" y="-1280.4"/>
<text xml:space="preserve" text-anchor="middle" x="915" y="-1164.3" font-family="Sans-Serif" font-size="12.00" fill="#2d3436">Tenants&#39; users — global</text>
<text xml:space="preserve" text-anchor="middle" x="915" y="-1150.05" font-family="Sans-Serif" font-size="12.00" fill="#2d3436">students · parents · staff</text>
</g>
<!-- 42487b0be34043a58f9f7f36de6663aa -->
<g id="node2" class="node">
<title>42487b0be34043a58f9f7f36de6663aa</title>
<image xlink:href="C:\Users\USER\AppData\Local\Programs\Python\Python312\Lib\site-packages\resources/azure/network\front-doors.png" width="100.8px" height="100.8px" preserveAspectRatio="xMinYMin meet" x="864.6" y="-1004.3"/>
<text xml:space="preserve" text-anchor="middle" x="915" y="-888.2" font-family="Sans-Serif" font-size="12.00" fill="#2d3436">Azure Front Door &#160;(global)</text>
<text xml:space="preserve" text-anchor="middle" x="915" y="-873.95" font-family="Sans-Serif" font-size="12.00" fill="#2d3436">WAF · routes each tenant to its home region</text>
</g>
<!-- 706edf1b161149bc81dcd1f645e94e83&#45;&gt;42487b0be34043a58f9f7f36de6663aa -->
<g id="edge1" class="edge">
<title>706edf1b161149bc81dcd1f645e94e83&#45;&gt;42487b0be34043a58f9f7f36de6663aa</title>
<path fill="none" stroke="#5b6b7a" d="M915,-1147.5C915,-1116.16 915,-1080.16 915,-1047.83"/>
<polygon fill="#5b6b7a" stroke="#5b6b7a" points="918.5,-1048.07 915,-1038.07 911.5,-1048.07 918.5,-1048.07"/>
<text xml:space="preserve" text-anchor="middle" x="935.62" y="-1087.85" font-family="Sans-Serif" font-size="13.00" fill="#2d3436">HTTPS</text>
</g>
<!-- d15bbe0451504138adf1ee63f40eb49f -->
<g id="node3" class="node">
<title>d15bbe0451504138adf1ee63f40eb49f</title>
<image xlink:href="C:\Users\USER\AppData\Local\Programs\Python\Python312\Lib\site-packages\resources/azure/database\cosmos-db.png" width="100.8px" height="100.8px" preserveAspectRatio="xMinYMin meet" x="1235.6" y="-713.8"/>
<text xml:space="preserve" text-anchor="middle" x="1286" y="-597.7" font-family="Sans-Serif" font-size="12.00" fill="#2d3436">Cosmos DB</text>
<text xml:space="preserve" text-anchor="middle" x="1286" y="-583.45" font-family="Sans-Serif" font-size="12.00" fill="#2d3436">tenant registry · One Edu ID · billing</text>
</g>
<!-- 42487b0be34043a58f9f7f36de6663aa&#45;&gt;d15bbe0451504138adf1ee63f40eb49f -->
<g id="edge2" class="edge">
<title>42487b0be34043a58f9f7f36de6663aa&#45;&gt;d15bbe0451504138adf1ee63f40eb49f</title>
<path fill="none" stroke="#9aa7b4" stroke-dasharray="5,2" d="M965.22,-950.58C1101.85,-943.11 1474.99,-914.66 1549,-824.1 1553.64,-818.42 1554.07,-812.9 1549,-807.6 1534.1,-792 1373.15,-810.36 1355,-798.7 1338.78,-788.28 1326.18,-772.76 1316.46,-755.93"/>
<polygon fill="#9aa7b4" stroke="#9aa7b4" points="1319.6,-754.38 1311.79,-747.23 1313.44,-757.69 1319.6,-754.38"/>
<text xml:space="preserve" text-anchor="middle" x="1630.64" y="-811.75" font-family="Sans-Serif" font-size="13.00" fill="#2d3436">lookup / routing (no PII)</text>
</g>
<!-- ce7e1fc37e55404c9cb29244c06fd138 -->
<g id="node6" class="node">
<title>ce7e1fc37e55404c9cb29244c06fd138</title>
<image xlink:href="C:\Users\USER\AppData\Local\Programs\Python\Python312\Lib\site-packages\resources/azure/web\app-services.png" width="100.8px" height="100.8px" preserveAspectRatio="xMinYMin meet" x="1863.6" y="-713.8"/>
<text xml:space="preserve" text-anchor="middle" x="1914" y="-597.7" font-family="Sans-Serif" font-size="12.00" fill="#2d3436">App Service</text>
<text xml:space="preserve" text-anchor="middle" x="1914" y="-583.45" font-family="Sans-Serif" font-size="12.00" fill="#2d3436">regional stack</text>
</g>
<!-- 42487b0be34043a58f9f7f36de6663aa&#45;&gt;ce7e1fc37e55404c9cb29244c06fd138 -->
<g id="edge21" class="edge">
<title>42487b0be34043a58f9f7f36de6663aa&#45;&gt;ce7e1fc37e55404c9cb29244c06fd138</title>
<path fill="none" stroke="#1f7a3d" d="M965.03,-953.69C1095.23,-953.94 1452.91,-942.92 1718,-824.1 1769.95,-800.82 1819.56,-760.14 1855.88,-725.66"/>
<polygon fill="#1f7a3d" stroke="#1f7a3d" points="1858.02,-728.46 1862.8,-719.01 1853.16,-723.42 1858.02,-728.46"/>
<text xml:space="preserve" text-anchor="middle" x="1784.78" y="-811.75" font-family="Sans-Serif" font-size="13.00" fill="#2d3436">UK tenants</text>
</g>
<!-- bf3b5a3621b842b0b88de0db57a7ffd3 -->
<g id="node15" class="node">
<title>bf3b5a3621b842b0b88de0db57a7ffd3</title>
<image xlink:href="C:\Users\USER\AppData\Local\Programs\Python\Python312\Lib\site-packages\resources/azure/web\app-services.png" width="100.8px" height="100.8px" preserveAspectRatio="xMinYMin meet" x="434.6" y="-713.8"/>
<text xml:space="preserve" text-anchor="middle" x="485" y="-597.7" font-family="Sans-Serif" font-size="12.00" fill="#2d3436">App Service</text>
<text xml:space="preserve" text-anchor="middle" x="485" y="-583.45" font-family="Sans-Serif" font-size="12.00" fill="#2d3436">regional stack</text>
</g>
<!-- 42487b0be34043a58f9f7f36de6663aa&#45;&gt;bf3b5a3621b842b0b88de0db57a7ffd3 -->
<g id="edge22" class="edge">
<title>42487b0be34043a58f9f7f36de6663aa&#45;&gt;bf3b5a3621b842b0b88de0db57a7ffd3</title>
<path fill="none" stroke="#1f7a3d" d="M864.66,-952.76C777.93,-949.59 600.95,-929.68 510.25,-824.1 494.38,-805.63 486.37,-781.33 482.71,-757.28"/>
<polygon fill="#1f7a3d" stroke="#1f7a3d" points="486.19,-756.89 481.47,-747.4 479.24,-757.76 486.19,-756.89"/>
<text xml:space="preserve" text-anchor="middle" x="546.62" y="-811.75" font-family="Sans-Serif" font-size="13.00" fill="#2d3436">EU tenants</text>
</g>
<!-- 29857655341c4647a6e92d558f647aea -->
<g id="node21" class="node">
<title>29857655341c4647a6e92d558f647aea</title>
<image xlink:href="C:\Users\USER\AppData\Local\Programs\Python\Python312\Lib\site-packages\resources/azure/web\app-services.png" width="100.8px" height="100.8px" preserveAspectRatio="xMinYMin meet" x="866.6" y="-713.8"/>
<text xml:space="preserve" text-anchor="middle" x="917" y="-597.7" font-family="Sans-Serif" font-size="12.00" fill="#2d3436">App Service</text>
<text xml:space="preserve" text-anchor="middle" x="917" y="-583.45" font-family="Sans-Serif" font-size="12.00" fill="#2d3436">regional stack</text>
</g>
<!-- 42487b0be34043a58f9f7f36de6663aa&#45;&gt;29857655341c4647a6e92d558f647aea -->
<g id="edge23" class="edge">
<title>42487b0be34043a58f9f7f36de6663aa&#45;&gt;29857655341c4647a6e92d558f647aea</title>
<path fill="none" stroke="#1f7a3d" d="M864.86,-949.01C792.22,-940.37 659.93,-912.65 600.5,-824.1 534.58,-725.88 746.04,-685.12 855.54,-670.91"/>
<polygon fill="#1f7a3d" stroke="#1f7a3d" points="855.78,-674.41 865.26,-669.69 854.9,-667.46 855.78,-674.41"/>
<text xml:space="preserve" text-anchor="middle" x="644.75" y="-811.75" font-family="Sans-Serif" font-size="13.00" fill="#2d3436">APAC tenants</text>
</g>
<!-- 73c76b5754b841dc9c9e37b01b1ed96c -->
<g id="node27" class="node">
<title>73c76b5754b841dc9c9e37b01b1ed96c</title>
<image xlink:href="C:\Users\USER\AppData\Local\Programs\Python\Python312\Lib\site-packages\resources/generic/blank\blank.png" width="100.8px" height="100.8px" preserveAspectRatio="xMinYMin meet" x="1098.6" y="-713.8"/>
<text xml:space="preserve" text-anchor="middle" x="1149" y="-597.55" font-family="Sans-Serif" font-size="12.00" fill="#2d3436">Future regions</text>
<text xml:space="preserve" text-anchor="middle" x="1149" y="-583.3" font-family="Sans-Serif" font-size="12.00" fill="#2d3436">GEO&#45;ME · GEO&#45;NA · …</text>
<text xml:space="preserve" text-anchor="middle" x="1149" y="-569.05" font-family="Sans-Serif" font-size="12.00" fill="#2d3436">stamp the same blueprint on demand</text>
</g>
<!-- 42487b0be34043a58f9f7f36de6663aa&#45;&gt;73c76b5754b841dc9c9e37b01b1ed96c -->
<g id="edge24" class="edge">
<title>42487b0be34043a58f9f7f36de6663aa&#45;&gt;73c76b5754b841dc9c9e37b01b1ed96c</title>
<path fill="none" stroke="#9aa7b4" stroke-dasharray="1,5" d="M892.28,-871.1C890.78,-847.9 894.73,-824.41 910.75,-807.6 924.89,-792.76 1078.3,-810.58 1095,-798.7 1105.53,-791.21 1114.01,-781.3 1120.84,-770.26"/>
<polygon fill="#9aa7b4" stroke="#9aa7b4" points="1123.85,-772.05 1125.68,-761.62 1117.74,-768.63 1123.85,-772.05"/>
<text xml:space="preserve" text-anchor="middle" x="962.88" y="-811.75" font-family="Sans-Serif" font-size="13.00" fill="#2d3436">add on demand</text>
</g>
<!-- 0c94354d0ec0427baa24bda9cb52d7d8 -->
<g id="node4" class="node">
<title>0c94354d0ec0427baa24bda9cb52d7d8</title>
<image xlink:href="C:\Users\USER\AppData\Local\Programs\Python\Python312\Lib\site-packages\resources/azure/identity\external-identities.png" width="100.8px" height="100.8px" preserveAspectRatio="xMinYMin meet" x="1372.6" y="-713.8"/>
<text xml:space="preserve" text-anchor="middle" x="1423" y="-597.7" font-family="Sans-Serif" font-size="12.00" fill="#2d3436">Entra External ID</text>
<text xml:space="preserve" text-anchor="middle" x="1423" y="-583.45" font-family="Sans-Serif" font-size="12.00" fill="#2d3436">global sign&#45;in · MFA</text>
</g>
<!-- 0c94354d0ec0427baa24bda9cb52d7d8&#45;&gt;ce7e1fc37e55404c9cb29244c06fd138 -->
<g id="edge26" class="edge">
<title>0c94354d0ec0427baa24bda9cb52d7d8&#45;&gt;ce7e1fc37e55404c9cb29244c06fd138</title>
<path fill="none" stroke="#9aa7b4" stroke-dasharray="1,5" d="M1444.19,-746.12C1457.32,-779.75 1477.99,-815.25 1510,-834.9 1547.5,-857.92 1566.44,-846.05 1609,-834.9 1701.74,-810.61 1796.04,-751.1 1854.74,-709.02"/>
<polygon fill="#9aa7b4" stroke="#9aa7b4" points="1856.57,-712.01 1862.62,-703.31 1852.47,-706.34 1856.57,-712.01"/>
</g>
<!-- 0c94354d0ec0427baa24bda9cb52d7d8&#45;&gt;bf3b5a3621b842b0b88de0db57a7ffd3 -->
<g id="edge28" class="edge">
<title>0c94354d0ec0427baa24bda9cb52d7d8&#45;&gt;bf3b5a3621b842b0b88de0db57a7ffd3</title>
<path fill="none" stroke="#9aa7b4" stroke-dasharray="1,5" d="M1401.81,-746.12C1388.68,-779.75 1368.01,-815.25 1336,-834.9 1263,-879.73 637.82,-880.02 565,-834.9 536.77,-817.41 518.36,-786.99 506.42,-756.59"/>
<polygon fill="#9aa7b4" stroke="#9aa7b4" points="509.73,-755.44 502.98,-747.27 503.16,-757.86 509.73,-755.44"/>
</g>
<!-- 0c94354d0ec0427baa24bda9cb52d7d8&#45;&gt;29857655341c4647a6e92d558f647aea -->
<g id="edge30" class="edge">
<title>0c94354d0ec0427baa24bda9cb52d7d8&#45;&gt;29857655341c4647a6e92d558f647aea</title>
<path fill="none" stroke="#9aa7b4" stroke-dasharray="1,5" d="M1401.81,-746.12C1388.68,-779.75 1368.01,-815.25 1336,-834.9 1246.24,-890.02 1196.9,-873.76 1099,-834.9 1050.25,-815.55 1006.98,-776.27 974.87,-740.17"/>
<polygon fill="#9aa7b4" stroke="#9aa7b4" points="977.57,-737.95 968.36,-732.71 972.29,-742.55 977.57,-737.95"/>
</g>
<!-- 96af2b19759f47aa8d8654f66e23bd3f -->
<g id="node5" class="node">
<title>96af2b19759f47aa8d8654f66e23bd3f</title>
<image xlink:href="C:\Users\USER\AppData\Local\Programs\Python\Python312\Lib\site-packages\resources/azure/identity\active-directory.png" width="100.8px" height="100.8px" preserveAspectRatio="xMinYMin meet" x="1509.6" y="-713.8"/>
<text xml:space="preserve" text-anchor="middle" x="1560" y="-597.7" font-family="Sans-Serif" font-size="12.00" fill="#2d3436">Entra ID + PIM</text>
<text xml:space="preserve" text-anchor="middle" x="1560" y="-583.45" font-family="Sans-Serif" font-size="12.00" fill="#2d3436">platform admin · break&#45;glass</text>
</g>
<!-- ce7e1fc37e55404c9cb29244c06fd138&#45;&gt;d15bbe0451504138adf1ee63f40eb49f -->
<g id="edge25" class="edge">
<title>ce7e1fc37e55404c9cb29244c06fd138&#45;&gt;d15bbe0451504138adf1ee63f40eb49f</title>
<path fill="none" stroke="#9aa7b4" stroke-dasharray="5,2" d="M1863.64,-693.97C1808.03,-725.79 1714.73,-773.54 1627,-792.34 1567.9,-805.01 1406.85,-823.4 1355,-792.34 1340.26,-783.51 1328.49,-770.34 1319.15,-755.74"/>
<polygon fill="#9aa7b4" stroke="#9aa7b4" points="1322.24,-754.09 1314.13,-747.27 1316.22,-757.66 1322.24,-754.09"/>
<text xml:space="preserve" text-anchor="middle" x="1460" y="-811.75" font-family="Sans-Serif" font-size="13.00" fill="#2d3436">One Edu ID · mTLS (no PII)</text>
</g>
<!-- a6d2e6a4f8784856bec5ccccdf63802f -->
<g id="node7" class="node">
<title>a6d2e6a4f8784856bec5ccccdf63802f</title>
<image xlink:href="C:\Users\USER\AppData\Local\Programs\Python\Python312\Lib\site-packages\resources/azure/database\sql-databases.png" width="100.8px" height="100.8px" preserveAspectRatio="xMinYMin meet" x="1863.6" y="-425.3"/>
<text xml:space="preserve" text-anchor="middle" x="1914" y="-309.2" font-family="Sans-Serif" font-size="12.00" fill="#2d3436">Azure SQL</text>
<text xml:space="preserve" text-anchor="middle" x="1914" y="-294.95" font-family="Sans-Serif" font-size="12.00" fill="#2d3436">multi&#45;tenant</text>
</g>
<!-- ce7e1fc37e55404c9cb29244c06fd138&#45;&gt;a6d2e6a4f8784856bec5ccccdf63802f -->
<g id="edge3" class="edge">
<title>ce7e1fc37e55404c9cb29244c06fd138&#45;&gt;a6d2e6a4f8784856bec5ccccdf63802f</title>
<path fill="none" stroke="#1f7a3d" d="M1914,-580.68C1914,-545.61 1914,-504.46 1914,-468.28"/>
<polygon fill="#1f7a3d" stroke="#1f7a3d" points="1917.5,-468.74 1914,-458.74 1910.5,-468.74 1917.5,-468.74"/>
</g>
<!-- 214909b4e4a34c8082e91fa80d3e8747 -->
<g id="node8" class="node">
<title>214909b4e4a34c8082e91fa80d3e8747</title>
<image xlink:href="C:\Users\USER\AppData\Local\Programs\Python\Python312\Lib\site-packages\resources/azure/storage\blob-storage.png" width="100.8px" height="100.8px" preserveAspectRatio="xMinYMin meet" x="2000.6" y="-425.3"/>
<text xml:space="preserve" text-anchor="middle" x="2051" y="-309.2" font-family="Sans-Serif" font-size="12.00" fill="#2d3436">Blob</text>
<text xml:space="preserve" text-anchor="middle" x="2051" y="-294.95" font-family="Sans-Serif" font-size="12.00" fill="#2d3436">per&#45;tenant containers</text>
</g>
<!-- ce7e1fc37e55404c9cb29244c06fd138&#45;&gt;214909b4e4a34c8082e91fa80d3e8747 -->
<g id="edge4" class="edge">
<title>ce7e1fc37e55404c9cb29244c06fd138&#45;&gt;214909b4e4a34c8082e91fa80d3e8747</title>
<path fill="none" stroke="#1f7a3d" d="M1953.08,-580.68C1969.99,-545.31 1989.86,-503.75 2007.27,-467.35"/>
<polygon fill="#1f7a3d" stroke="#1f7a3d" points="2010.3,-469.13 2011.46,-458.59 2003.99,-466.11 2010.3,-469.13"/>
</g>
<!-- 28dd98482f0b4fdfb16b54c881425022 -->
<g id="node9" class="node">
<title>28dd98482f0b4fdfb16b54c881425022</title>
<image xlink:href="C:\Users\USER\AppData\Local\Programs\Python\Python312\Lib\site-packages\resources/azure/security\key-vaults.png" width="100.8px" height="100.8px" preserveAspectRatio="xMinYMin meet" x="2137.6" y="-425.3"/>
<text xml:space="preserve" text-anchor="middle" x="2188" y="-309.2" font-family="Sans-Serif" font-size="12.00" fill="#2d3436">Key Vault</text>
<text xml:space="preserve" text-anchor="middle" x="2188" y="-294.95" font-family="Sans-Serif" font-size="12.00" fill="#2d3436">per&#45;tenant keys</text>
</g>
<!-- ce7e1fc37e55404c9cb29244c06fd138&#45;&gt;28dd98482f0b4fdfb16b54c881425022 -->
<g id="edge5" class="edge">
<title>ce7e1fc37e55404c9cb29244c06fd138&#45;&gt;28dd98482f0b4fdfb16b54c881425022</title>
<path fill="none" stroke="#1f7a3d" d="M1964.23,-634.23C2009.21,-607.05 2074.7,-562.43 2119,-510.2 2129.92,-497.33 2139.71,-482.43 2148.25,-467.35"/>
<polygon fill="#1f7a3d" stroke="#1f7a3d" points="2151.22,-469.21 2152.95,-458.75 2145.08,-465.85 2151.22,-469.21"/>
</g>
<!-- b784fe1177024bc3b97d2d58613f8e3b -->
<g id="node10" class="node">
<title>b784fe1177024bc3b97d2d58613f8e3b</title>
<image xlink:href="C:\Users\USER\AppData\Local\Programs\Python\Python312\Lib\site-packages\resources/azure/ml\azure-open-ai.png" width="100.8px" height="100.8px" preserveAspectRatio="xMinYMin meet" x="2274.6" y="-425.3"/>
<text xml:space="preserve" text-anchor="middle" x="2325" y="-309.2" font-family="Sans-Serif" font-size="12.00" fill="#2d3436">Azure OpenAI</text>
<text xml:space="preserve" text-anchor="middle" x="2325" y="-294.95" font-family="Sans-Serif" font-size="12.00" fill="#2d3436">in&#45;region inference</text>
</g>
<!-- ce7e1fc37e55404c9cb29244c06fd138&#45;&gt;b784fe1177024bc3b97d2d58613f8e3b -->
<g id="edge6" class="edge">
<title>ce7e1fc37e55404c9cb29244c06fd138&#45;&gt;b784fe1177024bc3b97d2d58613f8e3b</title>
<path fill="none" stroke="#1f7a3d" d="M1964.15,-651.19C2036.33,-632.81 2170.14,-590.06 2255,-510.2 2267.92,-498.04 2278.9,-482.95 2288.05,-467.33"/>
<polygon fill="#1f7a3d" stroke="#1f7a3d" points="2290.95,-469.32 2292.78,-458.88 2284.84,-465.9 2290.95,-469.32"/>
</g>
<!-- c160ea7816db4ac3bc0a7e34ffbd43f0 -->
<g id="node11" class="node">
<title>c160ea7816db4ac3bc0a7e34ffbd43f0</title>
<image xlink:href="C:\Users\USER\AppData\Local\Programs\Python\Python312\Lib\site-packages\resources/azure/storage\recovery-services-vaults.png" width="100.8px" height="100.8px" preserveAspectRatio="xMinYMin meet" x="1863.6" y="-149.2"/>
<text xml:space="preserve" text-anchor="middle" x="1914" y="-33.1" font-family="Sans-Serif" font-size="12.00" fill="#2d3436">DR pair (same jurisdiction)</text>
<text xml:space="preserve" text-anchor="middle" x="1914" y="-18.85" font-family="Sans-Serif" font-size="12.00" fill="#2d3436">HA + geo&#45;restore</text>
</g>
<!-- a6d2e6a4f8784856bec5ccccdf63802f&#45;&gt;c160ea7816db4ac3bc0a7e34ffbd43f0 -->
<g id="edge7" class="edge">
<title>a6d2e6a4f8784856bec5ccccdf63802f&#45;&gt;c160ea7816db4ac3bc0a7e34ffbd43f0</title>
<path fill="none" stroke="#1f7a3d" stroke-dasharray="1,5" d="M1914,-292.4C1914,-261.06 1914,-225.06 1914,-192.73"/>
<polygon fill="#1f7a3d" stroke="#1f7a3d" points="1917.5,-192.97 1914,-182.97 1910.5,-192.97 1917.5,-192.97"/>
<text xml:space="preserve" text-anchor="middle" x="1952.25" y="-232.75" font-family="Sans-Serif" font-size="13.00" fill="#2d3436">geo&#45;restore</text>
</g>
<!-- ba00a4d9413b4786a4a753e91e04038c -->
<g id="node12" class="node">
<title>ba00a4d9413b4786a4a753e91e04038c</title>
<image xlink:href="C:\Users\USER\AppData\Local\Programs\Python\Python312\Lib\site-packages\resources/azure/general\resourcegroups.png" width="100.8px" height="100.8px" preserveAspectRatio="xMinYMin meet" x="1855.6" y="-1004.3"/>
<text xml:space="preserve" text-anchor="middle" x="1906" y="-888.35" font-family="Sans-Serif" font-size="12.00" fill="#2d3436">Tenant A</text>
</g>
<!-- ba00a4d9413b4786a4a753e91e04038c&#45;&gt;ce7e1fc37e55404c9cb29244c06fd138 -->
<g id="edge8" class="edge">
<title>ba00a4d9413b4786a4a753e91e04038c&#45;&gt;ce7e1fc37e55404c9cb29244c06fd138</title>
<path fill="none" stroke="#b0792f" stroke-dasharray="1,5" d="M1900.11,-885.77C1898.62,-865.93 1897.24,-844.15 1896.5,-824.1 1895.7,-802.38 1897.01,-779.09 1899.22,-757.19"/>
<polygon fill="#b0792f" stroke="#b0792f" points="1902.68,-757.71 1900.28,-747.39 1895.72,-756.95 1902.68,-757.71"/>
<text xml:space="preserve" text-anchor="middle" x="1961.75" y="-811.75" font-family="Sans-Serif" font-size="13.00" fill="#2d3436">isolated institutions</text>
</g>
<!-- 7435269a145b4f31a5744bda2518a027 -->
<g id="node13" class="node">
<title>7435269a145b4f31a5744bda2518a027</title>
<image xlink:href="C:\Users\USER\AppData\Local\Programs\Python\Python312\Lib\site-packages\resources/azure/general\resourcegroups.png" width="100.8px" height="100.8px" preserveAspectRatio="xMinYMin meet" x="2021.6" y="-1004.3"/>
<text xml:space="preserve" text-anchor="middle" x="2072" y="-888.35" font-family="Sans-Serif" font-size="12.00" fill="#2d3436">Tenant B</text>
</g>
<!-- 7435269a145b4f31a5744bda2518a027&#45;&gt;ce7e1fc37e55404c9cb29244c06fd138 -->
<g id="edge9" class="edge">
<title>7435269a145b4f31a5744bda2518a027&#45;&gt;ce7e1fc37e55404c9cb29244c06fd138</title>
<path fill="none" stroke="#b0792f" stroke-dasharray="1,5" d="M2059.7,-885.6C2053.49,-860.26 2044.54,-831.75 2032,-807.6 2016.26,-777.29 1993.33,-747.53 1971.85,-723.06"/>
<polygon fill="#b0792f" stroke="#b0792f" points="1974.61,-720.9 1965.34,-715.76 1969.39,-725.56 1974.61,-720.9"/>
<text xml:space="preserve" text-anchor="middle" x="2104.25" y="-811.75" font-family="Sans-Serif" font-size="13.00" fill="#2d3436">isolated institutions</text>
</g>
<!-- 70c12a1ee8454dd69091f85c95c31f7d -->
<g id="node14" class="node">
<title>70c12a1ee8454dd69091f85c95c31f7d</title>
<image xlink:href="C:\Users\USER\AppData\Local\Programs\Python\Python312\Lib\site-packages\resources/azure/general\resourcegroups.png" width="100.8px" height="100.8px" preserveAspectRatio="xMinYMin meet" x="2193.6" y="-1004.3"/>
<text xml:space="preserve" text-anchor="middle" x="2244" y="-888.35" font-family="Sans-Serif" font-size="12.00" fill="#2d3436">Tenant C</text>
</g>
<!-- 70c12a1ee8454dd69091f85c95c31f7d&#45;&gt;ce7e1fc37e55404c9cb29244c06fd138 -->
<g id="edge10" class="edge">
<title>70c12a1ee8454dd69091f85c95c31f7d&#45;&gt;ce7e1fc37e55404c9cb29244c06fd138</title>
<path fill="none" stroke="#b0792f" stroke-dasharray="1,5" d="M2223.93,-885.68C2213.47,-859.04 2198.49,-829.59 2178,-807.6 2121.53,-747 2033.48,-706.46 1974.79,-684.43"/>
<polygon fill="#b0792f" stroke="#b0792f" points="1976.21,-681.22 1965.61,-681.05 1973.79,-687.79 1976.21,-681.22"/>
<text xml:space="preserve" text-anchor="middle" x="2254.27" y="-811.75" font-family="Sans-Serif" font-size="13.00" fill="#2d3436">isolated institutions</text>
</g>
<!-- bf3b5a3621b842b0b88de0db57a7ffd3&#45;&gt;d15bbe0451504138adf1ee63f40eb49f -->
<g id="edge27" class="edge">
<title>bf3b5a3621b842b0b88de0db57a7ffd3&#45;&gt;d15bbe0451504138adf1ee63f40eb49f</title>
<path fill="none" stroke="#9aa7b4" stroke-dasharray="5,2" d="M508.09,-746.1C517.2,-764.37 529.76,-781.5 547,-792.34 610.02,-831.97 1153.14,-830.6 1217,-792.34 1231.74,-783.51 1243.51,-770.34 1252.85,-755.74"/>
<polygon fill="#9aa7b4" stroke="#9aa7b4" points="1255.78,-757.66 1257.87,-747.27 1249.76,-754.09 1255.78,-757.66"/>
<text xml:space="preserve" text-anchor="middle" x="786" y="-811.75" font-family="Sans-Serif" font-size="13.00" fill="#2d3436">One Edu ID · mTLS (no PII)</text>
</g>
<!-- d69b6bf5bcf04b1b94fdda6f381215f0 -->
<g id="node16" class="node">
<title>d69b6bf5bcf04b1b94fdda6f381215f0</title>
<image xlink:href="C:\Users\USER\AppData\Local\Programs\Python\Python312\Lib\site-packages\resources/azure/database\sql-databases.png" width="100.8px" height="100.8px" preserveAspectRatio="xMinYMin meet" x="23.6" y="-425.3"/>
<text xml:space="preserve" text-anchor="middle" x="74" y="-309.2" font-family="Sans-Serif" font-size="12.00" fill="#2d3436">Azure SQL</text>
<text xml:space="preserve" text-anchor="middle" x="74" y="-294.95" font-family="Sans-Serif" font-size="12.00" fill="#2d3436">multi&#45;tenant</text>
</g>
<!-- bf3b5a3621b842b0b88de0db57a7ffd3&#45;&gt;d69b6bf5bcf04b1b94fdda6f381215f0 -->
<g id="edge11" class="edge">
<title>bf3b5a3621b842b0b88de0db57a7ffd3&#45;&gt;d69b6bf5bcf04b1b94fdda6f381215f0</title>
<path fill="none" stroke="#1f7a3d" d="M434.64,-651.3C362.17,-633.05 227.88,-590.46 143,-510.2 130.15,-498.04 119.27,-482.96 110.23,-467.34"/>
<polygon fill="#1f7a3d" stroke="#1f7a3d" points="113.46,-465.96 105.57,-458.9 107.34,-469.34 113.46,-465.96"/>
</g>
<!-- d0d9c04ef4674f02b1c137cd85c7f56e -->
<g id="node17" class="node">
<title>d0d9c04ef4674f02b1c137cd85c7f56e</title>
<image xlink:href="C:\Users\USER\AppData\Local\Programs\Python\Python312\Lib\site-packages\resources/azure/storage\blob-storage.png" width="100.8px" height="100.8px" preserveAspectRatio="xMinYMin meet" x="160.6" y="-425.3"/>
<text xml:space="preserve" text-anchor="middle" x="211" y="-309.2" font-family="Sans-Serif" font-size="12.00" fill="#2d3436">Blob</text>
<text xml:space="preserve" text-anchor="middle" x="211" y="-294.95" font-family="Sans-Serif" font-size="12.00" fill="#2d3436">per&#45;tenant containers</text>
</g>
<!-- bf3b5a3621b842b0b88de0db57a7ffd3&#45;&gt;d0d9c04ef4674f02b1c137cd85c7f56e -->
<g id="edge12" class="edge">
<title>bf3b5a3621b842b0b88de0db57a7ffd3&#45;&gt;d0d9c04ef4674f02b1c137cd85c7f56e</title>
<path fill="none" stroke="#1f7a3d" d="M434.77,-634.23C389.79,-607.05 324.3,-562.43 280,-510.2 269.08,-497.33 259.29,-482.43 250.75,-467.35"/>
<polygon fill="#1f7a3d" stroke="#1f7a3d" points="253.92,-465.85 246.05,-458.75 247.78,-469.21 253.92,-465.85"/>
</g>
<!-- 9295dbbfd5d14ffa8404d0941a4ccc5b -->
<g id="node18" class="node">
<title>9295dbbfd5d14ffa8404d0941a4ccc5b</title>
<image xlink:href="C:\Users\USER\AppData\Local\Programs\Python\Python312\Lib\site-packages\resources/azure/security\key-vaults.png" width="100.8px" height="100.8px" preserveAspectRatio="xMinYMin meet" x="297.6" y="-425.3"/>
<text xml:space="preserve" text-anchor="middle" x="348" y="-309.2" font-family="Sans-Serif" font-size="12.00" fill="#2d3436">Key Vault</text>
<text xml:space="preserve" text-anchor="middle" x="348" y="-294.95" font-family="Sans-Serif" font-size="12.00" fill="#2d3436">per&#45;tenant keys</text>
</g>
<!-- bf3b5a3621b842b0b88de0db57a7ffd3&#45;&gt;9295dbbfd5d14ffa8404d0941a4ccc5b -->
<g id="edge13" class="edge">
<title>bf3b5a3621b842b0b88de0db57a7ffd3&#45;&gt;9295dbbfd5d14ffa8404d0941a4ccc5b</title>
<path fill="none" stroke="#1f7a3d" d="M438.2,-580.76C425.88,-558.18 412.98,-533.47 402,-510.2 395.62,-496.67 389.28,-482.16 383.31,-467.87"/>
<polygon fill="#1f7a3d" stroke="#1f7a3d" points="386.67,-466.83 379.62,-458.92 380.2,-469.5 386.67,-466.83"/>
</g>
<!-- 86a2f96be839440a96a20732f48c4277 -->
<g id="node19" class="node">
<title>86a2f96be839440a96a20732f48c4277</title>
<image xlink:href="C:\Users\USER\AppData\Local\Programs\Python\Python312\Lib\site-packages\resources/azure/ml\azure-open-ai.png" width="100.8px" height="100.8px" preserveAspectRatio="xMinYMin meet" x="434.6" y="-425.3"/>
<text xml:space="preserve" text-anchor="middle" x="485" y="-309.2" font-family="Sans-Serif" font-size="12.00" fill="#2d3436">Azure OpenAI</text>
<text xml:space="preserve" text-anchor="middle" x="485" y="-294.95" font-family="Sans-Serif" font-size="12.00" fill="#2d3436">in&#45;region inference</text>
</g>
<!-- bf3b5a3621b842b0b88de0db57a7ffd3&#45;&gt;86a2f96be839440a96a20732f48c4277 -->
<g id="edge14" class="edge">
<title>bf3b5a3621b842b0b88de0db57a7ffd3&#45;&gt;86a2f96be839440a96a20732f48c4277</title>
<path fill="none" stroke="#1f7a3d" d="M485,-580.68C485,-545.61 485,-504.46 485,-468.28"/>
<polygon fill="#1f7a3d" stroke="#1f7a3d" points="488.5,-468.74 485,-458.74 481.5,-468.74 488.5,-468.74"/>
</g>
<!-- 065cfae5b5c44ca2abc16dfee6ea6800 -->
<g id="node20" class="node">
<title>065cfae5b5c44ca2abc16dfee6ea6800</title>
<image xlink:href="C:\Users\USER\AppData\Local\Programs\Python\Python312\Lib\site-packages\resources/azure/storage\recovery-services-vaults.png" width="100.8px" height="100.8px" preserveAspectRatio="xMinYMin meet" x="23.6" y="-149.2"/>
<text xml:space="preserve" text-anchor="middle" x="74" y="-33.1" font-family="Sans-Serif" font-size="12.00" fill="#2d3436">DR pair (same jurisdiction)</text>
<text xml:space="preserve" text-anchor="middle" x="74" y="-18.85" font-family="Sans-Serif" font-size="12.00" fill="#2d3436">HA + geo&#45;restore</text>
</g>
<!-- d69b6bf5bcf04b1b94fdda6f381215f0&#45;&gt;065cfae5b5c44ca2abc16dfee6ea6800 -->
<g id="edge15" class="edge">
<title>d69b6bf5bcf04b1b94fdda6f381215f0&#45;&gt;065cfae5b5c44ca2abc16dfee6ea6800</title>
<path fill="none" stroke="#1f7a3d" stroke-dasharray="1,5" d="M74,-292.4C74,-261.06 74,-225.06 74,-192.73"/>
<polygon fill="#1f7a3d" stroke="#1f7a3d" points="77.5,-192.97 74,-182.97 70.5,-192.97 77.5,-192.97"/>
<text xml:space="preserve" text-anchor="middle" x="112.25" y="-232.75" font-family="Sans-Serif" font-size="13.00" fill="#2d3436">geo&#45;restore</text>
</g>
<!-- 29857655341c4647a6e92d558f647aea&#45;&gt;d15bbe0451504138adf1ee63f40eb49f -->
<g id="edge29" class="edge">
<title>29857655341c4647a6e92d558f647aea&#45;&gt;d15bbe0451504138adf1ee63f40eb49f</title>
<path fill="none" stroke="#9aa7b4" stroke-dasharray="5,2" d="M967.2,-717.5C997.15,-745.7 1037.7,-777.36 1081,-792.34 1138.12,-812.11 1165.15,-823.4 1217,-792.34 1231.74,-783.51 1243.51,-770.34 1252.85,-755.74"/>
<polygon fill="#9aa7b4" stroke="#9aa7b4" points="1255.78,-757.66 1257.87,-747.27 1249.76,-754.09 1255.78,-757.66"/>
<text xml:space="preserve" text-anchor="middle" x="1112" y="-811.75" font-family="Sans-Serif" font-size="13.00" fill="#2d3436">One Edu ID · mTLS (no PII)</text>
</g>
<!-- 5127b143e97e4923a6cd3e9ef0b96d3b -->
<g id="node22" class="node">
<title>5127b143e97e4923a6cd3e9ef0b96d3b</title>
<image xlink:href="C:\Users\USER\AppData\Local\Programs\Python\Python312\Lib\site-packages\resources/azure/database\sql-databases.png" width="100.8px" height="100.8px" preserveAspectRatio="xMinYMin meet" x="571.6" y="-425.3"/>
<text xml:space="preserve" text-anchor="middle" x="622" y="-309.2" font-family="Sans-Serif" font-size="12.00" fill="#2d3436">Azure SQL</text>
<text xml:space="preserve" text-anchor="middle" x="622" y="-294.95" font-family="Sans-Serif" font-size="12.00" fill="#2d3436">multi&#45;tenant</text>
</g>
<!-- 29857655341c4647a6e92d558f647aea&#45;&gt;5127b143e97e4923a6cd3e9ef0b96d3b -->
<g id="edge16" class="edge">
<title>29857655341c4647a6e92d558f647aea&#45;&gt;5127b143e97e4923a6cd3e9ef0b96d3b</title>
<path fill="none" stroke="#1f7a3d" d="M866.7,-638.11C816.98,-612.09 741.27,-566.78 691,-510.2 679.72,-497.5 669.73,-482.62 661.09,-467.49"/>
<polygon fill="#1f7a3d" stroke="#1f7a3d" points="664.23,-465.93 656.35,-458.85 658.1,-469.3 664.23,-465.93"/>
</g>
<!-- fe02a0f6af0143758d4c15fc6b76db10 -->
<g id="node23" class="node">
<title>fe02a0f6af0143758d4c15fc6b76db10</title>
<image xlink:href="C:\Users\USER\AppData\Local\Programs\Python\Python312\Lib\site-packages\resources/azure/storage\blob-storage.png" width="100.8px" height="100.8px" preserveAspectRatio="xMinYMin meet" x="708.6" y="-425.3"/>
<text xml:space="preserve" text-anchor="middle" x="759" y="-309.2" font-family="Sans-Serif" font-size="12.00" fill="#2d3436">Blob</text>
<text xml:space="preserve" text-anchor="middle" x="759" y="-294.95" font-family="Sans-Serif" font-size="12.00" fill="#2d3436">per&#45;tenant containers</text>
</g>
<!-- 29857655341c4647a6e92d558f647aea&#45;&gt;fe02a0f6af0143758d4c15fc6b76db10 -->
<g id="edge17" class="edge">
<title>29857655341c4647a6e92d558f647aea&#45;&gt;fe02a0f6af0143758d4c15fc6b76db10</title>
<path fill="none" stroke="#1f7a3d" d="M868.14,-580.72C854.86,-558.03 840.66,-533.28 828,-510.2 820.47,-496.48 812.7,-481.85 805.21,-467.48"/>
<polygon fill="#1f7a3d" stroke="#1f7a3d" points="808.48,-466.2 800.77,-458.94 802.27,-469.42 808.48,-466.2"/>
</g>
<!-- e37eb472eae047c0a72a6428252bc24b -->
<g id="node24" class="node">
<title>e37eb472eae047c0a72a6428252bc24b</title>
<image xlink:href="C:\Users\USER\AppData\Local\Programs\Python\Python312\Lib\site-packages\resources/azure/security\key-vaults.png" width="100.8px" height="100.8px" preserveAspectRatio="xMinYMin meet" x="845.6" y="-425.3"/>
<text xml:space="preserve" text-anchor="middle" x="896" y="-309.2" font-family="Sans-Serif" font-size="12.00" fill="#2d3436">Key Vault</text>
<text xml:space="preserve" text-anchor="middle" x="896" y="-294.95" font-family="Sans-Serif" font-size="12.00" fill="#2d3436">per&#45;tenant keys</text>
</g>
<!-- 29857655341c4647a6e92d558f647aea&#45;&gt;e37eb472eae047c0a72a6428252bc24b -->
<g id="edge18" class="edge">
<title>29857655341c4647a6e92d558f647aea&#45;&gt;e37eb472eae047c0a72a6428252bc24b</title>
<path fill="none" stroke="#1f7a3d" d="M911.01,-580.68C908.44,-545.61 905.42,-504.46 902.77,-468.28"/>
<polygon fill="#1f7a3d" stroke="#1f7a3d" points="906.29,-468.46 902.07,-458.74 899.31,-468.97 906.29,-468.46"/>
</g>
<!-- 3e63691b12ea4fbd8a8869953d132d64 -->
<g id="node25" class="node">
<title>3e63691b12ea4fbd8a8869953d132d64</title>
<image xlink:href="C:\Users\USER\AppData\Local\Programs\Python\Python312\Lib\site-packages\resources/azure/ml\azure-open-ai.png" width="100.8px" height="100.8px" preserveAspectRatio="xMinYMin meet" x="982.6" y="-425.3"/>
<text xml:space="preserve" text-anchor="middle" x="1033" y="-309.2" font-family="Sans-Serif" font-size="12.00" fill="#2d3436">Azure OpenAI</text>
<text xml:space="preserve" text-anchor="middle" x="1033" y="-294.95" font-family="Sans-Serif" font-size="12.00" fill="#2d3436">in&#45;region inference</text>
</g>
<!-- 29857655341c4647a6e92d558f647aea&#45;&gt;3e63691b12ea4fbd8a8869953d132d64 -->
<g id="edge19" class="edge">
<title>29857655341c4647a6e92d558f647aea&#45;&gt;3e63691b12ea4fbd8a8869953d132d64</title>
<path fill="none" stroke="#1f7a3d" d="M950.09,-580.68C964.35,-545.46 981.09,-504.11 995.78,-467.82"/>
<polygon fill="#1f7a3d" stroke="#1f7a3d" points="998.99,-469.21 999.5,-458.63 992.51,-466.59 998.99,-469.21"/>
</g>
<!-- 3450193d64b64073b4dcbaf2111640e6 -->
<g id="node26" class="node">
<title>3450193d64b64073b4dcbaf2111640e6</title>
<image xlink:href="C:\Users\USER\AppData\Local\Programs\Python\Python312\Lib\site-packages\resources/azure/storage\recovery-services-vaults.png" width="100.8px" height="100.8px" preserveAspectRatio="xMinYMin meet" x="571.6" y="-149.2"/>
<text xml:space="preserve" text-anchor="middle" x="622" y="-33.1" font-family="Sans-Serif" font-size="12.00" fill="#2d3436">DR pair (same jurisdiction)</text>
<text xml:space="preserve" text-anchor="middle" x="622" y="-18.85" font-family="Sans-Serif" font-size="12.00" fill="#2d3436">HA + geo&#45;restore</text>
</g>
<!-- 5127b143e97e4923a6cd3e9ef0b96d3b&#45;&gt;3450193d64b64073b4dcbaf2111640e6 -->
<g id="edge20" class="edge">
<title>5127b143e97e4923a6cd3e9ef0b96d3b&#45;&gt;3450193d64b64073b4dcbaf2111640e6</title>
<path fill="none" stroke="#1f7a3d" stroke-dasharray="1,5" d="M622,-292.4C622,-261.06 622,-225.06 622,-192.73"/>
<polygon fill="#1f7a3d" stroke="#1f7a3d" points="625.5,-192.97 622,-182.97 618.5,-192.97 625.5,-192.97"/>
<text xml:space="preserve" text-anchor="middle" x="660.25" y="-232.75" font-family="Sans-Serif" font-size="13.00" fill="#2d3436">geo&#45;restore</text>
</g>
</g>
</svg>
