<?xml version="1.0" encoding="UTF-8" standalone="no"?>
<!DOCTYPE svg PUBLIC "-//W3C//DTD SVG 1.1//EN"
 "http://www.w3.org/Graphics/SVG/1.1/DTD/svg11.dtd">
<!-- Generated by graphviz version 15.0.0 (20260523.1842)
 -->
<!-- Title: One Edu &#160;— &#160;Azure Reference Architecture &#160;(App Service · single region) Pages: 1 -->
<svg width="2537pt" height="1427pt"
 viewBox="0.00 0.00 2537.00 1427.00" xmlns="http://www.w3.org/2000/svg" xmlns:xlink="http://www.w3.org/1999/xlink">
<g id="graph0" class="graph" transform="scale(1 1) rotate(0) translate(50.4 1376.9)">
<title>One Edu &#160;— &#160;Azure Reference Architecture &#160;(App Service · single region)</title>
<polygon fill="white" stroke="none" points="-50.4,50.4 -50.4,-1376.9 2486.8,-1376.9 2486.8,50.4 -50.4,50.4"/>
<text xml:space="preserve" text-anchor="middle" x="1218.2" y="-1301.6" font-family="Sans-Serif" font-size="22.00" fill="#2d3436">One Edu &#160;— &#160;Azure Reference Architecture &#160;(App Service · single region)</text>
<g id="clust1" class="cluster">
<title>cluster_Users / Clients</title>
<path fill="#e5f5fd" stroke="#aeb6be" d="M226.4,-536.2C226.4,-536.2 600.4,-536.2 600.4,-536.2 606.4,-536.2 612.4,-542.2 612.4,-548.2 612.4,-548.2 612.4,-728.05 612.4,-728.05 612.4,-734.05 606.4,-740.05 600.4,-740.05 600.4,-740.05 226.4,-740.05 226.4,-740.05 220.4,-740.05 214.4,-734.05 214.4,-728.05 214.4,-728.05 214.4,-548.2 214.4,-548.2 214.4,-542.2 220.4,-536.2 226.4,-536.2"/>
<text xml:space="preserve" text-anchor="middle" x="264.77" y="-724.65" font-family="Sans-Serif" font-size="12.00" fill="#2d3436">Users / Clients</text>
</g>
<g id="clust2" class="cluster">
<title>cluster_Edge</title>
<path fill="#e5f5fd" stroke="#aeb6be" d="M226.4,-264.1C226.4,-264.1 318.4,-264.1 318.4,-264.1 324.4,-264.1 330.4,-270.1 330.4,-276.1 330.4,-276.1 330.4,-455.95 330.4,-455.95 330.4,-461.95 324.4,-467.95 318.4,-467.95 318.4,-467.95 226.4,-467.95 226.4,-467.95 220.4,-467.95 214.4,-461.95 214.4,-455.95 214.4,-455.95 214.4,-276.1 214.4,-276.1 214.4,-270.1 220.4,-264.1 226.4,-264.1"/>
<text xml:space="preserve" text-anchor="middle" x="237.4" y="-452.55" font-family="Sans-Serif" font-size="12.00" fill="#2d3436">Edge</text>
</g>
<g id="clust3" class="cluster">
<title>cluster_Application tier (VNet)</title>
<path fill="#e5f5fd" stroke="#aeb6be" d="M1266.4,-1080.4C1266.4,-1080.4 1390.4,-1080.4 1390.4,-1080.4 1396.4,-1080.4 1402.4,-1086.4 1402.4,-1092.4 1402.4,-1092.4 1402.4,-1272.25 1402.4,-1272.25 1402.4,-1278.25 1396.4,-1284.25 1390.4,-1284.25 1390.4,-1284.25 1266.4,-1284.25 1266.4,-1284.25 1260.4,-1284.25 1254.4,-1278.25 1254.4,-1272.25 1254.4,-1272.25 1254.4,-1092.4 1254.4,-1092.4 1254.4,-1086.4 1260.4,-1080.4 1266.4,-1080.4"/>
<text xml:space="preserve" text-anchor="middle" x="1328.4" y="-1268.85" font-family="Sans-Serif" font-size="12.00" fill="#2d3436">Application tier (VNet)</text>
</g>
<g id="clust4" class="cluster">
<title>cluster_Data tier (Private Endpoints)</title>
<path fill="#e5f5fd" stroke="#aeb6be" d="M1478.4,-808.3C1478.4,-808.3 1852.4,-808.3 1852.4,-808.3 1858.4,-808.3 1864.4,-814.3 1864.4,-820.3 1864.4,-820.3 1864.4,-1000.15 1864.4,-1000.15 1864.4,-1006.15 1858.4,-1012.15 1852.4,-1012.15 1852.4,-1012.15 1478.4,-1012.15 1478.4,-1012.15 1472.4,-1012.15 1466.4,-1006.15 1466.4,-1000.15 1466.4,-1000.15 1466.4,-820.3 1466.4,-820.3 1466.4,-814.3 1472.4,-808.3 1478.4,-808.3"/>
<text xml:space="preserve" text-anchor="middle" x="1558.78" y="-996.75" font-family="Sans-Serif" font-size="12.00" fill="#2d3436">Data tier (Private Endpoints)</text>
</g>
<g id="clust5" class="cluster">
<title>cluster_Security &amp; Observability</title>
<path fill="#e5f5fd" stroke="#aeb6be" d="M1901.4,-536.2C1901.4,-536.2 2134.4,-536.2 2134.4,-536.2 2140.4,-536.2 2146.4,-542.2 2146.4,-548.2 2146.4,-548.2 2146.4,-1000.15 2146.4,-1000.15 2146.4,-1006.15 2140.4,-1012.15 2134.4,-1012.15 2134.4,-1012.15 1901.4,-1012.15 1901.4,-1012.15 1895.4,-1012.15 1889.4,-1006.15 1889.4,-1000.15 1889.4,-1000.15 1889.4,-548.2 1889.4,-548.2 1889.4,-542.2 1895.4,-536.2 1901.4,-536.2"/>
<text xml:space="preserve" text-anchor="middle" x="1969.03" y="-996.75" font-family="Sans-Serif" font-size="12.00" fill="#2d3436">Security &amp; Observability</text>
</g>
<g id="clust6" class="cluster">
<title>cluster_External (non&#45;Azure)</title>
<path fill="#e5f5fd" stroke="#aeb6be" d="M2183.4,-808.3C2183.4,-808.3 2416.4,-808.3 2416.4,-808.3 2422.4,-808.3 2428.4,-814.3 2428.4,-820.3 2428.4,-820.3 2428.4,-1000.15 2428.4,-1000.15 2428.4,-1006.15 2422.4,-1012.15 2416.4,-1012.15 2416.4,-1012.15 2183.4,-1012.15 2183.4,-1012.15 2177.4,-1012.15 2171.4,-1006.15 2171.4,-1000.15 2171.4,-1000.15 2171.4,-820.3 2171.4,-820.3 2171.4,-814.3 2177.4,-808.3 2183.4,-808.3"/>
<text xml:space="preserve" text-anchor="middle" x="2240.15" y="-996.75" font-family="Sans-Serif" font-size="12.00" fill="#2d3436">External (non&#45;Azure)</text>
</g>
<g id="clust7" class="cluster">
<title>cluster_Phase 2 &#160;— &#160;activate when each module goes live</title>
<path fill="#fff6e6" stroke="#c8841e" stroke-width="2" stroke-dasharray="5,2" d="M632.4,-536.2C632.4,-536.2 1429.4,-536.2 1429.4,-536.2 1435.4,-536.2 1441.4,-542.2 1441.4,-548.2 1441.4,-548.2 1441.4,-1003.9 1441.4,-1003.9 1441.4,-1009.9 1435.4,-1015.9 1429.4,-1015.9 1429.4,-1015.9 632.4,-1015.9 632.4,-1015.9 626.4,-1015.9 620.4,-1009.9 620.4,-1003.9 620.4,-1003.9 620.4,-548.2 620.4,-548.2 620.4,-542.2 626.4,-536.2 632.4,-536.2"/>
<text xml:space="preserve" text-anchor="middle" x="813.27" y="-997.65" font-family="Sans-Serif" font-size="15.00" fill="#8a5a00">Phase 2 &#160;— &#160;activate when each module goes live</text>
</g>
<!-- fad98830490d4b6195d937bae5935b3a -->
<g id="node1" class="node">
<title>fad98830490d4b6195d937bae5935b3a</title>
<image xlink:href="C:\Users\USER\AppData\Local\Programs\Python\Python312\Lib\site-packages\resources/azure/general\mobile.png" width="100.8px" height="100.8px" preserveAspectRatio="xMinYMin meet" x="363" y="-677.4"/>
<text xml:space="preserve" text-anchor="middle" x="413.4" y="-561.3" font-family="Sans-Serif" font-size="12.00" fill="#2d3436">Mobile app</text>
<text xml:space="preserve" text-anchor="middle" x="413.4" y="-547.05" font-family="Sans-Serif" font-size="12.00" fill="#2d3436">(iOS / Android)</text>
</g>
<!-- 77726b07c0a345e2b38f82fe24b07da9 -->
<g id="node4" class="node">
<title>77726b07c0a345e2b38f82fe24b07da9</title>
<image xlink:href="C:\Users\USER\AppData\Local\Programs\Python\Python312\Lib\site-packages\resources/azure/network\front-doors.png" width="100.8px" height="100.8px" preserveAspectRatio="xMinYMin meet" x="222" y="-405.3"/>
<text xml:space="preserve" text-anchor="middle" x="272.4" y="-289.2" font-family="Sans-Serif" font-size="12.00" fill="#2d3436">Front Door + WAF</text>
<text xml:space="preserve" text-anchor="middle" x="272.4" y="-274.95" font-family="Sans-Serif" font-size="12.00" fill="#2d3436">TLS · routing · OWASP</text>
</g>
<!-- fad98830490d4b6195d937bae5935b3a&#45;&gt;77726b07c0a345e2b38f82fe24b07da9 -->
<g id="edge1" class="edge">
<title>fad98830490d4b6195d937bae5935b3a&#45;&gt;77726b07c0a345e2b38f82fe24b07da9</title>
<path fill="none" stroke="#5b6b7a" d="M370.71,-544.23C354.77,-513.69 336.56,-478.81 320.19,-447.45"/>
<polygon fill="#5b6b7a" stroke="#5b6b7a" points="323.37,-445.98 315.64,-438.74 317.17,-449.22 323.37,-445.98"/>
<text xml:space="preserve" text-anchor="middle" x="367.75" y="-486.85" font-family="Sans-Serif" font-size="13.00" fill="#2d3436">HTTPS</text>
</g>
<!-- 3cb744d52b884a01b1c35204254f0c36 -->
<g id="node2" class="node">
<title>3cb744d52b884a01b1c35204254f0c36</title>
<image xlink:href="C:\Users\USER\AppData\Local\Programs\Python\Python312\Lib\site-packages\resources/azure/general\browser.png" width="100.8px" height="100.8px" preserveAspectRatio="xMinYMin meet" x="504" y="-677.4"/>
<text xml:space="preserve" text-anchor="middle" x="554.4" y="-561.45" font-family="Sans-Serif" font-size="12.00" fill="#2d3436">Web app / PWA</text>
</g>
<!-- 3cb744d52b884a01b1c35204254f0c36&#45;&gt;77726b07c0a345e2b38f82fe24b07da9 -->
<g id="edge2" class="edge">
<title>3cb744d52b884a01b1c35204254f0c36&#45;&gt;77726b07c0a345e2b38f82fe24b07da9</title>
<path fill="none" stroke="#5b6b7a" d="M504.25,-559.52C497.48,-551.46 490.43,-543.5 483.4,-536.2 435.57,-486.51 375.26,-436.02 331.38,-401.16"/>
<polygon fill="#5b6b7a" stroke="#5b6b7a" points="333.76,-398.58 323.74,-395.12 329.42,-404.07 333.76,-398.58"/>
<text xml:space="preserve" text-anchor="middle" x="466.2" y="-486.85" font-family="Sans-Serif" font-size="13.00" fill="#2d3436">HTTPS</text>
</g>
<!-- 8da22b803c83448cb1fdb967089e73ff -->
<g id="node3" class="node">
<title>8da22b803c83448cb1fdb967089e73ff</title>
<image xlink:href="C:\Users\USER\AppData\Local\Programs\Python\Python312\Lib\site-packages\resources/azure/general\usericon.png" width="100.8px" height="100.8px" preserveAspectRatio="xMinYMin meet" x="222" y="-677.4"/>
<text xml:space="preserve" text-anchor="middle" x="272.4" y="-561.3" font-family="Sans-Serif" font-size="12.00" fill="#2d3436">Students · Parents</text>
<text xml:space="preserve" text-anchor="middle" x="272.4" y="-547.05" font-family="Sans-Serif" font-size="12.00" fill="#2d3436">Teachers · Admins</text>
</g>
<!-- 8da22b803c83448cb1fdb967089e73ff&#45;&gt;77726b07c0a345e2b38f82fe24b07da9 -->
<g id="edge3" class="edge">
<title>8da22b803c83448cb1fdb967089e73ff&#45;&gt;77726b07c0a345e2b38f82fe24b07da9</title>
<path fill="none" stroke="#5b6b7a" d="M272.4,-544.23C272.4,-514.08 272.4,-479.72 272.4,-448.67"/>
<polygon fill="#5b6b7a" stroke="#5b6b7a" points="275.9,-448.91 272.4,-438.91 268.9,-448.91 275.9,-448.91"/>
<text xml:space="preserve" text-anchor="middle" x="293.02" y="-486.85" font-family="Sans-Serif" font-size="13.00" fill="#2d3436">HTTPS</text>
</g>
<!-- f826c29dd56f4daaa4c099f3783b08ed -->
<g id="node5" class="node">
<title>f826c29dd56f4daaa4c099f3783b08ed</title>
<image xlink:href="C:\Users\USER\AppData\Local\Programs\Python\Python312\Lib\site-packages\resources/azure/identity\external-identities.png" width="100.8px" height="100.8px" preserveAspectRatio="xMinYMin meet" x="0" y="-133.2"/>
<text xml:space="preserve" text-anchor="middle" x="50.4" y="-17.1" font-family="Sans-Serif" font-size="12.00" fill="#2d3436">Entra External ID</text>
<text xml:space="preserve" text-anchor="middle" x="50.4" y="-2.85" font-family="Sans-Serif" font-size="12.00" fill="#2d3436">Sign&#45;in · MFA · OIDC/SAML</text>
</g>
<!-- 77726b07c0a345e2b38f82fe24b07da9&#45;&gt;f826c29dd56f4daaa4c099f3783b08ed -->
<g id="edge4" class="edge">
<title>77726b07c0a345e2b38f82fe24b07da9&#45;&gt;f826c29dd56f4daaa4c099f3783b08ed</title>
<path fill="none" stroke="#5b6b7a" d="M222.02,-292.61C188.03,-251.26 143.1,-196.59 107.74,-153.57"/>
<polygon fill="#5b6b7a" stroke="#5b6b7a" points="110.59,-151.52 101.54,-146.02 105.18,-155.96 110.59,-151.52"/>
<text xml:space="preserve" text-anchor="middle" x="224.31" y="-214.75" font-family="Sans-Serif" font-size="13.00" fill="#2d3436">federated sign&#45;in</text>
</g>
<!-- e14abed2de134b1f993be0f9809e3065 -->
<g id="node6" class="node">
<title>e14abed2de134b1f993be0f9809e3065</title>
<image xlink:href="C:\Users\USER\AppData\Local\Programs\Python\Python312\Lib\site-packages\resources/azure/web\app-services.png" width="100.8px" height="100.8px" preserveAspectRatio="xMinYMin meet" x="1278" y="-1221.6"/>
<text xml:space="preserve" text-anchor="middle" x="1328.4" y="-1105.5" font-family="Sans-Serif" font-size="12.00" fill="#2d3436">App Service (P1v3)</text>
<text xml:space="preserve" text-anchor="middle" x="1328.4" y="-1091.25" font-family="Sans-Serif" font-size="12.00" fill="#2d3436">SSR + API + workers</text>
</g>
<!-- 77726b07c0a345e2b38f82fe24b07da9&#45;&gt;e14abed2de134b1f993be0f9809e3065 -->
<g id="edge5" class="edge">
<title>77726b07c0a345e2b38f82fe24b07da9&#45;&gt;e14abed2de134b1f993be0f9809e3065</title>
<path fill="none" stroke="#5b6b7a" d="M228.19,-437.33C188.26,-521.54 140.51,-656.54 173.9,-771.3 209.89,-894.99 221.57,-945.42 329.4,-1015.9 485.96,-1118.22 1074.35,-1157.12 1266.95,-1167.28"/>
<polygon fill="#5b6b7a" stroke="#5b6b7a" points="1266.57,-1170.76 1276.74,-1167.79 1266.94,-1163.77 1266.57,-1170.76"/>
<text xml:space="preserve" text-anchor="middle" x="248.15" y="-758.95" font-family="Sans-Serif" font-size="13.00" fill="#2d3436">routes to home region</text>
</g>
<!-- e14abed2de134b1f993be0f9809e3065&#45;&gt;f826c29dd56f4daaa4c099f3783b08ed -->
<g id="edge6" class="edge">
<title>e14abed2de134b1f993be0f9809e3065&#45;&gt;f826c29dd56f4daaa4c099f3783b08ed</title>
<path fill="none" stroke="#5b6b7a" stroke-dasharray="5,2" d="M1278.21,-1170.76C1038.01,-1172.14 17.4,-1162.55 17.4,-900.1 17.4,-900.1 17.4,-900.1 17.4,-353.9 17.4,-294.59 25.34,-228.5 33.42,-176.54"/>
<polygon fill="#5b6b7a" stroke="#5b6b7a" points="36.85,-177.26 34.97,-166.83 29.94,-176.16 36.85,-177.26"/>
<text xml:space="preserve" text-anchor="middle" x="59.02" y="-622.9" font-family="Sans-Serif" font-size="13.00" fill="#2d3436">OIDC / token</text>
</g>
<!-- 296dc73dd72949ae87cc1f04419b7482 -->
<g id="node7" class="node">
<title>296dc73dd72949ae87cc1f04419b7482</title>
<image xlink:href="C:\Users\USER\AppData\Local\Programs\Python\Python312\Lib\site-packages\resources/azure/database\sql-databases.png" width="100.8px" height="100.8px" preserveAspectRatio="xMinYMin meet" x="1756" y="-949.5"/>
<text xml:space="preserve" text-anchor="middle" x="1806.4" y="-833.4" font-family="Sans-Serif" font-size="12.00" fill="#2d3436">Azure SQL (S2)</text>
<text xml:space="preserve" text-anchor="middle" x="1806.4" y="-819.15" font-family="Sans-Serif" font-size="12.00" fill="#2d3436">tenant data · Row&#45;Level Security</text>
</g>
<!-- e14abed2de134b1f993be0f9809e3065&#45;&gt;296dc73dd72949ae87cc1f04419b7482 -->
<g id="edge7" class="edge">
<title>e14abed2de134b1f993be0f9809e3065&#45;&gt;296dc73dd72949ae87cc1f04419b7482</title>
<path fill="none" stroke="#5b6b7a" d="M1378.53,-1160.03C1453.24,-1143.43 1596.53,-1105.94 1704.4,-1043.4 1726.16,-1030.78 1744.48,-1011.44 1759.32,-991.02"/>
<polygon fill="#5b6b7a" stroke="#5b6b7a" points="1762.19,-993.03 1765.03,-982.82 1756.44,-989.03 1762.19,-993.03"/>
<text xml:space="preserve" text-anchor="middle" x="1755.94" y="-1031.05" font-family="Sans-Serif" font-size="13.00" fill="#2d3436">SQL · RLS</text>
</g>
<!-- 9e234dee29d04ac99341fdb97a0b84a8 -->
<g id="node8" class="node">
<title>9e234dee29d04ac99341fdb97a0b84a8</title>
<image xlink:href="C:\Users\USER\AppData\Local\Programs\Python\Python312\Lib\site-packages\resources/azure/storage\blob-storage.png" width="100.8px" height="100.8px" preserveAspectRatio="xMinYMin meet" x="1474" y="-949.5"/>
<text xml:space="preserve" text-anchor="middle" x="1524.4" y="-833.4" font-family="Sans-Serif" font-size="12.00" fill="#2d3436">Blob Storage</text>
<text xml:space="preserve" text-anchor="middle" x="1524.4" y="-819.15" font-family="Sans-Serif" font-size="12.00" fill="#2d3436">files · immutable audit log</text>
</g>
<!-- e14abed2de134b1f993be0f9809e3065&#45;&gt;9e234dee29d04ac99341fdb97a0b84a8 -->
<g id="edge8" class="edge">
<title>e14abed2de134b1f993be0f9809e3065&#45;&gt;9e234dee29d04ac99341fdb97a0b84a8</title>
<path fill="none" stroke="#5b6b7a" d="M1378.76,-1117.82C1398.95,-1095.67 1421.79,-1069.09 1440.4,-1043.4 1452.18,-1027.14 1463.76,-1009.13 1474.38,-991.52"/>
<polygon fill="#5b6b7a" stroke="#5b6b7a" points="1477.29,-993.48 1479.4,-983.09 1471.28,-989.89 1477.29,-993.48"/>
<text xml:space="preserve" text-anchor="middle" x="1514.47" y="-1031.05" font-family="Sans-Serif" font-size="13.00" fill="#2d3436">blobs (scoped SAS)</text>
</g>
<!-- 0d779e3fae764f3eb69287b8d6ea57a2 -->
<g id="node9" class="node">
<title>0d779e3fae764f3eb69287b8d6ea57a2</title>
<image xlink:href="C:\Users\USER\AppData\Local\Programs\Python\Python312\Lib\site-packages\resources/azure/security\key-vaults.png" width="100.8px" height="100.8px" preserveAspectRatio="xMinYMin meet" x="1615" y="-949.5"/>
<text xml:space="preserve" text-anchor="middle" x="1665.4" y="-833.4" font-family="Sans-Serif" font-size="12.00" fill="#2d3436">Key Vault</text>
<text xml:space="preserve" text-anchor="middle" x="1665.4" y="-819.15" font-family="Sans-Serif" font-size="12.00" fill="#2d3436">secrets · per&#45;tenant keys</text>
</g>
<!-- e14abed2de134b1f993be0f9809e3065&#45;&gt;0d779e3fae764f3eb69287b8d6ea57a2 -->
<g id="edge9" class="edge">
<title>e14abed2de134b1f993be0f9809e3065&#45;&gt;0d779e3fae764f3eb69287b8d6ea57a2</title>
<path fill="none" stroke="#5b6b7a" d="M1378.65,-1156.04C1435.44,-1137.88 1527.85,-1101.61 1588.4,-1043.4 1603.67,-1028.72 1616.61,-1010.33 1627.26,-991.68"/>
<polygon fill="#5b6b7a" stroke="#5b6b7a" points="1630.31,-993.39 1632.06,-982.94 1624.18,-990.02 1630.31,-993.39"/>
<text xml:space="preserve" text-anchor="middle" x="1648.6" y="-1031.05" font-family="Sans-Serif" font-size="13.00" fill="#2d3436">secrets / keys</text>
</g>
<!-- e0d999139f3b47ffb19c761c5ca47e52 -->
<g id="node10" class="node">
<title>e0d999139f3b47ffb19c761c5ca47e52</title>
<image xlink:href="C:\Users\USER\AppData\Local\Programs\Python\Python312\Lib\site-packages\resources/generic/blank\blank.png" width="100.8px" height="100.8px" preserveAspectRatio="xMinYMin meet" x="349" y="-949.5"/>
<text xml:space="preserve" text-anchor="middle" x="399.4" y="-833.4" font-family="Sans-Serif" font-size="12.00" fill="#2d3436">Communication Services</text>
<text xml:space="preserve" text-anchor="middle" x="399.4" y="-819.15" font-family="Sans-Serif" font-size="12.00" fill="#2d3436">Email · SMS · OTP</text>
</g>
<!-- e14abed2de134b1f993be0f9809e3065&#45;&gt;e0d999139f3b47ffb19c761c5ca47e52 -->
<g id="edge10" class="edge">
<title>e14abed2de134b1f993be0f9809e3065&#45;&gt;e0d999139f3b47ffb19c761c5ca47e52</title>
<path fill="none" stroke="#5b6b7a" d="M1278.17,-1166.68C1163.27,-1157.39 873.76,-1126.92 647.65,-1043.4 579.16,-1018.1 507.63,-974.73 459.05,-942.31"/>
<polygon fill="#5b6b7a" stroke="#5b6b7a" points="461.15,-939.51 450.9,-936.83 457.24,-945.32 461.15,-939.51"/>
<text xml:space="preserve" text-anchor="middle" x="706.52" y="-1031.05" font-family="Sans-Serif" font-size="13.00" fill="#2d3436">email · SMS · OTP</text>
</g>
<!-- 8eb29fd78dbb4bcda514178c1c860dd5 -->
<g id="node11" class="node">
<title>8eb29fd78dbb4bcda514178c1c860dd5</title>
<image xlink:href="C:\Users\USER\AppData\Local\Programs\Python\Python312\Lib\site-packages\resources/azure/security\microsoft-defender-for-cloud.png" width="100.8px" height="100.8px" preserveAspectRatio="xMinYMin meet" x="1897" y="-949.5"/>
<text xml:space="preserve" text-anchor="middle" x="1947.4" y="-833.4" font-family="Sans-Serif" font-size="12.00" fill="#2d3436">Defender for Cloud</text>
<text xml:space="preserve" text-anchor="middle" x="1947.4" y="-819.15" font-family="Sans-Serif" font-size="12.00" fill="#2d3436">threat detection</text>
</g>
<!-- e14abed2de134b1f993be0f9809e3065&#45;&gt;8eb29fd78dbb4bcda514178c1c860dd5 -->
<g id="edge12" class="edge">
<title>e14abed2de134b1f993be0f9809e3065&#45;&gt;8eb29fd78dbb4bcda514178c1c860dd5</title>
<path fill="none" stroke="#9aa7b4" stroke-dasharray="1,5" d="M1378.74,-1168.74C1482.62,-1163.23 1723.62,-1137.27 1874.4,-1015.9 1883.38,-1008.67 1891.58,-1000.03 1898.96,-990.76"/>
<polygon fill="#9aa7b4" stroke="#9aa7b4" points="1901.65,-993.01 1904.89,-982.92 1896.07,-988.79 1901.65,-993.01"/>
</g>
<!-- 09dbbed0c3d6477ab38054c1e8f95aa8 -->
<g id="node12" class="node">
<title>09dbbed0c3d6477ab38054c1e8f95aa8</title>
<image xlink:href="C:\Users\USER\AppData\Local\Programs\Python\Python312\Lib\site-packages\resources/azure/devops\application-insights.png" width="100.8px" height="100.8px" preserveAspectRatio="xMinYMin meet" x="2038" y="-949.5"/>
<text xml:space="preserve" text-anchor="middle" x="2088.4" y="-833.4" font-family="Sans-Serif" font-size="12.00" fill="#2d3436">App Insights</text>
<text xml:space="preserve" text-anchor="middle" x="2088.4" y="-819.15" font-family="Sans-Serif" font-size="12.00" fill="#2d3436">tracing</text>
</g>
<!-- e14abed2de134b1f993be0f9809e3065&#45;&gt;09dbbed0c3d6477ab38054c1e8f95aa8 -->
<g id="edge11" class="edge">
<title>e14abed2de134b1f993be0f9809e3065&#45;&gt;09dbbed0c3d6477ab38054c1e8f95aa8</title>
<path fill="none" stroke="#9aa7b4" stroke-dasharray="1,5" d="M1378.75,-1164.07C1519.43,-1146.16 1913.12,-1090.43 2017.4,-1015.9 2027.09,-1008.97 2035.73,-1000.27 2043.34,-990.75"/>
<polygon fill="#9aa7b4" stroke="#9aa7b4" points="2045.94,-993.13 2049.14,-983.03 2040.34,-988.93 2045.94,-993.13"/>
</g>
<!-- 615c8dc6b2454b379f2146e82675aeed -->
<g id="node14" class="node">
<title>615c8dc6b2454b379f2146e82675aeed</title>
<image xlink:href="C:\Users\USER\AppData\Local\Programs\Python\Python312\Lib\site-packages\resources/generic/blank\blank.png" width="100.8px" height="100.8px" preserveAspectRatio="xMinYMin meet" x="2179" y="-949.5"/>
<text xml:space="preserve" text-anchor="middle" x="2229.4" y="-833.4" font-family="Sans-Serif" font-size="12.00" fill="#2d3436">Payment gateway</text>
<text xml:space="preserve" text-anchor="middle" x="2229.4" y="-819.15" font-family="Sans-Serif" font-size="12.00" fill="#2d3436">(Stripe / PayHere)</text>
</g>
<!-- e14abed2de134b1f993be0f9809e3065&#45;&gt;615c8dc6b2454b379f2146e82675aeed -->
<g id="edge14" class="edge">
<title>e14abed2de134b1f993be0f9809e3065&#45;&gt;615c8dc6b2454b379f2146e82675aeed</title>
<path fill="none" stroke="#5b6b7a" d="M1378.61,-1166.11C1537.63,-1152.34 2027.27,-1103.6 2156.4,-1015.9 2166.48,-1009.05 2175.46,-1000.3 2183.36,-990.68"/>
<polygon fill="#5b6b7a" stroke="#5b6b7a" points="2186.08,-992.89 2189.4,-982.83 2180.53,-988.62 2186.08,-992.89"/>
<text xml:space="preserve" text-anchor="middle" x="2207.41" y="-1031.05" font-family="Sans-Serif" font-size="13.00" fill="#2d3436">payments (tokenised)</text>
</g>
<!-- 3a14168e1d1549699c2850869e0cc540 -->
<g id="node16" class="node">
<title>3a14168e1d1549699c2850869e0cc540</title>
<image xlink:href="C:\Users\USER\AppData\Local\Programs\Python\Python312\Lib\site-packages\resources/azure/integration\api-management.png" width="100.8px" height="100.8px" preserveAspectRatio="xMinYMin meet" x="1051" y="-949.5"/>
<text xml:space="preserve" text-anchor="middle" x="1101.4" y="-833.4" font-family="Sans-Serif" font-size="12.00" fill="#2d3436">API Management</text>
<text xml:space="preserve" text-anchor="middle" x="1101.4" y="-819.15" font-family="Sans-Serif" font-size="12.00" fill="#2d3436">public API · webhooks</text>
</g>
<!-- e14abed2de134b1f993be0f9809e3065&#45;&gt;3a14168e1d1549699c2850869e0cc540 -->
<g id="edge16" class="edge">
<title>e14abed2de134b1f993be0f9809e3065&#45;&gt;3a14168e1d1549699c2850869e0cc540</title>
<path fill="none" stroke="#c8841e" d="M1278.02,-1149.13C1234.69,-1128.45 1173.77,-1092.81 1138.65,-1043.4 1127.93,-1028.32 1120.29,-1010.4 1114.85,-992.41"/>
<polygon fill="#c8841e" stroke="#c8841e" points="1118.29,-991.69 1112.23,-983 1111.54,-993.57 1118.29,-991.69"/>
<text xml:space="preserve" text-anchor="middle" x="1205.03" y="-1031.05" font-family="Sans-Serif" font-size="13.00" fill="#2d3436">exposes / webhooks</text>
</g>
<!-- 61f17e4b7ec1429e8748ce136cf48622 -->
<g id="node17" class="node">
<title>61f17e4b7ec1429e8748ce136cf48622</title>
<image xlink:href="C:\Users\USER\AppData\Local\Programs\Python\Python312\Lib\site-packages\resources/azure/integration\service-bus.png" width="100.8px" height="100.8px" preserveAspectRatio="xMinYMin meet" x="1192" y="-949.5"/>
<text xml:space="preserve" text-anchor="middle" x="1242.4" y="-833.4" font-family="Sans-Serif" font-size="12.00" fill="#2d3436">Service Bus</text>
<text xml:space="preserve" text-anchor="middle" x="1242.4" y="-819.15" font-family="Sans-Serif" font-size="12.00" fill="#2d3436">async jobs · migration</text>
</g>
<!-- e14abed2de134b1f993be0f9809e3065&#45;&gt;61f17e4b7ec1429e8748ce136cf48622 -->
<g id="edge17" class="edge">
<title>e14abed2de134b1f993be0f9809e3065&#45;&gt;61f17e4b7ec1429e8748ce136cf48622</title>
<path fill="none" stroke="#c8841e" d="M1301.23,-1088.42C1296.33,-1073.46 1291.3,-1057.97 1286.65,-1043.4 1281.37,-1026.86 1275.85,-1009.22 1270.55,-992.17"/>
<polygon fill="#c8841e" stroke="#c8841e" points="1274.04,-991.61 1267.74,-983.09 1267.36,-993.68 1274.04,-991.61"/>
<text xml:space="preserve" text-anchor="middle" x="1315.53" y="-1031.05" font-family="Sans-Serif" font-size="13.00" fill="#2d3436">enqueue</text>
</g>
<!-- d413085494d24bedabf7bea5bab5f371 -->
<g id="node18" class="node">
<title>d413085494d24bedabf7bea5bab5f371</title>
<image xlink:href="C:\Users\USER\AppData\Local\Programs\Python\Python312\Lib\site-packages\resources/azure/web\signalr.png" width="100.8px" height="100.8px" preserveAspectRatio="xMinYMin meet" x="1333" y="-949.5"/>
<text xml:space="preserve" text-anchor="middle" x="1383.4" y="-833.4" font-family="Sans-Serif" font-size="12.00" fill="#2d3436">SignalR</text>
<text xml:space="preserve" text-anchor="middle" x="1383.4" y="-819.15" font-family="Sans-Serif" font-size="12.00" fill="#2d3436">real&#45;time messaging</text>
</g>
<!-- e14abed2de134b1f993be0f9809e3065&#45;&gt;d413085494d24bedabf7bea5bab5f371 -->
<g id="edge18" class="edge">
<title>e14abed2de134b1f993be0f9809e3065&#45;&gt;d413085494d24bedabf7bea5bab5f371</title>
<path fill="none" stroke="#1f7a3d" d="M1345.05,-1088.43C1351.19,-1058.28 1358.19,-1023.92 1364.51,-992.87"/>
<polygon fill="#1f7a3d" stroke="#1f7a3d" points="1367.94,-993.57 1366.5,-983.08 1361.08,-992.18 1367.94,-993.57"/>
<text xml:space="preserve" text-anchor="middle" x="1393.92" y="-1031.05" font-family="Sans-Serif" font-size="13.00" fill="#2d3436">WebSocket</text>
</g>
<!-- 48b5d204bcc348c8b0308a76f95ad26f -->
<g id="node19" class="node">
<title>48b5d204bcc348c8b0308a76f95ad26f</title>
<image xlink:href="C:\Users\USER\AppData\Local\Programs\Python\Python312\Lib\site-packages\resources/azure/database\cache-for-redis.png" width="100.8px" height="100.8px" preserveAspectRatio="xMinYMin meet" x="628" y="-949.5"/>
<text xml:space="preserve" text-anchor="middle" x="678.4" y="-833.4" font-family="Sans-Serif" font-size="12.00" fill="#2d3436">Redis</text>
<text xml:space="preserve" text-anchor="middle" x="678.4" y="-819.15" font-family="Sans-Serif" font-size="12.00" fill="#2d3436">sessions · rate&#45;limit</text>
</g>
<!-- e14abed2de134b1f993be0f9809e3065&#45;&gt;48b5d204bcc348c8b0308a76f95ad26f -->
<g id="edge19" class="edge">
<title>e14abed2de134b1f993be0f9809e3065&#45;&gt;48b5d204bcc348c8b0308a76f95ad26f</title>
<path fill="none" stroke="#c8841e" d="M1278.14,-1168.99C1170.59,-1163.99 914.54,-1139.01 749.4,-1015.9 740.02,-1008.9 731.6,-1000.27 724.13,-990.89"/>
<polygon fill="#c8841e" stroke="#c8841e" points="726.96,-988.83 718.17,-982.91 721.35,-993.02 726.96,-988.83"/>
<text xml:space="preserve" text-anchor="middle" x="809.24" y="-1031.05" font-family="Sans-Serif" font-size="13.00" fill="#2d3436">cache</text>
</g>
<!-- b03130eddba040f08cbdcc78efbb3714 -->
<g id="node20" class="node">
<title>b03130eddba040f08cbdcc78efbb3714</title>
<image xlink:href="C:\Users\USER\AppData\Local\Programs\Python\Python312\Lib\site-packages\resources/azure/mobile\notification-hubs.png" width="100.8px" height="100.8px" preserveAspectRatio="xMinYMin meet" x="769" y="-949.5"/>
<text xml:space="preserve" text-anchor="middle" x="819.4" y="-833.4" font-family="Sans-Serif" font-size="12.00" fill="#2d3436">Notification Hubs</text>
<text xml:space="preserve" text-anchor="middle" x="819.4" y="-819.15" font-family="Sans-Serif" font-size="12.00" fill="#2d3436">push</text>
</g>
<!-- e14abed2de134b1f993be0f9809e3065&#45;&gt;b03130eddba040f08cbdcc78efbb3714 -->
<g id="edge20" class="edge">
<title>e14abed2de134b1f993be0f9809e3065&#45;&gt;b03130eddba040f08cbdcc78efbb3714</title>
<path fill="none" stroke="#c8841e" d="M1278.1,-1166.29C1188.19,-1156.65 999.2,-1124.01 890.4,-1015.9 882.83,-1008.37 875.71,-999.89 869.13,-991.02"/>
<polygon fill="#c8841e" stroke="#c8841e" points="871.99,-989.01 863.34,-982.89 866.29,-993.07 871.99,-989.01"/>
<text xml:space="preserve" text-anchor="middle" x="936.98" y="-1031.05" font-family="Sans-Serif" font-size="13.00" fill="#2d3436">alerts</text>
</g>
<!-- 8de68612b5724c10bb7ee31310c8dea6 -->
<g id="node21" class="node">
<title>8de68612b5724c10bb7ee31310c8dea6</title>
<image xlink:href="C:\Users\USER\AppData\Local\Programs\Python\Python312\Lib\site-packages\resources/azure/ml\azure-open-ai.png" width="100.8px" height="100.8px" preserveAspectRatio="xMinYMin meet" x="910" y="-949.5"/>
<text xml:space="preserve" text-anchor="middle" x="960.4" y="-833.4" font-family="Sans-Serif" font-size="12.00" fill="#2d3436">Azure OpenAI</text>
<text xml:space="preserve" text-anchor="middle" x="960.4" y="-819.15" font-family="Sans-Serif" font-size="12.00" fill="#2d3436">insights · tutor</text>
</g>
<!-- e14abed2de134b1f993be0f9809e3065&#45;&gt;8de68612b5724c10bb7ee31310c8dea6 -->
<g id="edge21" class="edge">
<title>e14abed2de134b1f993be0f9809e3065&#45;&gt;8de68612b5724c10bb7ee31310c8dea6</title>
<path fill="none" stroke="#c8841e" d="M1278.13,-1165.53C1204.78,-1155.95 1069.14,-1127.33 995.15,-1043.4 982.55,-1029.11 974.35,-1011.03 969.04,-992.56"/>
<polygon fill="#c8841e" stroke="#c8841e" points="972.49,-991.94 966.61,-983.13 965.71,-993.69 972.49,-991.94"/>
<text xml:space="preserve" text-anchor="middle" x="1057.78" y="-1031.05" font-family="Sans-Serif" font-size="13.00" fill="#2d3436">in&#45;region inference</text>
</g>
<!-- e0d999139f3b47ffb19c761c5ca47e52&#45;&gt;8da22b803c83448cb1fdb967089e73ff -->
<g id="edge23" class="edge">
<title>e0d999139f3b47ffb19c761c5ca47e52&#45;&gt;8da22b803c83448cb1fdb967089e73ff</title>
<path fill="none" stroke="#9aa7b4" stroke-dasharray="5,2" d="M360.95,-816.33C346.59,-785.79 330.19,-750.91 315.44,-719.55"/>
<polygon fill="#9aa7b4" stroke="#9aa7b4" points="318.78,-718.42 311.36,-710.86 312.45,-721.4 318.78,-718.42"/>
<text xml:space="preserve" text-anchor="middle" x="398.58" y="-758.95" font-family="Sans-Serif" font-size="13.00" fill="#2d3436">email · SMS · OTP</text>
</g>
<!-- bf658cbf1c9e46c0ab6593c4ed66fc30 -->
<g id="node13" class="node">
<title>bf658cbf1c9e46c0ab6593c4ed66fc30</title>
<image xlink:href="C:\Users\USER\AppData\Local\Programs\Python\Python312\Lib\site-packages\resources/azure/analytics\log-analytics-workspaces.png" width="100.8px" height="100.8px" preserveAspectRatio="xMinYMin meet" x="2038" y="-677.4"/>
<text xml:space="preserve" text-anchor="middle" x="2088.4" y="-561.3" font-family="Sans-Serif" font-size="12.00" fill="#2d3436">Log Analytics</text>
<text xml:space="preserve" text-anchor="middle" x="2088.4" y="-547.05" font-family="Sans-Serif" font-size="12.00" fill="#2d3436">logs · audit retention</text>
</g>
<!-- 09dbbed0c3d6477ab38054c1e8f95aa8&#45;&gt;bf658cbf1c9e46c0ab6593c4ed66fc30 -->
<g id="edge13" class="edge">
<title>09dbbed0c3d6477ab38054c1e8f95aa8&#45;&gt;bf658cbf1c9e46c0ab6593c4ed66fc30</title>
<path fill="none" stroke="#9aa7b4" stroke-dasharray="1,5" d="M2088.4,-816.33C2088.4,-786.18 2088.4,-751.82 2088.4,-720.77"/>
<polygon fill="#9aa7b4" stroke="#9aa7b4" points="2091.9,-721.01 2088.4,-711.01 2084.9,-721.01 2091.9,-721.01"/>
</g>
<!-- a85271f0f58d45138aba9179c61d3b5b -->
<g id="node15" class="node">
<title>a85271f0f58d45138aba9179c61d3b5b</title>
<image xlink:href="C:\Users\USER\AppData\Local\Programs\Python\Python312\Lib\site-packages\resources/generic/blank\blank.png" width="100.8px" height="100.8px" preserveAspectRatio="xMinYMin meet" x="2320" y="-949.5"/>
<text xml:space="preserve" text-anchor="middle" x="2370.4" y="-833.4" font-family="Sans-Serif" font-size="12.00" fill="#2d3436">Legacy LMS</text>
<text xml:space="preserve" text-anchor="middle" x="2370.4" y="-819.15" font-family="Sans-Serif" font-size="12.00" fill="#2d3436">(Moodle) — migration</text>
</g>
<!-- a85271f0f58d45138aba9179c61d3b5b&#45;&gt;e14abed2de134b1f993be0f9809e3065 -->
<g id="edge15" class="edge">
<title>a85271f0f58d45138aba9179c61d3b5b&#45;&gt;e14abed2de134b1f993be0f9809e3065</title>
<path fill="none" stroke="#5b6b7a" d="M2340.89,-981.57C2328.5,-1005.06 2311.67,-1028.37 2289.4,-1043.4 2141.33,-1143.35 1577.91,-1164.73 1389.89,-1169.11"/>
<polygon fill="#5b6b7a" stroke="#5b6b7a" points="1390.02,-1165.61 1380.1,-1169.33 1390.17,-1172.61 1390.02,-1165.61"/>
<text xml:space="preserve" text-anchor="middle" x="2345.03" y="-1031.05" font-family="Sans-Serif" font-size="13.00" fill="#2d3436">import / API</text>
</g>
<!-- d413085494d24bedabf7bea5bab5f371&#45;&gt;fad98830490d4b6195d937bae5935b3a -->
<g id="edge25" class="edge">
<title>d413085494d24bedabf7bea5bab5f371&#45;&gt;fad98830490d4b6195d937bae5935b3a</title>
<path fill="none" stroke="#1f7a3d" stroke-dasharray="5,2" d="M1333.45,-823.3C1326.99,-817.44 1319.97,-812.27 1312.4,-808.3 1200.65,-749.63 870.64,-788.81 745.65,-771.3 711.31,-766.49 703.7,-759.86 669.4,-754.8 628.6,-748.79 519.71,-761.35 484.4,-740.05 474.93,-734.34 466.52,-726.83 459.1,-718.4"/>
<polygon fill="#1f7a3d" stroke="#1f7a3d" points="461.99,-716.41 452.96,-710.87 456.57,-720.83 461.99,-716.41"/>
<text xml:space="preserve" text-anchor="middle" x="819.52" y="-758.95" font-family="Sans-Serif" font-size="13.00" fill="#2d3436">real&#45;time (WebSocket)</text>
</g>
<!-- d413085494d24bedabf7bea5bab5f371&#45;&gt;3cb744d52b884a01b1c35204254f0c36 -->
<g id="edge26" class="edge">
<title>d413085494d24bedabf7bea5bab5f371&#45;&gt;3cb744d52b884a01b1c35204254f0c36</title>
<path fill="none" stroke="#1f7a3d" stroke-dasharray="5,2" d="M1333.17,-823.81C1326.77,-817.85 1319.83,-812.52 1312.4,-808.3 1152.94,-717.86 1085.98,-771.31 903.4,-754.8 870.94,-751.86 637.69,-757.88 610.4,-740.05 597.36,-731.53 587.24,-719.01 579.41,-705.39"/>
<polygon fill="#1f7a3d" stroke="#1f7a3d" points="582.57,-703.88 574.82,-696.66 576.38,-707.14 582.57,-703.88"/>
</g>
<!-- b03130eddba040f08cbdcc78efbb3714&#45;&gt;fad98830490d4b6195d937bae5935b3a -->
<g id="edge24" class="edge">
<title>b03130eddba040f08cbdcc78efbb3714&#45;&gt;fad98830490d4b6195d937bae5935b3a</title>
<path fill="none" stroke="#b0792f" stroke-dasharray="5,2" d="M769.25,-824.84C762.8,-818.59 755.83,-812.91 748.4,-808.3 645.45,-744.36 579.42,-815.28 484.4,-740.05 476.51,-733.8 469.25,-726.43 462.62,-718.48"/>
<polygon fill="#b0792f" stroke="#b0792f" points="465.56,-716.55 456.62,-710.86 460.06,-720.88 465.56,-716.55"/>
<text xml:space="preserve" text-anchor="middle" x="598.83" y="-758.95" font-family="Sans-Serif" font-size="13.00" fill="#2d3436">push · APNS / FCM</text>
</g>
<!-- 080d5ac4945647d88ba1b18293966dfc -->
<g id="node22" class="node">
<title>080d5ac4945647d88ba1b18293966dfc</title>
<image xlink:href="C:\Users\USER\AppData\Local\Programs\Python\Python312\Lib\site-packages\resources/azure/web\cognitive-search.png" width="100.8px" height="100.8px" preserveAspectRatio="xMinYMin meet" x="910" y="-677.4"/>
<text xml:space="preserve" text-anchor="middle" x="960.4" y="-561.3" font-family="Sans-Serif" font-size="12.00" fill="#2d3436">AI Search</text>
<text xml:space="preserve" text-anchor="middle" x="960.4" y="-547.05" font-family="Sans-Serif" font-size="12.00" fill="#2d3436">RAG over tenant content</text>
</g>
<!-- 8de68612b5724c10bb7ee31310c8dea6&#45;&gt;080d5ac4945647d88ba1b18293966dfc -->
<g id="edge22" class="edge">
<title>8de68612b5724c10bb7ee31310c8dea6&#45;&gt;080d5ac4945647d88ba1b18293966dfc</title>
<path fill="none" stroke="#c8841e" stroke-dasharray="5,2" d="M960.4,-816.33C960.4,-786.18 960.4,-751.82 960.4,-720.77"/>
<polygon fill="#c8841e" stroke="#c8841e" points="963.9,-721.01 960.4,-711.01 956.9,-721.01 963.9,-721.01"/>
</g>
</g>
</svg>
